<svg width="1728" height="451" viewBox="0 0 1728 451" fill="none" xmlns="http://www.w3.org/2000/svg">
<path d="M-105 449.772C540.308 449.772 1185.62 449.772 1830.92 449.772" stroke="url(#paint0_linear_85_168)" stroke-miterlimit="10"/>
<path d="M-105 438.784C221.768 438.865 548.374 436.9 875.061 434.678C1016.41 433.71 1158.73 434.028 1300.06 436.066C1476.99 438.614 1653.99 436.214 1830.87 438.784" stroke="url(#paint1_linear_85_168)" stroke-miterlimit="10"/>
<path d="M-105 427.957C-12.4118 427.957 80.2033 428.349 172.778 428.157C255.512 427.987 338.058 424.302 420.764 423.667C574.832 422.485 728.872 423.859 882.926 422.463C1019.66 421.222 1157.81 417.936 1294.46 422.95C1374.1 425.904 1452.92 427.248 1532.63 428.467C1632.11 429.988 1731.48 425.86 1830.92 427.957" stroke="url(#paint2_linear_85_168)" stroke-miterlimit="10"/>
<path d="M-105 417.279C-13.7427 417.279 77.7565 418.121 168.987 417.212C254.719 416.356 339.953 410.352 425.618 408.808C579.981 406.024 733.134 413.978 887.335 412.56C1023.02 411.334 1156.79 401.379 1292.63 410.285C1372.03 415.492 1448.97 419.568 1528.95 420.757C1629.78 422.234 1730.11 415.048 1830.92 417.279" stroke="url(#paint3_linear_85_168)" stroke-miterlimit="10"/>
<path d="M-105 406.807C-15.3963 406.807 74.8661 408.151 164.403 406.297C253.939 404.443 342.198 395.914 431.466 393.159C512.613 390.656 592.618 391.328 673.335 396.778C745.677 401.667 815.948 405.197 888.881 404.665C952.807 404.192 1012.7 398.86 1075.83 393.89C1148.08 388.197 1222.47 390.855 1294.04 398.107C1372.82 406.098 1447.13 413.741 1527.57 414.613C1629.05 415.72 1729.38 404.894 1830.92 406.807" stroke="url(#paint4_linear_85_168)" stroke-miterlimit="10"/>
<path d="M-105 396.483C-17.3323 396.483 71.6664 398.292 159.186 395.397C252.702 392.31 344.632 381.129 437.946 376.935C518.065 373.287 598.72 375.787 677.583 384.364C747.989 391.911 816.056 398.654 888.021 398.344C954.663 398.056 1014.96 388.787 1079.65 381.292C1153.08 372.784 1225.75 376.011 1298.06 386.328C1375.56 397.406 1447.11 409.34 1528.11 409.657C1629.76 410.064 1729.1 395.242 1830.92 396.49" stroke="url(#paint5_linear_85_168)" stroke-miterlimit="10"/>
<path d="M-105 386.321C-19.4026 386.276 68.292 388.536 153.594 384.585C251.519 380.088 347.186 366.212 444.748 360.414C526.622 355.555 602.284 360.075 681.254 372.282C748.863 382.739 814.348 393.211 885.265 393.233C955.389 393.233 1017.77 379.312 1084.32 369.151C1160.13 357.578 1230.03 360.946 1304.11 374.926C1379.5 389.149 1448.73 405.943 1530.17 405.573C1631.67 405.071 1729.14 385.981 1830.92 386.321" stroke="url(#paint6_linear_85_168)" stroke-miterlimit="10"/>
<path d="M-105 376.321C-21.5671 376.255 64.81 378.766 147.746 373.907C250.161 367.91 349.404 351.353 451.457 343.879C534.473 337.801 606.532 344.3 684.225 360.562C748.325 373.98 811.283 388.521 881.044 388.979C954.77 389.467 1021.24 370.347 1089.42 357.475C1168.17 342.609 1235.4 345.77 1311.49 363.885C1383.95 381.136 1451.52 403.284 1533.32 402.043C1634.45 400.507 1729.35 377.03 1830.9 376.321" stroke="url(#paint7_linear_85_168)" stroke-miterlimit="10"/>
<path d="M-105 366.485C-23.7047 366.396 61.3281 369.07 142.018 363.405C248.817 355.91 351.649 336.753 457.95 327.61C542.647 320.321 610.619 328.666 686.672 349.211C746.82 365.458 807.237 384.223 876.029 385.213C953.358 386.313 1025.16 361.478 1094.92 346.213C1131.46 338.259 1169.98 330.808 1209.81 332.521C1248.8 334.205 1285.72 343.222 1319.81 353.199C1388.54 373.264 1455.49 400.884 1537.27 398.772C1637.96 396.165 1729.69 368.316 1830.94 366.507" stroke="url(#paint8_linear_85_168)" stroke-miterlimit="10"/>
<path d="M-104.934 356.818C-25.6153 356.707 58.0328 359.447 136.518 353.125C247.39 344.219 353.436 322.588 463.676 311.865C550.308 303.432 614.355 313.468 688.351 338.244C744.452 357.032 802.341 379.992 870.516 381.55C951.179 383.389 1029.15 352.712 1100.25 335.35C1137.48 326.251 1178.56 316.658 1220.15 318.77C1259.14 320.749 1295.67 331.561 1328.27 342.771C1393.27 365.133 1459.53 398.329 1541.51 395.367C1641.78 391.734 1729.97 359.653 1830.95 356.818" stroke="url(#paint9_linear_85_168)" stroke-miterlimit="10"/>
<path d="M-104.92 347.321C-27.4964 347.188 54.9147 349.928 131.397 343.141C245.885 332.972 354.781 309.059 468.436 296.904C511.712 292.281 552.729 289.607 595.118 297.716C629.655 304.326 660.039 315.927 689.346 327.655C741.778 348.621 797.126 375.509 865.139 377.614C948.76 380.206 1033 343.968 1105.25 324.834C1143.13 314.798 1186.73 303.174 1229.91 305.633C1269.07 307.848 1305.12 320.307 1336.32 332.61C1397.87 356.862 1463.34 395.249 1545.76 391.535C1645.67 387.023 1730.2 350.969 1831 347.284" stroke="url(#paint10_linear_85_168)" stroke-miterlimit="10"/>
<path d="M-104.905 337.979C-29.1085 337.839 52.1868 340.564 126.908 333.467C244.3 322.315 355.266 296.35 471.785 283.049C515.209 278.094 556.105 275.022 598.278 284.224C632.493 291.734 661.653 304.621 689.536 317.5C738.888 340.268 791.925 370.532 860.273 373.08C903.953 374.712 947.874 362.194 985.598 351.597C1027.45 339.84 1067.69 326.444 1109.52 314.672C1147.97 303.86 1193.68 290.597 1238.32 293.366C1277.76 295.811 1313.24 309.539 1343.33 322.758C1402.05 348.606 1466.28 391.335 1549.5 387.008C1649.23 381.838 1730.23 342.196 1831.02 337.949" stroke="url(#paint11_linear_85_168)" stroke-miterlimit="10"/>
<path d="M-104.892 328.807C-30.4532 328.666 49.9818 331.399 123.265 324.169C242.727 312.39 354.984 284.652 473.452 270.524C516.674 265.355 557.879 262.054 599.623 271.913C633.797 279.985 662.083 293.979 688.957 307.745C736.253 331.96 787.286 364.734 856.469 367.563C901.344 369.38 946.543 355.821 984.858 344.61C1028.11 331.945 1069.55 317.53 1112.8 304.85C1151.79 293.41 1198.84 279.106 1244.67 282.023C1284.54 284.563 1319.41 299.149 1348.68 313.128C1405.59 340.298 1467.86 386.092 1552.41 381.476C1652.13 376.033 1730.04 333.208 1831.03 328.836" stroke="url(#paint12_linear_85_168)" stroke-miterlimit="10"/>
<path d="M-104.866 319.797C-31.4757 319.679 48.4618 322.463 120.669 315.292C241.14 303.329 353.706 274.136 473.088 259.624C515.718 254.455 557.69 251.087 598.842 261.013C633.299 269.321 661.195 284.069 687.572 298.418C734.115 323.778 783.642 357.867 854.276 360.614C900.147 362.401 945.466 348.702 984.319 336.982C1028.48 323.689 1070.7 308.535 1114.85 295.227C1154.33 283.323 1201.59 268.789 1248.36 271.684C1288.69 274.18 1322.97 289.031 1351.88 303.609C1408.34 332.078 1467.64 379.032 1554.17 374.461C1654.15 369.18 1729.7 323.718 1831.11 319.812" stroke="url(#paint13_linear_85_168)" stroke-miterlimit="10"/>
<path d="M-104.853 310.935C-31.7314 310.684 47.9507 313.815 119.849 306.504C239.5 294.311 350.627 264.247 469.068 249.396C511.577 244.071 553.522 240.881 594.647 250.688C629.602 259.041 658.049 273.966 684.816 288.492C732.219 314.221 782.271 348.746 853.833 351.966C900.026 354.041 945.076 340.512 984.104 328.607C1028.33 315.107 1070.47 299.658 1114.68 286.151C1154.36 274.025 1201.37 259.691 1248.49 262.792C1289.09 265.466 1323.17 280.346 1352.13 295.087C1408.82 323.955 1467 370.288 1554.21 365.982C1654.47 361.049 1729.25 314.347 1831.07 310.935" stroke="url(#paint14_linear_85_168)" stroke-miterlimit="10"/>
<path d="M-104.838 302.272C-31.4077 301.815 48.0323 305.766 120.186 297.945C237.712 285.206 346.339 254.647 462.616 239.271C505.636 233.577 546.479 230.616 588.195 240.49C623.781 248.901 653.237 263.671 680.985 278.072C729.961 303.52 782.124 338.392 853.686 342.786C899.597 345.607 944.808 332.041 983.5 320.144C1027.19 306.711 1068.69 291.247 1112.37 277.799C1151.97 265.606 1198.98 251.383 1246.03 255.068C1286.51 258.236 1321.09 273.331 1350.45 287.909C1407.44 316.193 1467.29 361.655 1553.45 357.475C1653.96 352.594 1728.98 305.625 1831.04 302.272" stroke="url(#paint15_linear_85_168)" stroke-miterlimit="10"/>
<path d="M-104.812 293.758C-30.9646 293.211 48.2604 298.262 120.857 289.984C235.991 276.853 341.781 245.896 455.611 230.166C498.994 224.154 538.882 221.474 581.069 231.222C617.207 239.574 647.845 253.96 676.629 268.25C727.245 293.359 781.814 328.105 853.309 333.563C898.803 337.041 943.665 323.755 982.007 311.91C1024.96 298.617 1065.59 283.249 1108.51 269.963C1147.99 257.748 1194.56 243.931 1241.39 248.141C1281.91 251.789 1317.11 266.95 1347.13 281.373C1404.87 309.067 1466.69 353.391 1552.19 349.27C1653.14 344.411 1728.57 297.14 1831.08 293.802" stroke="url(#paint16_linear_85_168)" stroke-miterlimit="10"/>
<path d="M-104.784 285.405C-30.4261 284.881 48.7585 291.269 121.866 282.569C234.365 269.195 337.077 237.92 448.231 221.917C491.789 215.647 530.924 213.291 573.461 222.759C610.243 230.941 642.025 244.913 671.924 258.945C724.651 283.603 781.129 317.847 852.826 324.309C897.782 328.356 941.851 315.647 979.817 303.882C1021.83 290.855 1061.42 275.62 1103.41 262.578C1142.73 250.356 1188.4 237.226 1234.96 241.9C1275.66 245.999 1311.59 261.101 1342.51 275.325C1401.4 302.405 1465.42 345.371 1550.47 341.273C1652.04 336.376 1728.05 288.788 1831.18 285.427" stroke="url(#paint17_linear_85_168)" stroke-miterlimit="10"/>
<path d="M-104.771 277.215C-29.808 276.802 49.3498 284.726 123.116 275.65C232.792 262.157 332.237 230.601 440.527 214.51C484.059 208.026 522.656 206.01 565.408 215.064C602.849 222.995 635.746 236.48 666.869 250.083C721.989 274.18 780.188 307.605 852.153 314.997C939.001 323.925 1026.76 277.459 1097.14 255.555C1136.32 243.355 1180.75 231.133 1226.9 236.251C1267.93 240.807 1304.61 255.762 1336.59 269.771C1396.98 296.217 1463.39 337.647 1548.22 333.526C1650.55 328.563 1727.28 280.627 1831.15 277.215" stroke="url(#paint18_linear_85_168)" stroke-miterlimit="10"/>
<path d="M-104.745 269.195C-29.1229 268.966 50.0483 278.589 124.581 269.195C231.313 255.696 327.329 223.992 432.608 207.848C475.992 201.202 514.213 199.548 557.085 208.077C595.212 215.676 629.252 228.563 661.598 241.738C719.111 265.148 779.044 297.457 851.373 305.766C936.903 315.573 1020.89 270.451 1089.96 248.901C1128.16 237.004 1172.68 225.011 1217.57 231.141C1259.25 236.827 1295.96 250.615 1329.76 264.646C1391.89 290.42 1460.85 330.173 1545.68 326.008C1648.88 320.949 1726.44 272.651 1831.18 269.144" stroke="url(#paint19_linear_85_168)" stroke-miterlimit="10"/>
<path d="M-104.717 261.33C-28.3828 261.33 50.8691 272.799 126.236 263.058C229.929 249.655 322.423 217.818 424.596 201.763C602.056 173.855 694.631 276.883 850.513 296.601C934.537 307.243 1014.27 263.745 1082.1 242.632C1120.12 230.816 1162.92 220.056 1207.25 226.532C1249.45 232.699 1287.02 246.184 1322.18 259.949C1386.24 285.058 1457.88 323.002 1542.89 318.771C1647.04 313.601 1725.51 264.927 1831.22 261.33" stroke="url(#paint20_linear_85_168)" stroke-miterlimit="10"/>
<path d="M-104.691 253.635C-27.617 253.946 51.7693 267.298 128.037 257.269C228.637 244.042 317.596 212.132 416.583 196.217C590.373 168.287 696.217 266.374 849.585 287.503C932.157 298.89 1007.11 257.32 1073.69 236.613C1111.55 224.841 1152.49 215.499 1196.18 222.271C1238.95 228.918 1277.48 242.063 1314.04 255.541C1380.16 279.911 1454.53 316.031 1539.9 311.703C1645.07 306.379 1724.53 257.35 1831.26 253.635" stroke="url(#paint21_linear_85_168)" stroke-miterlimit="10"/>
<path d="M-104.663 246.103C-26.8231 246.73 52.7245 262.032 129.946 251.752C227.468 238.769 312.783 206.822 408.706 191.121C578.812 163.273 697.75 255.998 848.631 278.537C929.725 290.649 999.579 251.124 1065 230.823C1102.72 219.118 1141.63 211.275 1184.65 218.269C1228 225.351 1267.53 238.208 1305.55 251.353C1373.79 274.985 1450.9 309.222 1536.7 304.798C1642.91 299.311 1723.41 249.913 1831.21 246.073" stroke="url(#paint22_linear_85_168)" stroke-miterlimit="10"/>
<path d="M-104.637 238.732C-26.0441 239.685 53.7321 256.943 131.976 246.449C226.486 233.762 308.279 201.8 401.109 186.365C567.599 158.679 699.255 245.836 847.662 269.727C927.29 282.547 991.902 245.127 1056.2 225.218C1093.77 213.586 1130.78 207.287 1173.09 214.532C1217.05 222.064 1257.61 234.596 1297.05 247.417C1367.43 270.31 1447.26 302.656 1533.6 298.122C1640.92 292.48 1722.42 242.735 1831.29 238.732" stroke="url(#paint23_linear_85_168)" stroke-miterlimit="10"/>
<path d="M-104.611 231.532C-25.2918 232.802 54.7533 251.974 133.898 241.302C225.504 228.947 303.842 196.992 393.715 181.861C556.91 154.389 700.774 235.874 846.774 261.101C924.951 274.616 984.306 239.301 1047.56 219.746C1084.96 208.188 1120.16 203.432 1161.66 210.884C1206.22 218.874 1247.81 231.118 1288.66 243.584C1361.11 265.695 1443.6 296.217 1530.53 291.586C1638.93 285.789 1721.44 235.638 1831.37 231.547" stroke="url(#paint24_linear_85_168)" stroke-miterlimit="10"/>
<path d="M-104.583 224.487C-24.471 226.06 55.7623 247.07 135.875 236.251C224.725 224.25 299.756 192.318 386.832 177.511C546.895 150.29 702.267 226.119 845.821 252.683C922.693 266.906 976.737 233.548 1039.12 214.384C1076.4 202.937 1109.75 199.614 1150.55 207.28C1195.7 215.728 1238.29 227.729 1280.48 239.833C1354.91 261.183 1439.95 289.91 1527.48 285.162C1636.9 279.217 1720.37 228.704 1831.31 224.487" stroke="url(#paint25_linear_85_168)" stroke-miterlimit="10"/>
<path d="M-104.556 217.611C-23.6905 219.443 56.7713 242.181 137.784 231.251C224.094 219.612 296.019 187.68 380.487 173.22C462.428 159.189 549.598 175.029 626.134 191.956C699.941 208.284 770.105 229.7 845.015 244.507C920.919 259.513 969.33 227.728 1031.24 209.059C1113.45 184.283 1197.65 215.706 1272.89 236.081C1349.13 256.7 1436.56 283.714 1524.67 278.862C1635.06 272.792 1719.45 221.924 1831.37 217.604" stroke="url(#paint26_linear_85_168)" stroke-miterlimit="10"/>
<path d="M-104.529 210.891C-22.9113 212.937 57.5639 237.248 139.612 226.237C223.623 214.953 292.684 183.042 374.88 168.9C456.068 154.913 545.538 170.104 622.437 185.605C697.736 200.788 769.405 220.839 844.301 236.613C919.197 252.387 962.944 222.161 1024.06 203.757C1104.4 179.571 1192.11 213.358 1266.05 232.3C1343.89 252.239 1433.53 277.614 1522.13 272.696C1633.38 266.515 1718.6 215.307 1831.34 210.891" stroke="url(#paint27_linear_85_168)" stroke-miterlimit="10"/>
<path d="M-104.503 204.341C-22.1186 206.556 58.2894 232.226 141.292 221.149C223.3 210.212 289.82 178.316 369.839 164.447C450.408 150.526 541.921 165.097 619.169 179.313C695.8 193.426 768.908 212.272 843.683 229.014C878.959 236.908 904.812 237.233 938.919 227.049C966.641 218.771 990.087 206.748 1017.77 198.41C1054.7 187.274 1084.11 187.584 1122.79 195.863C1169.27 205.825 1214.55 217.279 1260.15 228.408C1339.29 247.668 1430.89 271.566 1519.88 266.603C1631.9 260.355 1717.83 208.808 1831.38 204.341" stroke="url(#paint28_linear_85_168)" stroke-miterlimit="10"/>
<path d="M-104.475 197.945C-21.3248 200.16 58.8413 227.057 142.812 215.942C223.193 205.3 287.442 173.287 365.846 159.772C445.999 145.955 539.192 159.92 616.75 173.065C694.308 186.21 768.774 204.082 843.307 221.806C877.75 229.996 902.931 231.155 936.742 221.023C963.549 212.988 985.92 201.128 1012.66 193.034C1049.39 181.912 1078.35 183.094 1116.35 191.646C1163.06 202.154 1209.03 213.586 1255.5 224.405C1335.64 243.06 1429.02 265.628 1518.15 260.651C1630.78 254.366 1717.3 202.509 1831.39 198.011" stroke="url(#paint29_linear_85_168)" stroke-miterlimit="10"/>
<path d="M-104.449 191.727C-20.5189 193.883 59.1901 221.71 144.102 210.566C223.286 200.161 285.532 167.903 362.848 154.787C442.893 141.192 537.094 154.521 615.136 166.729C693.81 179.025 768.921 196.151 843.145 214.849C876.889 223.342 901.787 225.129 935.343 214.997C961.424 207.132 982.894 195.346 1008.89 187.407C1045.45 176.248 1074.38 178.057 1111.81 186.934C1158.58 198.012 1205.1 209.473 1252.27 220.063C1332.93 238.178 1427.87 259.58 1516.94 254.639C1630.02 248.362 1716.95 196.21 1831.53 191.727" stroke="url(#paint30_linear_85_168)" stroke-miterlimit="10"/>
<path d="M-104.422 185.664C-19.725 187.621 59.2983 216.12 145.151 204.946C223.516 194.747 284.417 162.35 360.805 149.389C440.595 135.86 536.033 148.902 614.276 160.348C693.757 171.98 769.204 188.64 843.078 208.351C876.271 217.212 901.304 219.354 934.685 209.155C960.229 201.35 981.026 189.556 1006.53 181.676C1042.95 170.421 1072.28 172.548 1109.27 181.831C1155.95 193.544 1202.81 205.086 1250.51 215.499C1331.41 233.157 1427.46 253.598 1516.16 248.732C1629.51 242.521 1716.65 190.088 1831.5 185.664" stroke="url(#paint31_linear_85_168)" stroke-miterlimit="10"/>
<path d="M-104.382 179.756C-19.2552 181.514 59.2169 210.322 145.594 199.045C223.69 188.854 284.228 156.486 360.374 143.599C440.083 130.114 535.951 143.422 614.222 154.625C693.985 166.042 769.19 182.577 843.158 202.376C876.23 211.238 901.612 213.084 934.765 202.952C960.134 195.198 980.797 183.508 1006.17 175.731C1042.46 164.609 1072.34 166.677 1108.97 176.226C1155.45 188.337 1202.37 199.969 1250.27 210.278C1330.78 227.611 1428.08 247.823 1516.09 242.772C1629.28 236.288 1716.99 184.741 1831.54 179.778" stroke="url(#paint32_linear_85_168)" stroke-miterlimit="10"/>
<path d="M-104.354 173.944C-19.0394 175.613 59.2041 204.614 145.783 193.204C223.758 182.924 284.605 150.829 360.805 138.023C440.514 124.627 536.167 138.518 614.317 149.795C693.824 161.271 768.707 177.777 843.186 196.638C913.686 214.487 948.626 187.037 1006.69 169.919C1042.99 159.218 1073.05 161.168 1109.35 170.754C1155.62 182.976 1202.46 194.577 1250.35 204.769C1330.39 221.798 1428.95 242.107 1516.34 236.627C1629.04 229.553 1717.82 180.103 1831.61 174.055" stroke="url(#paint33_linear_85_168)" stroke-miterlimit="10"/>
<path d="M-104.328 168.221C-18.7576 169.831 59.2977 199.045 146.145 187.54C224.12 177.201 285.209 145.445 361.45 132.758C441.159 119.465 536.53 133.888 614.558 145.202C693.756 156.685 768.356 173.117 843.266 191.025C913.174 207.745 949.365 180.782 1007.47 164.44C1043.77 154.204 1074.1 156.094 1110.07 165.695C1156.13 177.984 1202.84 189.497 1250.71 199.511C1330.43 216.193 1429.97 236.288 1516.63 230.439C1628.77 222.877 1718.64 175.576 1831.6 168.568" stroke="url(#paint34_linear_85_168)" stroke-miterlimit="10"/>
<path d="M-104.301 162.601C-18.4343 164.166 59.5001 193.617 146.67 182.06C224.551 171.736 286.003 140.342 362.297 127.788C442.006 114.716 537.068 129.501 614.949 140.822C693.77 152.269 768.209 168.575 843.388 185.494C912.799 201.098 950.226 174.734 1008.48 159.152C1044.87 149.426 1075.43 151.316 1111.14 160.909C1156.94 173.22 1203.55 184.6 1251.34 194.378C1330.86 210.662 1431.01 230.262 1517.08 224.11C1628.66 216.142 1719.57 171.064 1831.66 163.191" stroke="url(#paint35_linear_85_168)" stroke-miterlimit="10"/>
<path d="M-104.274 157.077C-18.0449 158.628 59.7416 188.308 147.356 176.743C225.169 166.478 286.997 135.439 363.359 123.135C443.041 110.293 537.619 125.41 615.472 136.694C693.864 148.067 768.074 164.203 843.562 180.103C912.449 194.615 951.194 168.944 1009.72 154.204C1046.23 145.002 1077.03 146.959 1112.51 156.523C1157.95 168.896 1204.59 179.906 1252.2 189.504C1331.66 205.338 1432.08 224.214 1517.65 217.781C1628.51 209.488 1720.54 166.685 1831.65 158.066" stroke="url(#paint36_linear_85_168)" stroke-miterlimit="10"/>
<path d="M-104.233 151.656C-17.6143 153.207 60.1453 183.146 148.189 171.596C225.936 161.412 288.181 130.786 364.636 118.734C444.292 106.18 538.466 121.533 616.172 132.765C694.147 144.02 768.155 159.935 843.818 174.801C912.194 188.241 952.337 163.332 1011.21 149.485C1047.9 140.852 1078.92 142.92 1114.2 152.439C1159.37 164.73 1205.84 175.534 1253.35 184.792C1332.84 200.131 1433.25 217.981 1518.37 211.378C1628.51 202.834 1721.58 162.372 1831.73 153.081" stroke="url(#paint37_linear_85_168)" stroke-miterlimit="10"/>
<path d="M-104.207 146.354C-17.1445 147.912 60.6016 178.109 149.143 166.648C226.836 156.589 289.525 126.407 366.007 114.643C445.622 102.398 539.299 117.936 616.937 129.073C694.334 140.15 768.316 155.814 844.059 169.624C911.951 182.008 953.573 157.948 1012.85 145.039C1049.74 137.004 1081.01 139.227 1116.14 148.732C1161 160.905 1207.25 171.466 1254.61 180.347C1334.24 195.117 1434.34 211.777 1519.09 205.02C1628.47 196.306 1722.55 158.229 1831.7 148.37" stroke="url(#paint38_linear_85_168)" stroke-miterlimit="10"/>
<path d="M-104.18 141.155C-16.6329 142.75 61.1804 173.235 150.233 161.833C227.871 151.951 291.018 122.249 367.581 110.802C447.142 98.9127 540.308 114.561 617.772 125.572C694.631 136.502 768.532 151.811 844.302 164.558C911.723 175.894 954.905 152.742 1014.62 140.822C1051.74 133.437 1083.25 135.83 1118.28 145.253C1162.84 157.283 1208.9 167.561 1256.12 176.012C1336 190.213 1435.54 205.463 1519.98 198.588C1628.57 189.726 1723.61 154.123 1831.74 143.754" stroke="url(#paint39_linear_85_168)" stroke-miterlimit="10"/>
<path d="M-104.153 136.074C-16.0823 137.713 61.7177 168.494 151.429 157.247C229.014 147.513 292.657 118.313 369.301 107.221C448.795 95.7225 541.383 111.423 618.739 122.294C695.06 133.024 768.894 147.949 844.597 159.617C911.561 169.956 956.397 147.75 1016.58 136.857C1053.96 130.1 1085.71 132.751 1120.65 142.026C1164.91 153.873 1210.75 163.838 1257.78 171.832C1337.98 185.383 1436.71 199.06 1520.91 192.104C1628.69 183.242 1724.64 150.083 1831.74 139.286" stroke="url(#paint40_linear_85_168)" stroke-miterlimit="10"/>
<path d="M-104.126 131.118C-15.5035 132.817 62.3771 163.893 152.653 152.801C230.278 143.296 294.419 114.598 371.157 103.89C450.57 92.8126 542.513 108.506 619.869 119.214C695.626 129.715 769.406 144.212 845.028 154.795C911.535 164.107 958.118 142.934 1018.8 133.12C1056.45 127.034 1088.43 129.944 1123.34 139.175C1167.28 150.814 1212.89 160.431 1259.72 167.925C1340.22 180.782 1437.96 192.775 1521.97 185.738C1628.9 176.824 1725.71 146.25 1831.8 135.084" stroke="url(#paint41_linear_85_168)" stroke-miterlimit="10"/>
<path d="M-104.099 126.311C-14.9259 128.061 63.0488 159.433 154.118 148.525C231.622 139.235 296.301 111.098 373.119 100.796C452.438 90.1543 543.749 105.81 620.931 116.304C696.136 126.555 769.862 140.571 845.323 150.076C911.413 158.406 959.838 138.26 1020.99 129.575C1058.91 124.177 1091.15 127.36 1126.07 136.524C1169.67 147.931 1215.04 157.172 1261.64 164.137C1342.67 176.248 1439.19 186.366 1523.07 179.343C1629.17 170.481 1726.75 142.477 1831.82 130.993" stroke="url(#paint42_linear_85_168)" stroke-miterlimit="10"/>
<path d="M-104.072 121.584C-14.253 123.438 63.8696 155.112 155.584 144.411C233.075 135.38 298.318 107.804 375.19 97.9304C454.442 87.7613 545.067 103.329 622.141 113.646C696.782 123.637 770.455 137.122 845.714 145.549C911.414 152.934 961.748 133.873 1023.36 126.348C1061.56 121.658 1094.04 125.181 1129.02 134.22C1172.29 145.371 1217.4 154.212 1263.75 160.621C1345.28 171.935 1440.46 180.11 1524.23 173.08C1629.49 164.255 1727.77 138.924 1831.85 127.175" stroke="url(#paint43_linear_85_168)" stroke-miterlimit="10"/>
<path d="M-104.045 117.013C-13.5813 118.963 64.6757 150.94 157.156 140.475C234.58 131.709 300.347 104.717 377.354 95.2941C456.498 85.605 546.425 101.062 623.378 111.15C697.481 120.861 771.059 133.777 846.076 141.125C911.44 147.528 963.724 129.619 1025.81 123.217C1064.27 119.251 1096.98 123.121 1132.08 132.079C1175.01 142.952 1219.87 151.366 1265.94 157.187C1347.95 167.645 1441.68 173.789 1525.41 166.788C1629.86 158.066 1728.75 135.409 1831.88 123.423" stroke="url(#paint44_linear_85_168)" stroke-miterlimit="10"/>
<path d="M-104.019 112.582C-12.9233 114.635 65.5353 146.915 158.729 136.702C236.165 128.216 302.484 101.822 379.585 92.8644C458.622 83.6849 547.836 98.9865 624.735 108.838C698.313 118.269 771.784 130.565 846.559 136.842C911.641 142.299 965.914 125.558 1028.44 120.336C1067.19 117.094 1100.12 121.333 1135.36 130.158C1177.96 140.75 1222.55 148.73 1268.34 153.953C1350.89 163.502 1443.03 167.549 1526.73 160.599C1630.25 151.988 1729.73 132.064 1831.9 119.879" stroke="url(#paint45_linear_85_168)" stroke-miterlimit="10"/>
<path d="M-103.992 108.292C-12.237 110.455 66.4233 143.001 160.383 133.098C237.82 124.908 304.69 99.112 381.885 90.6415C460.814 82.0011 549.302 97.1107 626.107 106.711C699.188 115.846 772.524 127.485 846.977 132.699C911.83 137.241 968.079 121.688 1031.01 117.648C1070 115.145 1103.19 119.768 1138.56 128.482C1180.83 138.773 1225.15 146.296 1270.62 150.895C1353.7 159.484 1444.21 161.397 1527.91 154.499C1630.68 146.036 1730.55 128.866 1831.84 116.504" stroke="url(#paint46_linear_85_168)" stroke-miterlimit="10"/>
<path d="M-103.965 104.156C-11.5384 106.431 67.3504 139.309 162.063 129.664C239.486 121.769 306.948 96.5939 384.237 88.6477C463.032 80.5242 550.78 95.464 627.572 104.799C700.169 113.661 773.344 124.583 847.487 128.741C912.22 132.374 970.391 118.032 1033.81 115.182C1073.08 113.417 1106.4 118.446 1142.11 127.042C1184.05 137.026 1228.11 144.082 1273.24 148.045C1462.8 165.245 1648.56 136.229 1832.02 113.336" stroke="url(#paint47_linear_85_168)" stroke-miterlimit="10"/>
<path d="M-103.938 100.153C-10.8252 102.553 68.2922 135.719 163.784 126.377C241.208 118.8 309.247 94.2528 386.631 86.7718C465.291 79.1653 552.3 93.9205 628.93 102.982C701.111 111.541 774.071 121.754 847.878 124.834C912.597 127.559 972.597 114.495 1036.48 112.796C1075.98 111.763 1109.59 117.227 1145.5 125.698C1186.96 135.542 1230.99 141.819 1275.69 145.29C1460.42 159.639 1653.1 133.002 1831.99 110.263" stroke="url(#paint48_linear_85_168)" stroke-miterlimit="10"/>
<path d="M-103.911 96.3133C-10.1132 98.839 69.2462 132.293 165.518 123.261C242.955 115.972 311.559 92.0817 389.037 85.1029C467.562 78.0355 553.819 92.5913 630.368 101.35C702.159 109.584 774.863 119.074 848.334 121.149C913.174 122.98 974.868 111.15 1039.24 110.655C1078.96 110.352 1112.79 116.245 1148.98 124.612C1190.17 134.132 1233.91 139.87 1278.23 142.72C1362.67 148.148 1448.3 143.525 1532.04 136.886C1632.52 128.918 1733.15 120.174 1832.01 107.346" stroke="url(#paint49_linear_85_168)" stroke-miterlimit="10"/>
<path d="M-103.884 92.6281C-10.2066 95.235 69.0452 128.748 165.223 120.492C242.351 113.845 311.089 90.8852 387.962 83.9212C465.668 76.8833 550.189 90.8483 626.067 99.2819C699.417 107.405 773.721 116.482 848.805 117.619C915.46 118.631 980.408 107.45 1046.91 108.757C1087.06 109.547 1120.52 116.755 1157.32 124.76C1195.54 133.076 1235.9 137.839 1276.71 140.091C1363.59 144.884 1449.75 137.817 1535.59 131.148C1634.67 123.453 1734.64 117.53 1832.08 104.666" stroke="url(#paint50_linear_85_168)" stroke-miterlimit="10"/>
<path d="M-103.871 89.1054C-9.54812 91.8378 70.0264 125.631 166.917 117.693C244.058 111.371 313.348 89.0168 390.341 82.5623C467.886 76.0931 551.735 89.8586 627.505 98.019C700.505 105.891 774.528 114.266 849.222 114.266C916.267 114.266 982.653 104.569 1049.71 107.043C1089.91 108.52 1123.65 116.142 1160.73 123.977C1198.7 131.997 1238.79 136.258 1279.25 137.942C1366.41 141.568 1451.08 132.241 1536.91 125.757C1635.34 118.32 1735.3 115.152 1832.05 102.125" stroke="url(#paint51_linear_85_168)" stroke-miterlimit="10"/>
<path d="M-103.844 85.7528C-8.80924 88.6108 70.9266 122.678 168.637 115.049C245.805 109.023 315.633 87.2963 392.733 81.344C470.117 75.3548 553.308 89.0244 629.037 96.9189C701.634 104.503 775.374 112.125 849.679 111.046C917.207 110.064 984.897 101.823 1052.52 105.449C1092.77 107.612 1126.78 115.64 1164.1 123.305C1201.75 131.037 1241.65 134.796 1281.74 135.912C1369.12 138.356 1452.4 126.813 1538.19 120.506C1636.01 113.314 1735.82 112.915 1832.01 99.7252" stroke="url(#paint52_linear_85_168)" stroke-miterlimit="10"/>
<path d="M-103.817 82.5698C-8.12289 85.5238 71.949 119.879 170.345 112.568C247.527 106.829 317.892 85.6937 395.114 80.2731C472.336 74.8525 554.854 88.3375 630.382 95.9588C702.805 103.27 776.195 110.175 850.096 108.011C918.216 106.017 987.063 99.2525 1055.25 104.016C1095.58 106.829 1129.84 115.293 1167.51 122.781C1205.18 130.269 1244.57 133.489 1284.28 134.05C1371.67 135.298 1453.84 121.592 1539.54 115.462C1636.79 108.506 1736.52 110.869 1832.07 97.4875" stroke="url(#paint53_linear_85_168)" stroke-miterlimit="10"/>
<path d="M-103.803 79.5566C-7.45097 82.6583 72.9033 117.22 171.998 110.249C249.22 104.791 320.096 84.2978 397.426 79.3351C474.433 74.3946 556.44 87.7909 631.834 95.1537C704.041 102.199 777.028 108.38 850.566 105.153C919.359 102.132 989.227 96.8375 1058.02 102.716C1098.23 106.157 1132.89 115.064 1170.83 122.382C1208.07 129.56 1247.46 132.322 1286.74 132.344C1374.13 132.403 1455.25 116.6 1540.83 110.633C1637.63 103.883 1737.11 109.001 1832.07 95.4048" stroke="url(#paint54_linear_85_168)" stroke-miterlimit="10"/>
<path d="M-103.791 76.7283C-6.79271 79.9333 73.8036 114.783 173.611 108.077C250.873 102.908 322.26 82.9686 399.684 78.5376C476.61 74.1066 557.798 87.3995 633.205 94.5039C705.264 101.269 777.888 106.756 850.996 102.48C920.528 98.4179 991.297 94.5925 1060.72 101.564C1100.92 105.589 1135.87 114.945 1174.09 122.094C1211.16 129.021 1250.21 131.288 1289.13 130.786C1376.38 129.671 1456.66 111.844 1542.12 106.017C1638.37 99.4592 1737.6 107.332 1832.11 93.4626" stroke="url(#paint55_linear_85_168)" stroke-miterlimit="10"/>
<path d="M-103.763 74.0769C-6.16015 77.3928 74.7184 112.479 175.185 106.069C252.487 101.128 324.412 81.8311 401.876 77.8211C478.641 73.848 559.17 87.1188 634.536 93.9572C706.461 100.463 778.722 105.264 851.413 99.9612C921.725 94.836 993.368 92.4581 1063.28 100.5C1103.43 105.116 1138.68 114.916 1177.24 121.917C1214.08 128.563 1252.93 130.395 1291.51 129.383C1378.54 127.116 1458.12 107.354 1543.44 101.652C1639.23 95.2496 1738.16 105.854 1832.21 91.7122" stroke="url(#paint56_linear_85_168)" stroke-miterlimit="10"/>
<path d="M-103.75 71.6106C-5.60921 75.0298 75.5651 110.367 176.677 104.215C254.02 99.5036 326.348 80.7901 403.986 77.2232C480.617 73.7079 560.554 86.9566 635.8 93.5587C707.631 99.8729 779.529 103.949 851.79 97.6426C922.921 91.4392 995.209 90.4792 1065.72 99.5627C1105.8 104.732 1141.38 114.975 1180.2 121.814C1216.85 128.268 1255.48 129.605 1293.66 128.113C1380.38 124.723 1459.41 103.137 1544.57 97.5097C1640.02 91.2251 1738.55 104.548 1832.19 90.0656" stroke="url(#paint57_linear_85_168)" stroke-miterlimit="10"/>
<path d="M-103.737 69.3433C-4.9776 72.8437 76.4118 108.417 178.088 102.509C255.498 98.0191 328.27 79.8595 405.989 76.7282C482.499 73.6487 561.818 86.8973 636.996 93.2927C708.76 99.4001 780.308 102.797 852.166 95.5082C924.023 88.2192 997.024 88.6476 1068.09 98.7354C1108.07 104.414 1144.01 114.982 1183.03 121.791C1219.33 128.135 1258.02 128.933 1295.73 126.961C1382.1 122.53 1460.69 99.2007 1545.67 93.6472C1640.71 87.4364 1738.95 103.454 1832.19 88.5811" stroke="url(#paint58_linear_85_168)" stroke-miterlimit="10"/>
<path d="M-103.655 67.2312C-4.3583 70.8055 77.2059 106.615 179.487 100.936C256.87 96.6603 330.072 79.0471 407.886 76.3221C484.22 73.6487 563.029 86.9417 638.126 93.1524C709.849 99.0604 781.062 101.815 852.503 93.566C925.288 85.1693 998.719 86.9195 1070.29 97.997C1110.2 104.156 1146.44 115.123 1185.7 121.836C1221.85 128.017 1260.34 128.371 1297.66 126.001C1338.38 123.409 1378.08 117.471 1417.17 110.884C1459.36 103.787 1502.77 92.9604 1546.72 90.0951C1641.43 83.9138 1739.34 102.59 1832.2 87.274" stroke="url(#paint59_linear_85_168)" stroke-miterlimit="10"/>
<path d="M-103.655 65.385C-3.87433 69.0184 77.8378 105.057 180.711 99.57C258.161 95.4344 331.753 78.3087 409.66 75.9898C485.874 73.6931 564.117 87.0673 639.148 93.1229C710.871 98.898 781.801 101.003 852.825 91.8232C926.404 82.3113 1000.32 85.3318 1072.42 97.3693C1112.14 104.016 1148.7 115.315 1188.16 121.932C1224.16 127.965 1262.47 127.921 1299.43 125.144C1340.07 122.102 1379.54 115.647 1418.41 108.639C1460.29 101.091 1503.77 89.7037 1547.7 86.8162C1642.12 80.6202 1739.72 101.918 1832.21 86.0777" stroke="url(#paint60_linear_85_168)" stroke-miterlimit="10"/>
<path d="M-103.655 63.7085C-3.41724 67.401 78.51 103.654 181.826 98.3292C259.331 94.3266 333.272 77.7178 411.247 75.7312C487.353 73.789 565.072 87.3182 640.049 93.2188C711.785 98.8535 782.46 100.367 853.067 90.2648C927.493 79.6526 1001.74 83.8621 1074.35 96.8227C1113.93 103.883 1150.76 115.529 1190.42 122.072C1226.27 127.98 1264.36 127.566 1301.05 124.428C1341.59 120.957 1380.86 114.015 1419.53 106.623C1461.12 98.6689 1504.65 86.7791 1548.59 83.8473C1642.7 77.5701 1740.07 101.46 1832.25 85.051" stroke="url(#paint61_linear_85_168)" stroke-miterlimit="10"/>
<path d="M-103.655 62.239C-3.00047 65.9315 79.0611 102.435 182.821 97.2364C260.419 93.3445 334.737 77.1936 412.793 75.5319C488.818 73.9073 566.053 87.6359 640.949 93.4183C712.713 98.9497 783.186 99.9023 853.363 88.9357C928.555 77.1862 1002.99 82.5034 1076.12 96.3206C1115.56 103.787 1152.62 115.736 1192.45 122.22C1228.18 128.032 1266.13 127.293 1302.47 123.822C1342.96 119.953 1382.02 112.568 1420.51 104.821C1461.87 96.4831 1505.43 84.1871 1549.42 81.1888C1643.34 74.7787 1740.47 101.202 1832.25 84.1428" stroke="url(#paint62_linear_85_168)" stroke-miterlimit="10"/>
<path d="M-103.655 60.9834C-2.61059 64.6759 79.5317 101.409 183.695 96.2909C261.307 92.4803 335.961 76.7577 414.083 75.3545C490.028 74.0179 566.752 87.9902 641.649 93.6914C713.452 99.1563 783.791 99.5994 853.565 87.7834C929.536 74.9114 1004.02 81.233 1077.67 95.9069C1116.94 103.735 1154.22 115.957 1194.19 122.397C1229.82 128.142 1267.58 127.123 1303.67 123.357C1344.11 119.125 1382.99 111.341 1421.31 103.27C1462.49 94.5924 1506.01 81.9789 1550.12 78.8993C1643.84 72.2898 1740.85 101.202 1832.27 83.3894" stroke="url(#paint63_linear_85_168)" stroke-miterlimit="10"/>
<path d="M-103.655 59.9348C-3.10803 63.6273 78.7654 100.36 182.324 95.5968C264.157 91.8379 343.261 74.8598 425.833 75.2069C496.427 75.5023 567.263 88.2414 636.997 93.721C711.086 99.5404 782.003 99.3779 853.753 86.9195C933.314 73.1391 1007.86 80.3838 1084.54 96.771C1118.92 104.112 1151.67 114.126 1186.3 121.001C1222.95 128.275 1263.19 127.566 1300.9 123.527C1343.69 118.948 1384.65 110.234 1425.01 101.372C1465.69 92.4065 1508.94 79.7856 1552.81 76.8316C1645.57 70.6209 1742.05 101.283 1832.25 82.7913" stroke="url(#paint64_linear_85_168)" stroke-miterlimit="10"/>
<path d="M-103.655 59.1077C-2.8257 62.7485 79.0477 99.725 182.888 94.9543C264.748 91.188 344.215 74.6087 426.761 75.1626C497.301 75.6426 567.774 88.7361 637.467 94.2232C711.611 100.057 782.514 99.4813 853.914 86.2105C934.282 71.2633 1008.44 79.3572 1085.75 96.5494C1119.97 104.156 1152.81 114.259 1187.54 121.141C1224.11 128.423 1264.17 127.566 1301.66 123.298C1344.43 118.431 1385.23 109.34 1425.47 100.242C1466.1 91.055 1509.33 78.2938 1553.31 75.1921C1645.9 68.7081 1742.48 101.667 1832.27 82.2817" stroke="url(#paint65_linear_85_168)" stroke-miterlimit="10"/>
<path d="M-103.655 58.5171C-2.62404 62.0988 79.1822 99.2969 183.319 94.4523C265.192 90.6417 344.834 74.4169 427.487 75.148C498 75.7684 568.137 89.2829 637.804 94.8142C711.987 100.722 782.998 99.7843 853.941 85.7159C935.089 69.6315 1008.65 78.4048 1086.63 96.3207C1120.76 104.156 1153.69 114.362 1188.44 121.326C1224.98 128.645 1264.69 127.722 1302.16 123.254C1388.73 112.915 1466.28 80.5464 1553.68 74.0181C1646.11 67.1132 1742.95 102.295 1832.27 81.9348" stroke="url(#paint66_linear_85_168)" stroke-miterlimit="10"/>
<path d="M-103.655 58.1414C-2.46272 61.6492 79.3166 99.0688 183.574 94.1061C265.461 90.1995 345.372 74.2923 427.984 75.1415C498.511 75.88 568.339 89.8672 637.978 95.4945C712.189 101.491 783.441 100.28 853.982 85.451C935.842 68.2366 1008.59 77.5195 1087.3 96.1592C1121.15 104.157 1154.16 114.754 1188.99 121.445C1225.99 128.542 1264.5 127.966 1302.38 123.299C1389.09 112.605 1466.22 80.2076 1553.93 73.2067C1646.23 65.8217 1743.48 103.153 1832.21 81.7142" stroke="url(#paint67_linear_85_168)" stroke-miterlimit="10"/>
<path d="M-103.655 58C-2.35517 61.4045 79.2763 99.0456 183.641 93.8983C265.528 89.8587 345.546 74.2174 428.321 75.1331C498.861 75.9159 568.419 90.4938 638.045 96.2541C712.256 102.391 783.885 100.98 854.008 85.4056C936.5 67.0687 1008.22 76.684 1087.69 96.0326C1160.29 113.697 1220.1 133.807 1302.31 123.453C1389.25 112.501 1466.02 80.3764 1554.03 72.8142C1646.23 64.8902 1744 104.237 1832.32 81.6762" stroke="url(#paint68_linear_85_168)" stroke-miterlimit="10"/>
<path d="M128.926 134.027C297.213 -1.94905 683.6 -151.523 882.852 337.991C893.847 226.921 963.361 39.2476 1153.46 177.108C1191.6 132.905 1299.94 90.4069 1428.1 274.042" stroke="#B08BFF"/>
<circle cx="128.253" cy="148.836" r="26.2528" fill="url(#paint69_linear_85_168)"/>
<circle cx="884.872" cy="346.742" r="24.9065" fill="url(#paint70_linear_85_168)"/>
<circle cx="1154.13" cy="186.533" r="24.9065" fill="url(#paint71_linear_85_168)"/>
<circle cx="1426.08" cy="279.427" r="15.4824" fill="url(#paint72_linear_85_168)"/>
<defs>
<linearGradient id="paint0_linear_85_168" x1="1.39558e+06" y1="551.442" x2="1.39558e+06" y2="477.222" gradientUnits="userSpaceOnUse">
<stop stop-color="#275E59"/>
<stop offset="1" stop-color="#41DCA0"/>
</linearGradient>
<linearGradient id="paint1_linear_85_168" x1="1.39554e+06" y1="905.238" x2="1.39554e+06" y2="561.341" gradientUnits="userSpaceOnUse">
<stop stop-color="#275E59"/>
<stop offset="1" stop-color="#41DCA0"/>
</linearGradient>
<linearGradient id="paint2_linear_85_168" x1="1.39558e+06" y1="1290.23" x2="1.39558e+06" y2="655.141" gradientUnits="userSpaceOnUse">
<stop stop-color="#275E59"/>
<stop offset="1" stop-color="#41DCA0"/>
</linearGradient>
<linearGradient id="paint3_linear_85_168" x1="1.39558e+06" y1="1864.79" x2="1.39558e+06" y2="800.31" gradientUnits="userSpaceOnUse">
<stop stop-color="#275E59"/>
<stop offset="1" stop-color="#41DCA0"/>
</linearGradient>
<linearGradient id="paint4_linear_85_168" x1="1.39558e+06" y1="2818.92" x2="1.39558e+06" y2="1046.38" gradientUnits="userSpaceOnUse">
<stop stop-color="#275E59"/>
<stop offset="1" stop-color="#41DCA0"/>
</linearGradient>
<linearGradient id="paint5_linear_85_168" x1="1.39558e+06" y1="3868.31" x2="1.39558e+06" y2="1318.39" gradientUnits="userSpaceOnUse">
<stop stop-color="#275E59"/>
<stop offset="1" stop-color="#41DCA0"/>
</linearGradient>
<linearGradient id="paint6_linear_85_168" x1="1.39558e+06" y1="5145.5" x2="1.39558e+06" y2="1650.94" gradientUnits="userSpaceOnUse">
<stop stop-color="#275E59"/>
<stop offset="1" stop-color="#41DCA0"/>
</linearGradient>
<linearGradient id="paint7_linear_85_168" x1="1.39556e+06" y1="6488.42" x2="1.39556e+06" y2="2001.21" gradientUnits="userSpaceOnUse">
<stop stop-color="#275E59"/>
<stop offset="1" stop-color="#41DCA0"/>
</linearGradient>
<linearGradient id="paint8_linear_85_168" x1="1.39559e+06" y1="7835.36" x2="1.39559e+06" y2="2352.74" gradientUnits="userSpaceOnUse">
<stop stop-color="#275E59"/>
<stop offset="1" stop-color="#41DCA0"/>
</linearGradient>
<linearGradient id="paint9_linear_85_168" x1="1.39555e+06" y1="9115.71" x2="1.39555e+06" y2="2686.68" gradientUnits="userSpaceOnUse">
<stop stop-color="#275E59"/>
<stop offset="1" stop-color="#41DCA0"/>
</linearGradient>
<linearGradient id="paint10_linear_85_168" x1="1.39558e+06" y1="10385.8" x2="1.39558e+06" y2="3017.61" gradientUnits="userSpaceOnUse">
<stop stop-color="#275E59"/>
<stop offset="1" stop-color="#41DCA0"/>
</linearGradient>
<linearGradient id="paint11_linear_85_168" x1="1.39558e+06" y1="11361.2" x2="1.39558e+06" y2="3270.59" gradientUnits="userSpaceOnUse">
<stop stop-color="#275E59"/>
<stop offset="1" stop-color="#41DCA0"/>
</linearGradient>
<linearGradient id="paint12_linear_85_168" x1="1.39558e+06" y1="12083.6" x2="1.39558e+06" y2="3456.34" gradientUnits="userSpaceOnUse">
<stop stop-color="#275E59"/>
<stop offset="1" stop-color="#41DCA0"/>
</linearGradient>
<linearGradient id="paint13_linear_85_168" x1="1.39562e+06" y1="12469" x2="1.39562e+06" y2="3552.4" gradientUnits="userSpaceOnUse">
<stop stop-color="#275E59"/>
<stop offset="1" stop-color="#41DCA0"/>
</linearGradient>
<linearGradient id="paint14_linear_85_168" x1="1.39558e+06" y1="12639.6" x2="1.39558e+06" y2="3590.96" gradientUnits="userSpaceOnUse">
<stop stop-color="#275E59"/>
<stop offset="1" stop-color="#41DCA0"/>
</linearGradient>
<linearGradient id="paint15_linear_85_168" x1="1.39555e+06" y1="12812.6" x2="1.39555e+06" y2="3630.13" gradientUnits="userSpaceOnUse">
<stop stop-color="#275E59"/>
<stop offset="1" stop-color="#41DCA0"/>
</linearGradient>
<linearGradient id="paint16_linear_85_168" x1="1.39556e+06" y1="12910.2" x2="1.39556e+06" y2="3649.71" gradientUnits="userSpaceOnUse">
<stop stop-color="#275E59"/>
<stop offset="1" stop-color="#41DCA0"/>
</linearGradient>
<linearGradient id="paint17_linear_85_168" x1="1.39561e+06" y1="12937.7" x2="1.39561e+06" y2="3651.05" gradientUnits="userSpaceOnUse">
<stop stop-color="#275E59"/>
<stop offset="1" stop-color="#41DCA0"/>
</linearGradient>
<linearGradient id="paint18_linear_85_168" x1="1.39558e+06" y1="12903.9" x2="1.39558e+06" y2="3636.47" gradientUnits="userSpaceOnUse">
<stop stop-color="#275E59"/>
<stop offset="1" stop-color="#41DCA0"/>
</linearGradient>
<linearGradient id="paint19_linear_85_168" x1="1.39558e+06" y1="12814.5" x2="1.39558e+06" y2="3607.46" gradientUnits="userSpaceOnUse">
<stop stop-color="#275E59"/>
<stop offset="1" stop-color="#41DCA0"/>
</linearGradient>
<linearGradient id="paint20_linear_85_168" x1="1.39559e+06" y1="12610.4" x2="1.39559e+06" y2="3548.51" gradientUnits="userSpaceOnUse">
<stop stop-color="#275E59"/>
<stop offset="1" stop-color="#41DCA0"/>
</linearGradient>
<linearGradient id="paint21_linear_85_168" x1="1.3956e+06" y1="12473.6" x2="1.3956e+06" y2="3507.38" gradientUnits="userSpaceOnUse">
<stop stop-color="#275E59"/>
<stop offset="1" stop-color="#41DCA0"/>
</linearGradient>
<linearGradient id="paint22_linear_85_168" x1="1.39554e+06" y1="12308.4" x2="1.39554e+06" y2="3458.92" gradientUnits="userSpaceOnUse">
<stop stop-color="#275E59"/>
<stop offset="1" stop-color="#41DCA0"/>
</linearGradient>
<linearGradient id="paint23_linear_85_168" x1="1.39558e+06" y1="12133.1" x2="1.39558e+06" y2="3407.97" gradientUnits="userSpaceOnUse">
<stop stop-color="#275E59"/>
<stop offset="1" stop-color="#41DCA0"/>
</linearGradient>
<linearGradient id="paint24_linear_85_168" x1="1.39562e+06" y1="11947.8" x2="1.39562e+06" y2="3354.48" gradientUnits="userSpaceOnUse">
<stop stop-color="#275E59"/>
<stop offset="1" stop-color="#41DCA0"/>
</linearGradient>
<linearGradient id="paint25_linear_85_168" x1="1.39556e+06" y1="11760" x2="1.39556e+06" y2="3300.45" gradientUnits="userSpaceOnUse">
<stop stop-color="#275E59"/>
<stop offset="1" stop-color="#41DCA0"/>
</linearGradient>
<linearGradient id="paint26_linear_85_168" x1="1.39558e+06" y1="11515.5" x2="1.39558e+06" y2="3231.6" gradientUnits="userSpaceOnUse">
<stop stop-color="#275E59"/>
<stop offset="1" stop-color="#41DCA0"/>
</linearGradient>
<linearGradient id="paint27_linear_85_168" x1="1.39554e+06" y1="11340.5" x2="1.39554e+06" y2="3181.12" gradientUnits="userSpaceOnUse">
<stop stop-color="#275E59"/>
<stop offset="1" stop-color="#41DCA0"/>
</linearGradient>
<linearGradient id="paint28_linear_85_168" x1="1.39555e+06" y1="11184.6" x2="1.39555e+06" y2="3135.68" gradientUnits="userSpaceOnUse">
<stop stop-color="#275E59"/>
<stop offset="1" stop-color="#41DCA0"/>
</linearGradient>
<linearGradient id="paint29_linear_85_168" x1="1.39554e+06" y1="11062" x2="1.39554e+06" y2="3099.12" gradientUnits="userSpaceOnUse">
<stop stop-color="#275E59"/>
<stop offset="1" stop-color="#41DCA0"/>
</linearGradient>
<linearGradient id="paint30_linear_85_168" x1="1.39562e+06" y1="10956.3" x2="1.39562e+06" y2="3066.92" gradientUnits="userSpaceOnUse">
<stop stop-color="#275E59"/>
<stop offset="1" stop-color="#41DCA0"/>
</linearGradient>
<linearGradient id="paint31_linear_85_168" x1="1.39558e+06" y1="10903.9" x2="1.39558e+06" y2="3048.79" gradientUnits="userSpaceOnUse">
<stop stop-color="#275E59"/>
<stop offset="1" stop-color="#41DCA0"/>
</linearGradient>
<linearGradient id="paint32_linear_85_168" x1="1.39558e+06" y1="10878.7" x2="1.39558e+06" y2="3037.83" gradientUnits="userSpaceOnUse">
<stop stop-color="#275E59"/>
<stop offset="1" stop-color="#41DCA0"/>
</linearGradient>
<linearGradient id="paint33_linear_85_168" x1="1.39561e+06" y1="10809.4" x2="1.39561e+06" y2="3015.2" gradientUnits="userSpaceOnUse">
<stop stop-color="#275E59"/>
<stop offset="1" stop-color="#41DCA0"/>
</linearGradient>
<linearGradient id="paint34_linear_85_168" x1="1.39558e+06" y1="10705.4" x2="1.39558e+06" y2="2983.38" gradientUnits="userSpaceOnUse">
<stop stop-color="#275E59"/>
<stop offset="1" stop-color="#41DCA0"/>
</linearGradient>
<linearGradient id="paint35_linear_85_168" x1="1.39561e+06" y1="10553.6" x2="1.39561e+06" y2="2938.92" gradientUnits="userSpaceOnUse">
<stop stop-color="#275E59"/>
<stop offset="1" stop-color="#41DCA0"/>
</linearGradient>
<linearGradient id="paint36_linear_85_168" x1="1.39558e+06" y1="10371.7" x2="1.39558e+06" y2="2886.58" gradientUnits="userSpaceOnUse">
<stop stop-color="#275E59"/>
<stop offset="1" stop-color="#41DCA0"/>
</linearGradient>
<linearGradient id="paint37_linear_85_168" x1="1.39561e+06" y1="10154.3" x2="1.39561e+06" y2="2824.83" gradientUnits="userSpaceOnUse">
<stop stop-color="#275E59"/>
<stop offset="1" stop-color="#41DCA0"/>
</linearGradient>
<linearGradient id="paint38_linear_85_168" x1="1.39557e+06" y1="9911.98" x2="1.39557e+06" y2="2756.56" gradientUnits="userSpaceOnUse">
<stop stop-color="#275E59"/>
<stop offset="1" stop-color="#41DCA0"/>
</linearGradient>
<linearGradient id="paint39_linear_85_168" x1="1.39558e+06" y1="9637.54" x2="1.39558e+06" y2="2679.83" gradientUnits="userSpaceOnUse">
<stop stop-color="#275E59"/>
<stop offset="1" stop-color="#41DCA0"/>
</linearGradient>
<linearGradient id="paint40_linear_85_168" x1="1.39556e+06" y1="9332.95" x2="1.39556e+06" y2="2595.15" gradientUnits="userSpaceOnUse">
<stop stop-color="#275E59"/>
<stop offset="1" stop-color="#41DCA0"/>
</linearGradient>
<linearGradient id="paint41_linear_85_168" x1="1.39558e+06" y1="9018.79" x2="1.39558e+06" y2="2508.07" gradientUnits="userSpaceOnUse">
<stop stop-color="#275E59"/>
<stop offset="1" stop-color="#41DCA0"/>
</linearGradient>
<linearGradient id="paint42_linear_85_168" x1="1.39558e+06" y1="8679.26" x2="1.39558e+06" y2="2414.31" gradientUnits="userSpaceOnUse">
<stop stop-color="#275E59"/>
<stop offset="1" stop-color="#41DCA0"/>
</linearGradient>
<linearGradient id="paint43_linear_85_168" x1="1.39558e+06" y1="8337.12" x2="1.39558e+06" y2="2320.02" gradientUnits="userSpaceOnUse">
<stop stop-color="#275E59"/>
<stop offset="1" stop-color="#41DCA0"/>
</linearGradient>
<linearGradient id="paint44_linear_85_168" x1="1.39558e+06" y1="7977.09" x2="1.39558e+06" y2="2221.07" gradientUnits="userSpaceOnUse">
<stop stop-color="#275E59"/>
<stop offset="1" stop-color="#41DCA0"/>
</linearGradient>
<linearGradient id="paint45_linear_85_168" x1="1.39558e+06" y1="7618.7" x2="1.39558e+06" y2="2122.71" gradientUnits="userSpaceOnUse">
<stop stop-color="#275E59"/>
<stop offset="1" stop-color="#41DCA0"/>
</linearGradient>
<linearGradient id="paint46_linear_85_168" x1="1.39551e+06" y1="7267.84" x2="1.39551e+06" y2="2026.54" gradientUnits="userSpaceOnUse">
<stop stop-color="#275E59"/>
<stop offset="1" stop-color="#41DCA0"/>
</linearGradient>
<linearGradient id="paint47_linear_85_168" x1="1.39563e+06" y1="6892.06" x2="1.39563e+06" y2="1923.8" gradientUnits="userSpaceOnUse">
<stop stop-color="#275E59"/>
<stop offset="1" stop-color="#41DCA0"/>
</linearGradient>
<linearGradient id="paint48_linear_85_168" x1="1.39558e+06" y1="6660.38" x2="1.39558e+06" y2="1860.05" gradientUnits="userSpaceOnUse">
<stop stop-color="#275E59"/>
<stop offset="1" stop-color="#41DCA0"/>
</linearGradient>
<linearGradient id="paint49_linear_85_168" x1="1.39558e+06" y1="6374.89" x2="1.39558e+06" y2="1781.92" gradientUnits="userSpaceOnUse">
<stop stop-color="#275E59"/>
<stop offset="1" stop-color="#41DCA0"/>
</linearGradient>
<linearGradient id="paint50_linear_85_168" x1="1.39561e+06" y1="6147.94" x2="1.39561e+06" y2="1719.75" gradientUnits="userSpaceOnUse">
<stop stop-color="#275E59"/>
<stop offset="1" stop-color="#41DCA0"/>
</linearGradient>
<linearGradient id="paint51_linear_85_168" x1="1.39558e+06" y1="5964.37" x2="1.39558e+06" y2="1669.37" gradientUnits="userSpaceOnUse">
<stop stop-color="#275E59"/>
<stop offset="1" stop-color="#41DCA0"/>
</linearGradient>
<linearGradient id="paint52_linear_85_168" x1="1.39553e+06" y1="5811.73" x2="1.39553e+06" y2="1627.42" gradientUnits="userSpaceOnUse">
<stop stop-color="#275E59"/>
<stop offset="1" stop-color="#41DCA0"/>
</linearGradient>
<linearGradient id="paint53_linear_85_168" x1="1.39555e+06" y1="5681.91" x2="1.39555e+06" y2="1591.75" gradientUnits="userSpaceOnUse">
<stop stop-color="#275E59"/>
<stop offset="1" stop-color="#41DCA0"/>
</linearGradient>
<linearGradient id="paint54_linear_85_168" x1="1.39554e+06" y1="5576.3" x2="1.39554e+06" y2="1562.69" gradientUnits="userSpaceOnUse">
<stop stop-color="#275E59"/>
<stop offset="1" stop-color="#41DCA0"/>
</linearGradient>
<linearGradient id="paint55_linear_85_168" x1="1.39556e+06" y1="5579.61" x2="1.39556e+06" y2="1562.46" gradientUnits="userSpaceOnUse">
<stop stop-color="#275E59"/>
<stop offset="1" stop-color="#41DCA0"/>
</linearGradient>
<linearGradient id="paint56_linear_85_168" x1="1.39562e+06" y1="5723.45" x2="1.39562e+06" y2="1599.36" gradientUnits="userSpaceOnUse">
<stop stop-color="#275E59"/>
<stop offset="1" stop-color="#41DCA0"/>
</linearGradient>
<linearGradient id="paint57_linear_85_168" x1="1.39559e+06" y1="5872.5" x2="1.39559e+06" y2="1637.8" gradientUnits="userSpaceOnUse">
<stop stop-color="#275E59"/>
<stop offset="1" stop-color="#41DCA0"/>
</linearGradient>
<linearGradient id="paint58_linear_85_168" x1="1.39558e+06" y1="6024.17" x2="1.39558e+06" y2="1677.09" gradientUnits="userSpaceOnUse">
<stop stop-color="#275E59"/>
<stop offset="1" stop-color="#41DCA0"/>
</linearGradient>
<linearGradient id="paint59_linear_85_168" x1="1.39553e+06" y1="6180.2" x2="1.39553e+06" y2="1717.68" gradientUnits="userSpaceOnUse">
<stop stop-color="#275E59"/>
<stop offset="1" stop-color="#41DCA0"/>
</linearGradient>
<linearGradient id="paint60_linear_85_168" x1="1.39554e+06" y1="6324.81" x2="1.39554e+06" y2="1755.37" gradientUnits="userSpaceOnUse">
<stop stop-color="#275E59"/>
<stop offset="1" stop-color="#41DCA0"/>
</linearGradient>
<linearGradient id="paint61_linear_85_168" x1="1.39557e+06" y1="6466.22" x2="1.39557e+06" y2="1792.33" gradientUnits="userSpaceOnUse">
<stop stop-color="#275E59"/>
<stop offset="1" stop-color="#41DCA0"/>
</linearGradient>
<linearGradient id="paint62_linear_85_168" x1="1.39557e+06" y1="6596.63" x2="1.39557e+06" y2="1826.47" gradientUnits="userSpaceOnUse">
<stop stop-color="#275E59"/>
<stop offset="1" stop-color="#41DCA0"/>
</linearGradient>
<linearGradient id="paint63_linear_85_168" x1="1.39558e+06" y1="6716.34" x2="1.39558e+06" y2="1857.87" gradientUnits="userSpaceOnUse">
<stop stop-color="#275E59"/>
<stop offset="1" stop-color="#41DCA0"/>
</linearGradient>
<linearGradient id="paint64_linear_85_168" x1="1.39557e+06" y1="6831.1" x2="1.39557e+06" y2="1888.09" gradientUnits="userSpaceOnUse">
<stop stop-color="#275E59"/>
<stop offset="1" stop-color="#41DCA0"/>
</linearGradient>
<linearGradient id="paint65_linear_85_168" x1="1.39558e+06" y1="6917.46" x2="1.39558e+06" y2="1910.8" gradientUnits="userSpaceOnUse">
<stop stop-color="#275E59"/>
<stop offset="1" stop-color="#41DCA0"/>
</linearGradient>
<linearGradient id="paint66_linear_85_168" x1="1.39558e+06" y1="6992.5" x2="1.39558e+06" y2="1930.63" gradientUnits="userSpaceOnUse">
<stop stop-color="#275E59"/>
<stop offset="1" stop-color="#41DCA0"/>
</linearGradient>
<linearGradient id="paint67_linear_85_168" x1="1.39554e+06" y1="7038.34" x2="1.39554e+06" y2="1942.73" gradientUnits="userSpaceOnUse">
<stop stop-color="#275E59"/>
<stop offset="1" stop-color="#41DCA0"/>
</linearGradient>
<linearGradient id="paint68_linear_85_168" x1="1.39562e+06" y1="7000.15" x2="1.39562e+06" y2="1932.32" gradientUnits="userSpaceOnUse">
<stop stop-color="#275E59"/>
<stop offset="1" stop-color="#41DCA0"/>
</linearGradient>
<linearGradient id="paint69_linear_85_168" x1="128.253" y1="122.583" x2="128.253" y2="175.089" gradientUnits="userSpaceOnUse">
<stop stop-color="#22263A"/>
<stop offset="1" stop-color="#49579F"/>
</linearGradient>
<linearGradient id="paint70_linear_85_168" x1="884.872" y1="321.835" x2="884.872" y2="371.648" gradientUnits="userSpaceOnUse">
<stop stop-color="#22263A"/>
<stop offset="1" stop-color="#49579F"/>
</linearGradient>
<linearGradient id="paint71_linear_85_168" x1="1154.13" y1="161.626" x2="1154.13" y2="211.439" gradientUnits="userSpaceOnUse">
<stop stop-color="#22263A"/>
<stop offset="1" stop-color="#49579F"/>
</linearGradient>
<linearGradient id="paint72_linear_85_168" x1="1426.08" y1="263.945" x2="1426.08" y2="294.909" gradientUnits="userSpaceOnUse">
<stop stop-color="#22263A"/>
<stop offset="1" stop-color="#49579F"/>
</linearGradient>
</defs>
</svg>
