<svg width="112" height="233" viewBox="0 0 112 233" fill="none" xmlns="http://www.w3.org/2000/svg">
<g opacity="0.3">
<mask id="mask0_1_2944" style="mask-type:alpha" maskUnits="userSpaceOnUse" x="29" y="0" width="22" height="22">
<path d="M40.2141 21.0748C46.0516 21.0748 50.7837 16.357 50.7837 10.5373C50.7837 4.71772 46.0516 0 40.2141 0C34.3767 0 29.6445 4.71772 29.6445 10.5373C29.6445 16.357 34.3767 21.0748 40.2141 21.0748Z" fill="url(#paint0_linear_1_2944)"/>
</mask>
<g mask="url(#mask0_1_2944)">
<path d="M40.2141 21.0748C46.0516 21.0748 50.7837 16.357 50.7837 10.5373C50.7837 4.71772 46.0516 0 40.2141 0C34.3767 0 29.6445 4.71772 29.6445 10.5373C29.6445 16.357 34.3767 21.0748 40.2141 21.0748Z" fill="url(#paint1_linear_1_2944)"/>
</g>
<mask id="mask1_1_2944" style="mask-type:alpha" maskUnits="userSpaceOnUse" x="90" y="0" width="23" height="22">
<path d="M101.431 21.0748C107.269 21.0748 112.001 16.357 112.001 10.5373C112.001 4.71772 107.269 0 101.431 0C95.5937 0 90.8616 4.71772 90.8616 10.5373C90.8616 16.357 95.5937 21.0748 101.431 21.0748Z" fill="url(#paint2_linear_1_2944)"/>
</mask>
<g mask="url(#mask1_1_2944)">
<path d="M101.431 21.0748C107.269 21.0748 112.001 16.357 112.001 10.5373C112.001 4.71772 107.269 0 101.431 0C95.594 0 90.8618 4.71772 90.8618 10.5373C90.8618 16.357 95.594 21.0748 101.431 21.0748Z" fill="url(#paint3_linear_1_2944)"/>
</g>
<mask id="mask2_1_2944" style="mask-type:alpha" maskUnits="userSpaceOnUse" x="29" y="52" width="22" height="22">
<path d="M40.2141 73.9811C46.0516 73.9811 50.7837 69.2634 50.7837 63.4438C50.7837 57.6242 46.0516 52.9065 40.2141 52.9065C34.3767 52.9065 29.6445 57.6242 29.6445 63.4438C29.6445 69.2634 34.3767 73.9811 40.2141 73.9811Z" fill="url(#paint4_linear_1_2944)"/>
</mask>
<g mask="url(#mask2_1_2944)">
<path d="M40.2141 73.9811C46.0516 73.9811 50.7837 69.2634 50.7837 63.4438C50.7837 57.6242 46.0516 52.9065 40.2141 52.9065C34.3767 52.9065 29.6445 57.6242 29.6445 63.4438C29.6445 69.2634 34.3767 73.9811 40.2141 73.9811Z" fill="url(#paint5_linear_1_2944)"/>
</g>
<mask id="mask3_1_2944" style="mask-type:alpha" maskUnits="userSpaceOnUse" x="90" y="52" width="23" height="22">
<path d="M101.431 73.9811C107.269 73.9811 112.001 69.2634 112.001 63.4438C112.001 57.6242 107.269 52.9065 101.431 52.9065C95.5937 52.9065 90.8616 57.6242 90.8616 63.4438C90.8616 69.2634 95.5937 73.9811 101.431 73.9811Z" fill="url(#paint6_linear_1_2944)"/>
</mask>
<g mask="url(#mask3_1_2944)">
<path d="M101.431 73.9811C107.269 73.9811 112.001 69.2634 112.001 63.4438C112.001 57.6242 107.269 52.9065 101.431 52.9065C95.594 52.9065 90.8618 57.6242 90.8618 63.4438C90.8618 69.2634 95.594 73.9811 101.431 73.9811Z" fill="url(#paint7_linear_1_2944)"/>
</g>
<mask id="mask4_1_2944" style="mask-type:alpha" maskUnits="userSpaceOnUse" x="29" y="105" width="22" height="22">
<path d="M40.2141 126.778C46.0516 126.778 50.7837 122.06 50.7837 116.241C50.7837 110.421 46.0516 105.703 40.2141 105.703C34.3767 105.703 29.6445 110.421 29.6445 116.241C29.6445 122.06 34.3767 126.778 40.2141 126.778Z" fill="url(#paint8_linear_1_2944)"/>
</mask>
<g mask="url(#mask4_1_2944)">
<path d="M40.2141 126.778C46.0516 126.778 50.7837 122.06 50.7837 116.241C50.7837 110.421 46.0516 105.703 40.2141 105.703C34.3767 105.703 29.6445 110.421 29.6445 116.241C29.6445 122.06 34.3767 126.778 40.2141 126.778Z" fill="url(#paint9_linear_1_2944)"/>
</g>
<mask id="mask5_1_2944" style="mask-type:alpha" maskUnits="userSpaceOnUse" x="90" y="105" width="23" height="22">
<path d="M101.431 126.778C107.269 126.778 112.001 122.06 112.001 116.241C112.001 110.421 107.269 105.703 101.431 105.703C95.5937 105.703 90.8616 110.421 90.8616 116.241C90.8616 122.06 95.5937 126.778 101.431 126.778Z" fill="url(#paint10_linear_1_2944)"/>
</mask>
<g mask="url(#mask5_1_2944)">
<path d="M101.431 126.778C107.269 126.778 112.001 122.06 112.001 116.241C112.001 110.421 107.269 105.703 101.431 105.703C95.594 105.703 90.8618 110.421 90.8618 116.241C90.8618 122.06 95.594 126.778 101.431 126.778Z" fill="url(#paint11_linear_1_2944)"/>
</g>
<mask id="mask6_1_2944" style="mask-type:alpha" maskUnits="userSpaceOnUse" x="29" y="158" width="22" height="22">
<path d="M40.2141 179.684C46.0516 179.684 50.7837 174.967 50.7837 169.147C50.7837 163.327 46.0516 158.61 40.2141 158.61C34.3767 158.61 29.6445 163.327 29.6445 169.147C29.6445 174.967 34.3767 179.684 40.2141 179.684Z" fill="url(#paint12_linear_1_2944)"/>
</mask>
<g mask="url(#mask6_1_2944)">
<path d="M40.2141 179.684C46.0516 179.684 50.7837 174.967 50.7837 169.147C50.7837 163.327 46.0516 158.61 40.2141 158.61C34.3767 158.61 29.6445 163.327 29.6445 169.147C29.6445 174.967 34.3767 179.684 40.2141 179.684Z" fill="url(#paint13_linear_1_2944)"/>
</g>
<mask id="mask7_1_2944" style="mask-type:alpha" maskUnits="userSpaceOnUse" x="90" y="158" width="23" height="22">
<path d="M101.431 179.684C107.269 179.684 112.001 174.967 112.001 169.147C112.001 163.327 107.269 158.61 101.431 158.61C95.5937 158.61 90.8616 163.327 90.8616 169.147C90.8616 174.967 95.5937 179.684 101.431 179.684Z" fill="url(#paint14_linear_1_2944)"/>
</mask>
<g mask="url(#mask7_1_2944)">
<path d="M101.431 179.684C107.269 179.684 112.001 174.967 112.001 169.147C112.001 163.327 107.269 158.61 101.431 158.61C95.594 158.61 90.8618 163.327 90.8618 169.147C90.8618 174.967 95.594 179.684 101.431 179.684Z" fill="url(#paint15_linear_1_2944)"/>
</g>
<mask id="mask8_1_2944" style="mask-type:alpha" maskUnits="userSpaceOnUse" x="29" y="211" width="22" height="22">
<path d="M40.2141 232.481C46.0516 232.481 50.7837 227.763 50.7837 221.944C50.7837 216.124 46.0516 211.406 40.2141 211.406C34.3767 211.406 29.6445 216.124 29.6445 221.944C29.6445 227.763 34.3767 232.481 40.2141 232.481Z" fill="url(#paint16_linear_1_2944)"/>
</mask>
<g mask="url(#mask8_1_2944)">
<path d="M40.2141 232.481C46.0516 232.481 50.7837 227.763 50.7837 221.944C50.7837 216.124 46.0516 211.406 40.2141 211.406C34.3767 211.406 29.6445 216.124 29.6445 221.944C29.6445 227.763 34.3767 232.481 40.2141 232.481Z" fill="url(#paint17_linear_1_2944)"/>
</g>
<mask id="mask9_1_2944" style="mask-type:alpha" maskUnits="userSpaceOnUse" x="90" y="211" width="23" height="22">
<path d="M101.431 232.481C107.269 232.481 112.001 227.763 112.001 221.944C112.001 216.124 107.269 211.406 101.431 211.406C95.5937 211.406 90.8616 216.124 90.8616 221.944C90.8616 227.763 95.5937 232.481 101.431 232.481Z" fill="url(#paint18_linear_1_2944)"/>
</mask>
<g mask="url(#mask9_1_2944)">
<path d="M101.431 232.481C107.269 232.481 112.001 227.763 112.001 221.944C112.001 216.124 107.269 211.406 101.431 211.406C95.594 211.406 90.8618 216.124 90.8618 221.944C90.8618 227.763 95.594 232.481 101.431 232.481Z" fill="url(#paint19_linear_1_2944)"/>
</g>
</g>
<defs>
<linearGradient id="paint0_linear_1_2944" x1="116.099" y1="202.682" x2="-28.2446" y2="-164.848" gradientUnits="userSpaceOnUse">
<stop/>
<stop offset="1" stop-color="white"/>
</linearGradient>
<linearGradient id="paint1_linear_1_2944" x1="116.099" y1="202.682" x2="-28.2446" y2="-164.848" gradientUnits="userSpaceOnUse">
<stop stop-color="#97C3F9"/>
<stop offset="1" stop-color="#93C1F9"/>
</linearGradient>
<linearGradient id="paint2_linear_1_2944" x1="169.075" y1="181.877" x2="24.731" y2="-185.653" gradientUnits="userSpaceOnUse">
<stop/>
<stop offset="1" stop-color="white"/>
</linearGradient>
<linearGradient id="paint3_linear_1_2944" x1="169.075" y1="181.877" x2="24.7312" y2="-185.653" gradientUnits="userSpaceOnUse">
<stop stop-color="#97C3F9"/>
<stop offset="1" stop-color="#93C1F9"/>
</linearGradient>
<linearGradient id="paint4_linear_1_2944" x1="98.0214" y1="209.78" x2="-46.3199" y2="-157.747" gradientUnits="userSpaceOnUse">
<stop/>
<stop offset="1" stop-color="white"/>
</linearGradient>
<linearGradient id="paint5_linear_1_2944" x1="98.0214" y1="209.78" x2="-46.3199" y2="-157.747" gradientUnits="userSpaceOnUse">
<stop stop-color="#97C3F9"/>
<stop offset="1" stop-color="#93C1F9"/>
</linearGradient>
<linearGradient id="paint6_linear_1_2944" x1="150.997" y1="188.975" x2="6.65584" y2="-178.552" gradientUnits="userSpaceOnUse">
<stop/>
<stop offset="1" stop-color="white"/>
</linearGradient>
<linearGradient id="paint7_linear_1_2944" x1="150.997" y1="188.975" x2="6.65608" y2="-178.552" gradientUnits="userSpaceOnUse">
<stop stop-color="#97C3F9"/>
<stop offset="1" stop-color="#93C1F9"/>
</linearGradient>
<linearGradient id="paint8_linear_1_2944" x1="79.9436" y1="216.881" x2="-64.4001" y2="-150.649" gradientUnits="userSpaceOnUse">
<stop/>
<stop offset="1" stop-color="white"/>
</linearGradient>
<linearGradient id="paint9_linear_1_2944" x1="79.9436" y1="216.881" x2="-64.4001" y2="-150.649" gradientUnits="userSpaceOnUse">
<stop stop-color="#97C3F9"/>
<stop offset="1" stop-color="#93C1F9"/>
</linearGradient>
<linearGradient id="paint10_linear_1_2944" x1="132.919" y1="196.076" x2="-11.4245" y2="-171.454" gradientUnits="userSpaceOnUse">
<stop/>
<stop offset="1" stop-color="white"/>
</linearGradient>
<linearGradient id="paint11_linear_1_2944" x1="132.92" y1="196.076" x2="-11.4242" y2="-171.454" gradientUnits="userSpaceOnUse">
<stop stop-color="#97C3F9"/>
<stop offset="1" stop-color="#93C1F9"/>
</linearGradient>
<linearGradient id="paint12_linear_1_2944" x1="61.866" y1="223.981" x2="-82.4777" y2="-143.549" gradientUnits="userSpaceOnUse">
<stop/>
<stop offset="1" stop-color="white"/>
</linearGradient>
<linearGradient id="paint13_linear_1_2944" x1="61.866" y1="223.981" x2="-82.4777" y2="-143.549" gradientUnits="userSpaceOnUse">
<stop stop-color="#97C3F9"/>
<stop offset="1" stop-color="#93C1F9"/>
</linearGradient>
<linearGradient id="paint14_linear_1_2944" x1="114.842" y1="203.176" x2="-29.5021" y2="-164.354" gradientUnits="userSpaceOnUse">
<stop/>
<stop offset="1" stop-color="white"/>
</linearGradient>
<linearGradient id="paint15_linear_1_2944" x1="114.842" y1="203.176" x2="-29.5018" y2="-164.354" gradientUnits="userSpaceOnUse">
<stop stop-color="#97C3F9"/>
<stop offset="1" stop-color="#93C1F9"/>
</linearGradient>
<linearGradient id="paint16_linear_1_2944" x1="43.7884" y1="231.081" x2="-100.555" y2="-136.449" gradientUnits="userSpaceOnUse">
<stop/>
<stop offset="1" stop-color="white"/>
</linearGradient>
<linearGradient id="paint17_linear_1_2944" x1="43.7884" y1="231.081" x2="-100.555" y2="-136.449" gradientUnits="userSpaceOnUse">
<stop stop-color="#97C3F9"/>
<stop offset="1" stop-color="#93C1F9"/>
</linearGradient>
<linearGradient id="paint18_linear_1_2944" x1="96.764" y1="210.276" x2="-47.5797" y2="-157.254" gradientUnits="userSpaceOnUse">
<stop/>
<stop offset="1" stop-color="white"/>
</linearGradient>
<linearGradient id="paint19_linear_1_2944" x1="96.7643" y1="210.276" x2="-47.5795" y2="-157.254" gradientUnits="userSpaceOnUse">
<stop stop-color="#97C3F9"/>
<stop offset="1" stop-color="#93C1F9"/>
</linearGradient>
</defs>
</svg>
