<svg width="558" height="585" viewBox="0 0 558 585" fill="none" xmlns="http://www.w3.org/2000/svg">
<path d="M64.7646 235.215H57.4333C41.0057 235.215 27.7007 248.553 27.7007 265.022V428.754C27.7007 445.223 41.0057 458.561 57.4333 458.561H158.443C174.87 458.561 188.175 445.223 188.175 428.754" stroke="#222539" stroke-width="1.1031" stroke-miterlimit="10" stroke-linecap="round" stroke-linejoin="round" stroke-dasharray="4.41 4.41"/>
<path d="M179.894 80.6009V48.3443C179.894 38.2727 188.04 30.1064 198.086 30.1064H329.371C339.418 30.1064 347.564 38.2727 347.564 48.3443" stroke="#222539" stroke-width="1.1031" stroke-miterlimit="10" stroke-linecap="round" stroke-linejoin="round" stroke-dasharray="4.41 4.41"/>
<path d="M298.01 585.001C441.599 585.001 558 568.67 558 548.525C558 528.38 441.599 512.049 298.01 512.049C154.421 512.049 38.0195 528.38 38.0195 548.525C38.0195 568.67 154.421 585.001 298.01 585.001Z" fill="#32B088"/>
<path opacity="0.5" d="M298.01 585.001C441.599 585.001 558 568.67 558 548.525C558 528.38 441.599 512.049 298.01 512.049C154.421 512.049 38.0195 528.38 38.0195 548.525C38.0195 568.67 154.421 585.001 298.01 585.001Z" fill="white"/>
<path d="M543.201 124.018V369.141C543.201 385.881 529.761 399.356 513.062 399.356H83.093C66.3939 399.356 52.9531 385.881 52.9531 369.141V124.018C52.9531 123.337 52.9531 122.657 53.0889 121.84C54.175 106.188 67.2085 93.8027 83.093 93.8027H513.062C528.946 93.8027 541.98 106.188 543.066 121.84C543.201 122.657 543.201 123.337 543.201 124.018Z" fill="white" stroke="#222539" stroke-width="1.1031" stroke-miterlimit="10" stroke-linecap="round" stroke-linejoin="round"/>
<path d="M501.793 387.923H95.8549C80.2419 387.923 67.6157 375.265 67.6157 359.613V133.273H530.032V359.613C530.032 375.265 517.406 387.923 501.793 387.923Z" fill="#222539"/>
<path opacity="0.2" d="M530.032 133.273V359.613C530.032 375.265 517.542 387.923 502.064 387.923H95.5834C80.1061 387.923 67.6157 375.265 67.6157 359.613V133.273H530.032Z" fill="white"/>
<path d="M543.066 121.976H53.0892C54.1754 106.188 67.2088 93.8027 83.0933 93.8027H513.062C528.946 93.8027 541.98 106.188 543.066 121.976Z" fill="#32B088" stroke="#222539" stroke-width="1.1031" stroke-miterlimit="10"/>
<path d="M113.233 107.821C113.233 110.816 110.79 113.13 107.939 113.13C104.952 113.13 102.644 110.68 102.644 107.821C102.644 104.827 105.087 102.513 107.939 102.513C110.925 102.513 113.233 104.963 113.233 107.821Z" fill="#222539"/>
<path d="M135.77 107.821C135.77 110.816 133.327 113.13 130.476 113.13C127.489 113.13 125.181 110.68 125.181 107.821C125.181 104.827 127.624 102.513 130.476 102.513C133.462 102.513 135.77 104.963 135.77 107.821Z" fill="#222539"/>
<path d="M153.012 113.13C155.937 113.13 158.307 110.753 158.307 107.821C158.307 104.89 155.937 102.513 153.012 102.513C150.088 102.513 147.718 104.89 147.718 107.821C147.718 110.753 150.088 113.13 153.012 113.13Z" fill="#222539"/>
<path d="M530.032 133.273V359.613C530.032 375.265 517.406 387.923 501.793 387.923H95.8549C82.1426 387.923 70.7383 378.123 68.1588 365.057C67.7515 363.288 67.6157 361.519 67.6157 359.613V133.273H530.032Z" stroke="#222539" stroke-width="1.1031" stroke-miterlimit="10"/>
<path d="M529.625 168.252C527.588 167.163 525.552 166.21 523.38 165.666L520.8 154.233H510.075L507.495 165.666C505.323 166.21 503.151 167.163 501.25 168.252L491.475 161.991L483.872 169.613L489.981 179.412C488.895 181.454 487.945 183.495 487.402 185.673L475.998 188.259V199.011L487.402 201.597C487.945 203.775 488.895 205.952 489.981 207.994L483.736 217.793L491.339 225.415L501.114 219.154C503.151 220.243 505.187 221.196 507.359 221.74L509.939 233.037H520.664L523.244 221.74C525.416 221.06 527.588 220.243 529.489 219.154L530.032 219.427V167.979L529.625 168.252ZM515.505 207.722C507.767 207.722 501.521 201.461 501.521 193.703C501.521 185.945 507.767 179.684 515.505 179.684C523.244 179.684 529.489 185.945 529.489 193.703C529.353 201.461 523.108 207.722 515.505 207.722Z" fill="#222539"/>
<path d="M335.345 179.276V156.546L311.45 151.238C310.092 146.611 308.327 142.119 306.019 137.9L308.87 133.273H196.049L198.9 137.764C196.592 141.983 194.692 146.475 193.47 151.102L169.575 156.41V179.14L193.47 184.448C194.692 189.075 196.592 193.567 198.9 197.786L185.731 218.474L201.752 234.534L222.388 221.332C226.597 223.646 231.077 225.551 235.693 226.776L240.988 250.73H263.661L268.955 226.776C273.571 225.415 278.052 223.646 282.125 221.332L302.761 234.534L318.781 218.474L305.748 197.786C308.056 193.567 309.956 189.075 311.178 184.448L335.345 179.276ZM252.528 197.241C236.372 197.241 223.202 184.039 223.202 167.843C223.202 151.647 236.372 138.445 252.528 138.445C268.684 138.445 281.853 151.647 281.853 167.843C281.853 184.039 268.684 197.241 252.528 197.241Z" fill="#222539"/>
<path d="M184.51 335.659L185.46 317.557L166.725 312.249C165.91 308.574 164.552 304.899 162.923 301.497L174.192 285.573L162.109 272.098L145.138 281.626C141.88 279.584 138.486 277.951 134.82 276.726L131.697 257.671L113.64 256.719L108.481 275.501C104.816 276.318 101.15 277.679 97.7559 279.312L81.8714 268.015L68.4307 280.129L78.07 297.142C76.0335 300.408 74.4043 303.811 73.1824 307.485L67.7518 308.438V332.937L71.689 334.026C72.5036 337.7 73.8613 341.375 75.4904 344.778L67.7518 355.666L68.2949 365.057L76.305 374.04L93.2757 364.513C96.5341 366.554 99.9282 368.324 103.594 369.549L106.716 388.059L106.852 388.875L124.909 389.828L125.452 388.059L130.204 371.046C134.005 370.229 137.535 368.868 140.929 367.235L156.678 378.532L170.119 366.418L160.615 349.405C162.652 346.139 164.281 342.736 165.503 339.061L184.51 335.659ZM136.585 307.485C127.896 297.822 113.233 297.142 103.594 305.716C93.9545 314.427 93.2757 329.126 101.829 338.789C110.518 348.453 125.181 349.133 134.82 340.559C144.459 331.984 145.274 317.149 136.585 307.485Z" fill="#222539"/>
<path d="M328.692 308.711C329.371 305.852 329.778 302.994 329.778 300.136L342.676 293.331L339.146 280.129L324.484 280.809C322.99 278.359 321.225 276.046 319.189 274.004L323.533 259.985L311.722 253.18L301.811 263.932C299.096 263.252 296.109 262.844 293.258 262.844L286.469 249.778L273.3 253.316L273.979 268.015C271.535 269.513 269.227 271.282 267.191 273.324L253.207 268.968L246.419 280.809L257.28 290.745C256.601 293.603 256.194 296.461 256.194 299.319L243.16 306.125L246.69 319.327L261.353 318.646C262.846 321.096 264.611 323.41 266.648 325.451L262.303 339.47L274.115 346.275L283.89 335.523C286.741 336.203 289.592 336.612 292.443 336.612L299.231 349.678L312.401 346.139L311.857 333.618L311.722 331.44C314.165 329.943 316.473 328.173 318.646 326.132L332.63 330.487L338.467 320.415L339.418 318.646L328.692 308.711ZM297.738 316.741C288.37 319.327 278.731 313.746 276.151 304.355C273.572 294.964 279.138 285.301 288.506 282.715C297.874 280.129 307.513 285.709 310.093 295.1C312.536 304.491 307.106 314.155 297.738 316.741Z" fill="#222539"/>
<path d="M479.12 331.848L482.107 313.746L463.778 306.397C463.371 302.586 462.421 298.775 461.199 295.1L474.368 280.401L463.778 265.43L445.586 273.187C442.599 270.738 439.34 268.696 435.811 267.063L434.724 247.328L416.668 244.333L409.336 262.571C405.535 262.98 401.734 263.932 398.068 265.157L383.405 251.955L368.471 262.571L376.21 280.673C374.037 283.395 372.272 286.253 370.779 289.248C370.507 289.656 370.372 290.064 370.1 290.473L350.414 291.561L347.427 309.663L350.414 310.888L365.756 317.013C366.163 320.824 366.978 324.635 368.335 328.309L355.166 343.009L365.756 357.98L383.948 350.222C386.935 352.672 390.193 354.714 393.723 356.347L394.809 375.946L412.866 378.94L420.198 360.838C423.999 360.43 427.8 359.477 431.466 358.252L446.129 371.454L461.063 360.702L453.324 342.464C455.768 339.47 457.805 336.067 459.57 332.665L479.12 331.848ZM428.479 331.032C417.89 338.653 403.091 336.203 395.488 325.587C387.885 314.971 390.329 300.136 400.919 292.514C411.509 284.892 426.307 287.342 433.91 297.958C441.513 308.711 439.069 323.41 428.479 331.032Z" fill="#222539"/>
<path d="M234.335 430.659H92.3245C82.5495 430.659 74.5393 422.629 74.5393 412.83V215.752C74.5393 205.952 82.5495 197.922 92.3245 197.922H234.335C244.11 197.922 252.12 205.952 252.12 215.752V412.83C252.12 422.629 244.246 430.659 234.335 430.659Z" fill="#32B088" stroke="#222539" stroke-width="1.1031" stroke-miterlimit="10"/>
<path opacity="0.2" d="M234.335 430.659H92.3245C82.5495 430.659 74.5393 422.629 74.5393 412.83V215.752C74.5393 205.952 82.5495 197.922 92.3245 197.922H234.335C244.11 197.922 252.12 205.952 252.12 215.752V412.83C252.12 422.629 244.246 430.659 234.335 430.659Z" fill="black"/>
<path d="M268.684 233.309V430.387C268.684 440.187 260.674 448.217 250.899 448.217H108.888C99.1129 448.217 91.1028 440.187 91.1028 430.387V233.309C91.1028 223.51 99.1129 215.479 108.888 215.479H250.899C260.674 215.479 268.684 223.51 268.684 233.309Z" fill="white" stroke="#222539" stroke-width="1.1031" stroke-miterlimit="10" stroke-linecap="round" stroke-linejoin="round"/>
<path d="M268.684 233.309V243.925H91.1028V233.309C91.1028 223.51 99.1129 215.479 108.888 215.479H250.899C260.674 215.479 268.684 223.51 268.684 233.309Z" fill="#32B088" stroke="#222539" stroke-width="1.1031" stroke-miterlimit="10"/>
<path d="M151.519 256.039H107.802V263.388H151.519V256.039Z" fill="#32B088"/>
<path d="M151.519 321.913H107.802V329.262H151.519V321.913Z" fill="#32B088"/>
<path d="M151.519 381.662H107.802V389.012H151.519V381.662Z" fill="#32B088"/>
<path d="M231.892 274.276H107.802V279.721H231.892V274.276Z" fill="#222539"/>
<path d="M209.49 284.62H107.802V289.928H209.49V284.62Z" fill="#222539"/>
<path d="M222.795 294.692H107.802V300H222.795V294.692Z" fill="#222539"/>
<path d="M222.795 304.9H107.802V310.208H222.795V304.9Z" fill="#222539"/>
<path d="M231.892 334.026H107.802V339.47H231.892V334.026Z" fill="#222539"/>
<path d="M209.49 344.37H107.802V349.678H209.49V344.37Z" fill="#222539"/>
<path d="M222.795 354.441H107.802V359.749H222.795V354.441Z" fill="#222539"/>
<path d="M231.892 399.628H107.802V405.072H231.892V399.628Z" fill="#222539"/>
<path d="M209.49 409.836H107.802V415.144H209.49V409.836Z" fill="#222539"/>
<path d="M222.795 420.043H107.802V425.351H222.795V420.043Z" fill="#222539"/>
<path d="M468.802 78.8313V158.452C468.802 170.157 459.298 179.684 447.622 179.684H264.611C252.935 179.684 243.432 170.157 243.432 158.452V78.8313C243.432 67.1264 252.935 57.5991 264.611 57.5991H447.622C459.298 57.5991 468.802 67.1264 468.802 78.8313Z" fill="white" stroke="#222221" stroke-width="1.1031" stroke-miterlimit="10"/>
<path d="M468.802 78.8313V80.6006H243.432V78.8313C243.432 67.1264 252.935 57.5991 264.611 57.5991H447.622C459.298 57.5991 468.802 67.1264 468.802 78.8313Z" fill="#32B088" stroke="#222539" stroke-width="1.1031" stroke-miterlimit="10"/>
<path d="M276.422 72.8426C275.201 74.0676 273.028 74.0676 271.806 72.8426C270.585 71.6177 270.585 69.44 271.806 68.2151C273.028 66.9902 275.201 66.9902 276.422 68.2151C277.78 69.5761 277.78 71.6177 276.422 72.8426Z" fill="#222539"/>
<path d="M291.628 72.8426C290.406 74.0676 288.234 74.0676 287.012 72.8426C285.79 71.6177 285.79 69.44 287.012 68.2151C288.234 66.9902 290.406 66.9902 291.628 68.2151C292.85 69.5761 292.85 71.6177 291.628 72.8426Z" fill="#222539"/>
<path d="M306.698 72.8426C305.476 74.0676 303.304 74.0676 302.082 72.8426C300.86 71.6177 300.86 69.44 302.082 68.2151C303.304 66.9902 305.476 66.9902 306.698 68.2151C307.92 69.5761 307.92 71.6177 306.698 72.8426Z" fill="#222539"/>
<path d="M331.409 95.2998H257.688V159.132H331.409V95.2998Z" stroke="#222539" stroke-width="1.1031" stroke-miterlimit="10" stroke-linecap="round" stroke-linejoin="round" stroke-dasharray="4.41 4.41"/>
<path d="M427.665 95.2998H342.812V99.7912H427.665V95.2998Z" fill="#222539"/>
<path d="M407.843 104.555H342.812V109.046H407.843V104.555Z" fill="#222539"/>
<path d="M439.748 113.81H342.812V118.301H439.748V113.81Z" fill="#222539"/>
<path d="M425.357 122.929H342.812V127.42H425.357V122.929Z" fill="#222539"/>
<path d="M361.683 541.856C361.683 541.856 322.311 553.153 316.881 555.194C311.857 556.964 298.281 561.727 288.098 560.23C287.148 560.094 286.062 559.822 285.247 559.55C274.929 556.419 270.313 553.561 268.955 547.164C267.598 540.631 272.757 535.867 277.644 532.873C282.532 529.743 309.414 526.612 309.414 526.612L315.93 528.518L361.683 541.856Z" fill="#32B088"/>
<path d="M288.098 560.094C287.148 559.958 286.062 559.686 285.247 559.414C274.929 556.283 270.313 553.425 268.955 547.028C267.598 540.495 272.757 535.732 277.644 532.737C282.532 529.607 309.413 526.477 309.413 526.477L315.93 528.382C310.092 531.104 288.234 532.601 283.482 535.323C278.731 538.045 276.423 543.217 279.274 550.295C280.631 553.97 284.704 557.644 288.098 560.094Z" fill="white"/>
<path d="M355.71 543.489C355.71 543.489 326.113 551.111 314.437 556.147C302.762 561.047 280.36 563.225 272.35 553.017C264.34 542.945 271.4 534.098 279.41 532.193C287.42 530.287 303.44 527.157 312.265 528.382" stroke="#222539" stroke-width="1.1031" stroke-miterlimit="10" stroke-linecap="round" stroke-linejoin="round"/>
<path d="M288.642 559.55C288.642 559.55 273.572 551.247 278.595 539.679C282.261 531.104 302.354 533.009 312.265 528.246" stroke="#222539" stroke-width="1.1031" stroke-miterlimit="10" stroke-linecap="round" stroke-linejoin="round"/>
<path d="M481.564 562C481.156 566.083 479.799 569.894 475.726 572.343C473.01 573.977 469.209 574.929 463.643 574.793C449.794 574.657 423.863 564.722 423.863 564.722L399.561 551.247L412.187 531.24L415.582 525.796L424.542 527.837C424.542 527.837 431.873 532.057 439.341 535.323C446.808 538.726 464.864 539.406 471.245 544.578C477.626 549.614 482.242 555.194 481.564 562Z" fill="#32B088"/>
<path d="M481.564 562C481.157 566.083 479.799 569.894 475.726 572.343C476.54 569.213 477.084 564.858 475.047 560.23C472.332 554.106 463.507 548.797 451.831 547.845C440.291 546.892 431.331 541.448 426.715 538.998C423.049 537.093 415.446 533.009 412.188 531.24L415.582 525.796L424.542 527.837C424.542 527.837 431.874 532.057 439.341 535.323C446.808 538.726 464.865 539.406 471.246 544.578C477.627 549.614 482.243 555.194 481.564 562Z" fill="white"/>
<path d="M404.857 555.058C422.099 564.994 441.92 572.207 461.742 574.521C466.222 575.065 471.246 575.065 474.232 571.799C475.862 569.893 476.54 567.307 476.269 564.858C475.726 558.597 470.431 553.697 464.729 551.111C459.027 548.661 452.646 547.981 446.536 546.62C440.427 545.259 434.589 543.081 429.023 540.223C424.678 537.909 420.334 535.187 415.582 534.098C410.694 533.009 404.992 534.37 402.413 538.59" stroke="#222539" stroke-width="1.1031" stroke-miterlimit="10" stroke-linecap="round" stroke-linejoin="round"/>
<path d="M472.739 573.432C477.219 571.118 480.884 566.899 481.563 561.863C482.378 556.011 479.119 550.022 474.368 546.348C469.616 542.673 463.778 541.04 457.94 539.815C452.102 538.59 446.129 537.773 440.562 535.595C432.009 532.193 423.592 525.66 414.767 527.974" stroke="#222539" stroke-width="1.1031" stroke-miterlimit="10" stroke-linecap="round" stroke-linejoin="round"/>
<path d="M432.28 344.234L391.144 328.582L390.601 328.446C390.601 328.446 390.736 327.357 390.872 325.723C391.144 322.457 391.279 317.013 389.786 315.244C387.478 312.521 380.961 314.835 374.716 311.841C368.335 308.983 356.659 314.155 356.659 314.155C356.659 314.155 348.242 312.658 344.44 318.782C342.54 323.682 343.218 331.032 343.218 331.032C343.218 331.032 342.947 331.168 342.404 331.304C337.516 333.073 310.906 343.145 305.204 347.228C298.959 351.719 292.035 397.042 289.863 410.38C287.691 423.718 283.753 435.695 285.654 440.323C287.69 444.95 316.337 466.999 332.765 472.715C349.192 478.432 407.707 476.799 407.707 476.799C407.707 476.799 408.657 476.526 410.422 475.982C420.333 472.852 455.361 459.65 473.96 428.754C473.96 428.754 456.039 369.549 432.28 344.234ZM321.225 420.588C318.238 422.765 319.867 431.068 319.867 431.068L314.708 426.576L327.605 394.728L333.172 419.227C333.172 419.091 324.211 418.41 321.225 420.588ZM424.678 440.867C423.32 441.548 428.751 426.304 426.171 422.765C423.591 419.227 415.717 419.635 415.717 419.635L416.396 415.416C416.532 415.008 421.012 391.462 421.012 391.462L422.505 389.556C422.505 389.556 438.526 417.049 441.377 426.712C441.377 426.849 423.863 440.867 424.678 440.867Z" fill="#32B088"/>
<path d="M354.759 244.878L333.58 267.471C333.58 267.471 330.593 270.057 331.815 276.59C333.037 283.123 335.752 288.839 337.789 289.248C339.825 289.656 342.676 289.656 342.676 289.656C342.676 289.656 347.292 299.592 350.415 303.403C350.415 303.403 351.501 318.646 350.958 322.865C350.958 322.865 358.561 329.534 365.756 330.351C372.952 331.168 384.084 320.143 384.084 320.143L386.8 306.669C386.8 306.669 393.316 296.733 393.724 294.147C394.131 291.562 397.118 292.242 398.611 290.881C400.105 289.52 403.499 283.804 404.042 278.223C404.585 272.779 404.585 266.382 398.204 268.288C392.638 266.791 396.168 255.086 396.168 255.086L386.528 246.511L354.759 244.878Z" fill="white"/>
<path opacity="0.5" d="M391.28 328.446C391.009 329.262 390.601 330.079 390.194 330.896C386.664 337.565 371.459 350.086 371.459 350.086L366.843 335.931L364.263 350.086C359.104 347.909 343.627 334.434 343.627 334.434C343.627 334.434 343.084 333.209 342.405 331.168C342.948 331.032 343.219 330.896 343.219 330.896C343.219 330.896 342.541 323.546 344.441 318.646C348.107 312.522 356.66 314.019 356.66 314.019C356.66 314.019 368.336 308.847 374.717 311.705C381.098 314.563 387.615 312.385 389.787 315.108C392.095 317.83 390.737 328.31 390.737 328.31L391.28 328.446Z" fill="white"/>
<path opacity="0.2" d="M432.281 344.233L391.144 328.582L390.601 328.445C390.601 328.445 390.737 327.357 390.873 325.723L390.058 331.031L383.949 339.334C383.949 339.334 394.267 343.009 402.956 347.772C409.065 351.039 412.459 357.572 411.645 364.377L404.042 429.298L400.919 466.182L410.287 475.982C420.198 472.851 455.225 459.649 473.825 428.754C473.961 428.754 456.04 369.549 432.281 344.233ZM424.678 440.867C423.321 441.548 428.751 426.304 426.172 422.765C423.592 419.227 415.718 419.635 415.718 419.635L416.397 415.416C416.532 415.007 421.013 391.461 421.013 391.461L422.506 389.556C422.506 389.556 438.526 417.049 441.377 426.712C441.377 426.848 423.864 440.867 424.678 440.867Z" fill="black"/>
<path opacity="0.2" d="M335.887 422.765L329.506 401.397C329.506 401.397 318.102 362.199 310.228 352.536L312.264 380.165C312.264 380.165 305.476 413.102 299.231 422.902C292.986 432.701 291.628 435.151 299.231 435.151C306.834 435.151 325.298 449.85 325.298 449.85L323.94 437.601L335.887 422.765ZM319.867 431.068L314.708 426.576L327.606 394.728L333.172 419.227C333.172 419.227 324.347 418.546 321.36 420.724C318.238 422.765 319.867 431.068 319.867 431.068Z" fill="black"/>
<path d="M350.279 303.403C350.279 303.403 351.501 314.971 350.279 320.279" stroke="#222539" stroke-width="1.1031" stroke-miterlimit="10" stroke-linecap="round" stroke-linejoin="round"/>
<path d="M385.035 318.646C385.035 318.646 385.035 313.066 386.257 307.622" stroke="#222539" stroke-width="1.1031" stroke-miterlimit="10" stroke-linecap="round" stroke-linejoin="round"/>
<path d="M388.157 253.452C388.157 253.452 395.081 262.299 394.81 268.832C394.403 275.501 393.859 283.395 394.131 291.017C394.267 298.775 381.776 314.835 375.395 316.332C369.014 317.829 363.448 318.102 359.239 314.019C355.166 309.935 350.958 304.219 345.663 296.87C340.232 289.52 341.59 273.46 341.59 273.46" stroke="#222539" stroke-width="1.1031" stroke-miterlimit="10" stroke-linecap="round" stroke-linejoin="round"/>
<path d="M371.458 279.448C371.051 281.898 370.915 284.348 370.915 286.798C370.915 288.839 371.323 291.017 372.68 292.514C373.495 293.331 374.581 293.875 374.717 294.964C374.853 295.917 374.174 296.87 373.223 297.278C372.409 297.822 371.458 298.095 370.644 298.775" stroke="#222539" stroke-width="1.1031" stroke-miterlimit="10" stroke-linecap="round" stroke-linejoin="round"/>
<path d="M360.326 299.728C360.326 299.728 361.14 304.9 368.064 305.989" stroke="#222539" stroke-width="1.1031" stroke-miterlimit="10" stroke-linecap="round" stroke-linejoin="round"/>
<path d="M361.005 283.395C361.005 284.892 360.326 286.117 359.512 286.117C358.697 286.117 358.018 284.892 358.018 283.395C358.018 281.898 358.697 280.673 359.512 280.673C360.462 280.673 361.005 281.898 361.005 283.395Z" fill="#222539"/>
<path d="M381.777 284.076C381.777 285.573 381.098 286.798 380.283 286.798C379.469 286.798 378.79 285.573 378.79 284.076C378.79 282.579 379.469 281.354 380.283 281.354C381.233 281.354 381.777 282.579 381.777 284.076Z" fill="#222539"/>
<path d="M377.704 277.543C377.704 277.543 384.492 270.738 390.194 278.359" stroke="#222539" stroke-width="2.2062" stroke-miterlimit="10" stroke-linecap="round" stroke-linejoin="round"/>
<path d="M363.312 277.679C363.312 277.679 358.968 272.915 352.315 277.679" stroke="#222539" stroke-width="2.2062" stroke-miterlimit="10" stroke-linecap="round" stroke-linejoin="round"/>
<path d="M350.822 309.799C350.822 309.799 354.895 321.232 364.263 324.499C373.495 327.765 385.849 310.888 385.849 310.888L385.17 308.711C385.17 308.711 377.16 319.191 368.2 317.421C359.239 315.652 350.415 303.539 350.415 303.539L350.822 309.799Z" fill="#222539"/>
<path d="M342.54 289.248C342.54 289.248 336.974 291.153 335.616 286.934C334.123 282.579 329.099 271.282 333.58 267.471C337.924 263.66 341.454 272.507 341.454 272.507" stroke="#222539" stroke-width="1.1031" stroke-miterlimit="10" stroke-linecap="round" stroke-linejoin="round"/>
<path d="M394.131 291.561C394.131 291.561 399.291 292.65 400.784 288.295C402.277 283.94 407.301 272.643 402.82 268.832C398.476 265.021 394.946 273.868 394.946 273.868" stroke="#222539" stroke-width="1.1031" stroke-miterlimit="10" stroke-linecap="round" stroke-linejoin="round"/>
<path d="M341.454 283.395C342.948 283.259 345.527 281.898 346.342 280.537C347.157 279.176 347.428 277.679 347.7 276.182C348.243 273.324 348.514 270.329 348.514 267.471C348.514 266.382 348.514 265.157 348.786 264.069C349.193 262.98 349.872 261.891 350.686 261.074C352.587 258.76 354.895 256.855 356.796 254.541C358.561 252.227 359.919 249.233 359.511 246.375C359.511 246.375 372.002 257.808 390.058 254.269C399.698 252.364 409.066 243.789 407.979 233.173C407.572 229.362 404.721 226.64 401.191 225.687C396.439 224.462 392.095 227.048 387.75 228.682C379.876 231.676 372.137 226.504 364.127 225.687C357.339 225.007 348.922 225.823 345.392 232.629C345.392 232.629 333.037 234.126 327.742 244.197C322.312 254.269 332.63 268.288 332.63 268.288C332.63 268.288 336.703 263.252 341.998 273.46L341.454 283.395Z" fill="#222539"/>
<path d="M388.972 250.866C388.972 250.866 385.849 267.471 394.131 275.501C394.131 275.501 395.896 270.465 397.796 269.24C397.796 269.24 402.412 260.53 396.303 250.866C390.194 241.203 388.972 250.866 388.972 250.866Z" fill="#222539"/>
<path opacity="0.2" d="M404.177 231.948C402.955 236.576 399.154 240.114 394.674 241.884C383.134 246.647 372.001 241.339 360.461 240.386C351.093 239.57 340.639 248.008 339.96 257.808" stroke="white" stroke-width="1.1031" stroke-miterlimit="10" stroke-linecap="round" stroke-linejoin="round"/>
<path opacity="0.2" d="M332.901 255.086C333.037 247.464 338.06 240.114 345.12 237.256" stroke="white" stroke-width="1.1031" stroke-miterlimit="10" stroke-linecap="round" stroke-linejoin="round"/>
<path d="M347.699 318.646C347.699 318.646 355.302 327.085 365.62 330.895C365.62 330.895 379.468 326.948 386.392 317.285" stroke="#222539" stroke-width="1.1031" stroke-miterlimit="10" stroke-linecap="round" stroke-linejoin="round"/>
<path d="M361.75 294.519C367.884 291.699 370.576 284.428 367.763 278.278C364.95 272.129 357.696 269.43 351.562 272.25C345.428 275.071 342.736 282.342 345.549 288.492C348.362 294.641 355.616 297.34 361.75 294.519Z" stroke="#222539" stroke-width="1.1031" stroke-miterlimit="10" stroke-linecap="round" stroke-linejoin="round"/>
<path d="M385.41 295.541C392.108 294.716 396.871 288.604 396.048 281.89C395.225 275.176 389.129 270.401 382.431 271.226C375.734 272.05 370.971 278.162 371.794 284.876C372.616 291.591 378.713 296.365 385.41 295.541Z" stroke="#222539" stroke-width="1.1031" stroke-miterlimit="10" stroke-linecap="round" stroke-linejoin="round"/>
<path d="M350.279 314.155C350.279 314.155 346.613 314.971 344.441 318.782C342.268 322.593 343.626 334.57 343.626 334.57C343.626 334.57 354.759 345.595 364.262 350.222L367.113 334.434L371.458 350.222C371.458 350.222 386.12 339.742 390.193 331.031C390.193 331.031 391.551 320.824 390.193 317.421C388.836 314.018 385.849 314.155 385.849 314.155" stroke="#222539" stroke-width="1.1031" stroke-miterlimit="10" stroke-linecap="round" stroke-linejoin="round"/>
<path d="M332.901 419.635C332.901 419.635 328.557 390.373 322.719 378.396" stroke="#222539" stroke-width="1.1031" stroke-miterlimit="10" stroke-linecap="round" stroke-linejoin="round"/>
<path d="M310.228 352.536C310.228 352.536 315.795 360.294 319.189 367.643" stroke="#222539" stroke-width="1.1031" stroke-miterlimit="10" stroke-linecap="round" stroke-linejoin="round"/>
<path d="M424.678 374.312C426.171 368.46 427.801 363.424 429.43 360.021" stroke="#222539" stroke-width="1.1031" stroke-miterlimit="10" stroke-linecap="round" stroke-linejoin="round"/>
<path d="M415.583 419.635C415.583 419.635 418.706 399.628 422.507 383.023" stroke="#222539" stroke-width="1.1031" stroke-miterlimit="10" stroke-linecap="round" stroke-linejoin="round"/>
<path d="M421.012 391.461C423.999 387.514 428.343 384.52 433.095 383.159" stroke="#222539" stroke-width="1.1031" stroke-miterlimit="10" stroke-linecap="round" stroke-linejoin="round"/>
<path d="M390.736 328.31C390.736 328.31 415.988 338.381 432.416 344.234C432.416 344.234 452.509 363.152 474.096 428.754C474.096 428.754 454.41 462.1 416.803 472.716" stroke="#222539" stroke-width="1.1031" stroke-miterlimit="10" stroke-linecap="round" stroke-linejoin="round"/>
<path d="M423.185 441.956L441.378 426.712C441.378 426.712 451.017 419.363 460.928 424.399" stroke="#222539" stroke-width="1.1031" stroke-miterlimit="10" stroke-linecap="round" stroke-linejoin="round"/>
<path d="M422.506 389.692C422.506 389.692 437.576 411.877 441.377 426.848" stroke="#222539" stroke-width="1.1031" stroke-miterlimit="10" stroke-linecap="round" stroke-linejoin="round"/>
<path d="M320.003 431.884L314.708 426.848C314.708 426.848 306.834 425.487 297.873 431.476" stroke="#222539" stroke-width="1.1031" stroke-miterlimit="10" stroke-linecap="round" stroke-linejoin="round"/>
<path d="M314.709 426.848C314.709 426.848 321.361 405.072 327.742 393.911" stroke="#222539" stroke-width="1.1031" stroke-miterlimit="10" stroke-linecap="round" stroke-linejoin="round"/>
<path d="M343.22 331.031C343.22 331.031 306.834 344.778 303.305 348.725C299.775 352.672 286.198 429.298 285.791 438.009C285.519 445.903 313.759 463.46 327.878 470.81" stroke="#222539" stroke-width="1.1031" stroke-miterlimit="10" stroke-linecap="round" stroke-linejoin="round"/>
<path d="M474.911 318.646H433.367C428.479 318.646 424.542 314.699 424.542 309.799V285.437C424.542 280.537 428.479 276.59 433.367 276.59H474.911C479.798 276.59 483.736 280.537 483.736 285.437V309.799C483.871 314.699 479.934 318.646 474.911 318.646Z" fill="white" stroke="#222539" stroke-width="1.1031" stroke-miterlimit="10" stroke-linecap="round" stroke-linejoin="round"/>
<path d="M443.686 289.248L432.417 296.325L442.871 305.716" stroke="#222539" stroke-width="1.1031" stroke-miterlimit="10" stroke-linecap="round" stroke-linejoin="round"/>
<path d="M464.456 306.397L474.774 297.686L462.963 289.928" stroke="#222539" stroke-width="1.1031" stroke-miterlimit="10" stroke-linecap="round" stroke-linejoin="round"/>
<path d="M449.251 311.841L457.668 285.437" stroke="#222539" stroke-width="1.1031" stroke-miterlimit="10" stroke-linecap="round" stroke-linejoin="round"/>
<path d="M370.372 356.891C370.372 358.252 369.286 359.341 367.929 359.341C366.571 359.341 365.485 358.252 365.485 356.891C365.485 355.53 366.571 354.441 367.929 354.441C369.286 354.441 370.372 355.53 370.372 356.891Z" fill="#222539"/>
<path d="M412.594 485.101H329.777C328.691 485.101 327.876 484.284 327.876 483.196C327.876 482.107 328.691 481.29 329.777 481.29H412.594C413.68 481.29 414.495 482.107 414.495 483.196C414.495 484.148 413.544 485.101 412.594 485.101Z" fill="#222539"/>
<path d="M415.445 478.568L426.578 426.304C427.257 422.902 424.677 419.635 421.147 419.635H324.347C320.817 419.635 318.237 422.902 318.916 426.304L328.827 476.799C329.37 479.385 331.542 481.154 334.122 481.29L409.879 483.059C412.594 483.059 414.902 481.29 415.445 478.568Z" fill="white" stroke="#222539" stroke-width="1.1031" stroke-miterlimit="10" stroke-linecap="round" stroke-linejoin="round"/>
<path d="M380.146 449.714C380.146 453.933 376.752 457.472 372.408 457.472C368.063 457.472 364.669 454.069 364.669 449.714C364.669 445.359 368.063 441.956 372.408 441.956C376.752 441.956 380.146 445.495 380.146 449.714Z" fill="#222539"/>
<path d="M395.352 424.535H406.756" stroke="#222539" stroke-width="1.1031" stroke-miterlimit="10" stroke-linecap="round" stroke-linejoin="round"/>
<path d="M340.366 424.535H384.082" stroke="#222539" stroke-width="1.1031" stroke-miterlimit="10" stroke-linecap="round" stroke-linejoin="round"/>
<path d="M415.582 534.098L406.757 557.372C406.757 557.372 384.22 551.656 355.438 545.803C325.298 539.542 293.801 531.648 277.509 502.931C275.472 499.392 274.251 495.309 275.065 491.362C277.373 481.426 290.271 478.704 298.824 477.751C304.119 477.071 309.549 476.935 314.844 476.799C317.56 476.799 326.656 475.301 328.828 476.935C328.828 476.935 334.53 481.154 339.282 483.195C344.034 485.237 414.496 481.29 414.496 481.29C414.496 481.29 416.532 476.799 416.668 472.852C427.665 467.271 453.325 462.508 464.186 464.549C481.157 467.816 491.067 477.751 489.302 488.231C487.402 498.575 449.795 526.476 415.582 534.098Z" fill="#222539"/>
<path d="M415.581 534.098C415.581 534.098 394.131 528.382 376.753 516.541C359.239 504.7 345.662 490.953 321.225 493.812" stroke="white" stroke-width="1.1031" stroke-miterlimit="10" stroke-linecap="round" stroke-linejoin="round"/>
<path d="M372.68 513.683C383.677 510.552 391.823 503.339 400.648 496.398C410.015 489.048 419.926 482.107 430.652 476.663" stroke="white" stroke-width="1.1031" stroke-miterlimit="10" stroke-linecap="round" stroke-linejoin="round"/>
<path d="M368.879 285.437H372.138" stroke="#222539" stroke-width="1.1031" stroke-miterlimit="10" stroke-linecap="round" stroke-linejoin="round"/>
</svg>
