<svg id="visual" viewBox="0 0 1920 1080" width="1920" height="1080" xmlns="http://www.w3.org/2000/svg" xmlns:xlink="http://www.w3.org/1999/xlink" version="1.1"><path d="M1823 1080L1819.8 1044C1816.7 1008 1810.3 936 1807.2 864C1804 792 1804 720 1804 648C1804 576 1804 504 1804 432C1804 360 1804 288 1807.2 216C1810.3 144 1816.7 72 1819.8 36L1823 0L1920 0L1920 36C1920 72 1920 144 1920 216C1920 288 1920 360 1920 432C1920 504 1920 576 1920 648C1920 720 1920 792 1920 864C1920 936 1920 1008 1920 1044L1920 1080Z" fill="#030029"></path><path d="M1689 1080L1685.7 1044C1682.3 1008 1675.7 936 1672.3 864C1669 792 1669 720 1675.5 648C1682 576 1695 504 1698.3 432C1701.7 360 1695.3 288 1698.5 216C1701.7 144 1714.3 72 1720.7 36L1727 0L1824 0L1820.8 36C1817.7 72 1811.3 144 1808.2 216C1805 288 1805 360 1805 432C1805 504 1805 576 1805 648C1805 720 1805 792 1808.2 864C1811.3 936 1817.7 1008 1820.8 1044L1824 1080Z" fill="#020031"></path><path d="M1554 1080L1550.8 1044C1547.7 1008 1541.3 936 1538.2 864C1535 792 1535 720 1547.8 648C1560.7 576 1586.3 504 1589.5 432C1592.7 360 1573.3 288 1570.2 216C1567 144 1580 72 1586.5 36L1593 0L1728 0L1721.7 36C1715.3 72 1702.7 144 1699.5 216C1696.3 288 1702.7 360 1699.3 432C1696 504 1683 576 1676.5 648C1670 720 1670 792 1673.3 864C1676.7 936 1683.3 1008 1686.7 1044L1690 1080Z" fill="#000945"></path><path d="M1420 1080L1413.5 1044C1407 1008 1394 936 1390.8 864C1387.7 792 1394.3 720 1410.3 648C1426.3 576 1451.7 504 1454.8 432C1458 360 1439 288 1435.8 216C1432.7 144 1445.3 72 1451.7 36L1458 0L1594 0L1587.5 36C1581 72 1568 144 1571.2 216C1574.3 288 1593.7 360 1590.5 432C1587.3 504 1561.7 576 1548.8 648C1536 720 1536 792 1539.2 864C1542.3 936 1548.7 1008 1551.8 1044L1555 1080Z" fill="#00136d"></path><path d="M997 1080L984.3 1044C971.7 1008 946.3 936 936.8 864C927.3 792 933.7 720 962.3 648C991 576 1042 504 1048.3 432C1054.7 360 1016.3 288 1010 216C1003.7 144 1029.3 72 1042.2 36L1055 0L1459 0L1452.7 36C1446.3 72 1433.7 144 1436.8 216C1440 288 1459 360 1455.8 432C1452.7 504 1427.3 576 1411.3 648C1395.3 720 1388.7 792 1391.8 864C1395 936 1408 1008 1414.5 1044L1421 1080Z" fill="#001475"></path><path d="M613 1080L603.5 1044C594 1008 575 936 575 864C575 792 594 720 610 648C626 576 639 504 635.8 432C632.7 360 613.3 288 594.2 216C575 144 556 72 546.5 36L537 0L1056 0L1043.2 36C1030.3 72 1004.7 144 1011 216C1017.3 288 1055.7 360 1049.3 432C1043 504 992 576 963.3 648C934.7 720 928.3 792 937.8 864C947.3 936 972.7 1008 985.3 1044L998 1080Z" fill="#00136d"></path><path d="M364 1080L364 1044C364 1008 364 936 360.8 864C357.7 792 351.3 720 344.8 648C338.3 576 331.7 504 331.7 432C331.7 360 338.3 288 335.2 216C332 144 319 72 312.5 36L306 0L538 0L547.5 36C557 72 576 144 595.2 216C614.3 288 633.7 360 636.8 432C640 504 627 576 611 648C595 720 576 792 576 864C576 936 595 1008 604.5 1044L614 1080Z" fill="#000945"></path><path d="M210 1080L213.2 1044C216.3 1008 222.7 936 225.8 864C229 792 229 720 219.5 648C210 576 191 504 187.8 432C184.7 360 197.3 288 200.5 216C203.7 144 197.3 72 194.2 36L191 0L307 0L313.5 36C320 72 333 144 336.2 216C339.3 288 332.7 360 332.7 432C332.7 504 339.3 576 345.8 648C352.3 720 358.7 792 361.8 864C365 936 365 1008 365 1044L365 1080Z" fill="#020031"></path><path d="M0 1080L0 1044C0 1008 0 936 0 864C0 792 0 720 0 648C0 576 0 504 0 432C0 360 0 288 0 216C0 144 0 72 0 36L0 0L192 0L195.2 36C198.3 72 204.7 144 201.5 216C198.3 288 185.7 360 188.8 432C192 504 211 576 220.5 648C230 720 230 792 226.8 864C223.7 936 217.3 1008 214.2 1044L211 1080Z" fill="#030029"></path></svg>