<svg id="visual" viewBox="0 0 1920 1080" width="1920" height="1080" xmlns="http://www.w3.org/2000/svg" xmlns:xlink="http://www.w3.org/1999/xlink" version="1.1"><rect x="0" y="0" width="1920" height="1080" fill="#F2F4F3"></rect><path d="M0 805L32 800.5C64 796 128 787 192 793C256 799 320 820 384 815.8C448 811.7 512 782.3 576 763.5C640 744.7 704 736.3 768 746C832 755.7 896 783.3 960 804.3C1024 825.3 1088 839.7 1152 842.5C1216 845.3 1280 836.7 1344 822.7C1408 808.7 1472 789.3 1536 780C1600 770.7 1664 771.3 1728 777.2C1792 783 1856 794 1888 799.5L1920 805L1920 1081L1888 1081C1856 1081 1792 1081 1728 1081C1664 1081 1600 1081 1536 1081C1472 1081 1408 1081 1344 1081C1280 1081 1216 1081 1152 1081C1088 1081 1024 1081 960 1081C896 1081 832 1081 768 1081C704 1081 640 1081 576 1081C512 1081 448 1081 384 1081C320 1081 256 1081 192 1081C128 1081 64 1081 32 1081L0 1081Z" fill="#453b2f"></path><path d="M0 897L32 885C64 873 128 849 192 846.5C256 844 320 863 384 863C448 863 512 844 576 842.3C640 840.7 704 856.3 768 853.5C832 850.7 896 829.3 960 829.2C1024 829 1088 850 1152 859.8C1216 869.7 1280 868.3 1344 870.8C1408 873.3 1472 879.7 1536 875.7C1600 871.7 1664 857.3 1728 857C1792 856.7 1856 870.3 1888 877.2L1920 884L1920 1081L1888 1081C1856 1081 1792 1081 1728 1081C1664 1081 1600 1081 1536 1081C1472 1081 1408 1081 1344 1081C1280 1081 1216 1081 1152 1081C1088 1081 1024 1081 960 1081C896 1081 832 1081 768 1081C704 1081 640 1081 576 1081C512 1081 448 1081 384 1081C320 1081 256 1081 192 1081C128 1081 64 1081 32 1081L0 1081Z" fill="#675948"></path><path d="M0 865L32 864.3C64 863.7 128 862.3 192 863.2C256 864 320 867 384 876.2C448 885.3 512 900.7 576 912.3C640 924 704 932 768 928.8C832 925.7 896 911.3 960 903C1024 894.7 1088 892.3 1152 895.5C1216 898.7 1280 907.3 1344 904C1408 900.7 1472 885.3 1536 877.8C1600 870.3 1664 870.7 1728 869.3C1792 868 1856 865 1888 863.5L1920 862L1920 1081L1888 1081C1856 1081 1792 1081 1728 1081C1664 1081 1600 1081 1536 1081C1472 1081 1408 1081 1344 1081C1280 1081 1216 1081 1152 1081C1088 1081 1024 1081 960 1081C896 1081 832 1081 768 1081C704 1081 640 1081 576 1081C512 1081 448 1081 384 1081C320 1081 256 1081 192 1081C128 1081 64 1081 32 1081L0 1081Z" fill="#817464"></path><path d="M0 931L32 940.8C64 950.7 128 970.3 192 979.2C256 988 320 986 384 975.8C448 965.7 512 947.3 576 935.5C640 923.7 704 918.3 768 917.7C832 917 896 921 960 929.7C1024 938.3 1088 951.7 1152 963.2C1216 974.7 1280 984.3 1344 983.7C1408 983 1472 972 1536 963.8C1600 955.7 1664 950.3 1728 951.2C1792 952 1856 959 1888 962.5L1920 966L1920 1081L1888 1081C1856 1081 1792 1081 1728 1081C1664 1081 1600 1081 1536 1081C1472 1081 1408 1081 1344 1081C1280 1081 1216 1081 1152 1081C1088 1081 1024 1081 960 1081C896 1081 832 1081 768 1081C704 1081 640 1081 576 1081C512 1081 448 1081 384 1081C320 1081 256 1081 192 1081C128 1081 64 1081 32 1081L0 1081Z" fill="#675948"></path><path d="M0 1042L32 1033.7C64 1025.3 128 1008.7 192 1004C256 999.3 320 1006.7 384 1009.3C448 1012 512 1010 576 1007.3C640 1004.7 704 1001.3 768 1003.3C832 1005.3 896 1012.7 960 1014.7C1024 1016.7 1088 1013.3 1152 1012C1216 1010.7 1280 1011.3 1344 1007.7C1408 1004 1472 996 1536 997.7C1600 999.3 1664 1010.7 1728 1014.8C1792 1019 1856 1016 1888 1014.5L1920 1013L1920 1081L1888 1081C1856 1081 1792 1081 1728 1081C1664 1081 1600 1081 1536 1081C1472 1081 1408 1081 1344 1081C1280 1081 1216 1081 1152 1081C1088 1081 1024 1081 960 1081C896 1081 832 1081 768 1081C704 1081 640 1081 576 1081C512 1081 448 1081 384 1081C320 1081 256 1081 192 1081C128 1081 64 1081 32 1081L0 1081Z" fill="#453b2f"></path></svg>