<svg id="visual" viewBox="0 0 1920 1080" width="1920" height="1080" xmlns="http://www.w3.org/2000/svg" xmlns:xlink="http://www.w3.org/1999/xlink" version="1.1"><rect x="0" y="0" width="1920" height="1080" fill="#003fff"></rect><defs><linearGradient id="grad1_0" x1="43.8%" y1="0%" x2="100%" y2="100%"><stop offset="14.444444444444446%" stop-color="#003fff" stop-opacity="1"></stop><stop offset="85.55555555555554%" stop-color="#003fff" stop-opacity="1"></stop></linearGradient></defs><defs><linearGradient id="grad2_0" x1="0%" y1="0%" x2="56.3%" y2="100%"><stop offset="14.444444444444446%" stop-color="#003fff" stop-opacity="1"></stop><stop offset="85.55555555555554%" stop-color="#003fff" stop-opacity="1"></stop></linearGradient></defs><g transform="translate(1920, 0)"><path d="M0 756C-64.6 744.8 -129.2 733.7 -192.6 718.6C-255.9 703.6 -317.9 684.7 -378 654.7C-438.1 624.7 -496.3 583.6 -526.8 526.8C-557.3 470 -560.2 397.6 -591.5 341.5C-622.8 285.4 -682.6 245.7 -714.8 191.5C-746.9 137.3 -751.5 68.7 -756 0L0 0Z" fill="#000036"></path></g><g transform="translate(0, 1080)"><path d="M0 -756C61.8 -726.7 123.5 -697.5 179.4 -669.4C235.2 -641.3 285.1 -614.3 340.5 -589.8C395.9 -565.2 456.8 -543 506.3 -506.3C555.7 -469.5 593.8 -418.2 632.2 -365C670.6 -311.8 709.5 -256.8 730.2 -195.7C750.9 -134.5 753.5 -67.3 756 0L0 0Z" fill="#000036"></path></g></svg>