<svg id="visual" viewBox="0 0 1920 1080" width="1920" height="1080" xmlns="http://www.w3.org/2000/svg" xmlns:xlink="http://www.w3.org/1999/xlink" version="1.1"><rect x="0" y="0" width="1920" height="1080" fill="#efefef"></rect><path d="M0 202L64 185.8C128 169.7 256 137.3 384 143C512 148.7 640 192.3 768 200C896 207.7 1024 179.3 1152 165.8C1280 152.3 1408 153.7 1536 159.3C1664 165 1792 175 1856 180L1920 185L1920 0L1856 0C1792 0 1664 0 1536 0C1408 0 1280 0 1152 0C1024 0 896 0 768 0C640 0 512 0 384 0C256 0 128 0 64 0L0 0Z" fill="#0a3143" stroke-linecap="round" stroke-linejoin="miter"></path></svg>