<svg id="visual" viewBox="0 0 1920 1080" width="1920" height="1080" xmlns="http://www.w3.org/2000/svg" xmlns:xlink="http://www.w3.org/1999/xlink" version="1.1"><rect x="0" y="0" width="1920" height="1080" fill="#FFFFFF"></rect><path d="M0 188L64 186.5C128 185 256 182 384 165.5C512 149 640 119 768 113.7C896 108.3 1024 127.7 1152 145C1280 162.3 1408 177.7 1536 174C1664 170.3 1792 147.7 1856 136.3L1920 125L1920 0L1856 0C1792 0 1664 0 1536 0C1408 0 1280 0 1152 0C1024 0 896 0 768 0C640 0 512 0 384 0C256 0 128 0 64 0L0 0Z" fill="#2D3142" stroke-linecap="round" stroke-linejoin="miter"></path></svg>