<svg id="visual" viewBox="0 0 1920 1080" width="1920" height="1080" xmlns="http://www.w3.org/2000/svg" xmlns:xlink="http://www.w3.org/1999/xlink" version="1.1"><path d="M0 55L64 56.8C128 58.7 256 62.3 384 64.2C512 66 640 66 768 66C896 66 1024 66 1152 66C1280 66 1408 66 1536 64.2C1664 62.3 1792 58.7 1856 56.8L1920 55L1920 0L1856 0C1792 0 1664 0 1536 0C1408 0 1280 0 1152 0C1024 0 896 0 768 0C640 0 512 0 384 0C256 0 128 0 64 0L0 0Z" fill="#001e5e"></path><path d="M0 131L64 132.7C128 134.3 256 137.7 384 139.3C512 141 640 141 768 137.5C896 134 1024 127 1152 125.3C1280 123.7 1408 127.3 1536 125.5C1664 123.7 1792 116.3 1856 112.7L1920 109L1920 53L1856 54.8C1792 56.7 1664 60.3 1536 62.2C1408 64 1280 64 1152 64C1024 64 896 64 768 64C640 64 512 64 384 62.2C256 60.3 128 56.7 64 54.8L0 53Z" fill="#002171"></path><path d="M0 206L64 207.8C128 209.7 256 213.3 384 215.2C512 217 640 217 768 209.8C896 202.7 1024 188.3 1152 186.5C1280 184.7 1408 195.3 1536 197.2C1664 199 1792 192 1856 188.5L1920 185L1920 107L1856 110.7C1792 114.3 1664 121.7 1536 123.5C1408 125.3 1280 121.7 1152 123.3C1024 125 896 132 768 135.5C640 139 512 139 384 137.3C256 135.7 128 132.3 64 130.7L0 129Z" fill="#0e2a87"></path><path d="M0 282L64 285.5C128 289 256 296 384 297.8C512 299.7 640 296.3 768 287.3C896 278.3 1024 263.7 1152 261.8C1280 260 1408 271 1536 272.8C1664 274.7 1792 267.3 1856 263.7L1920 260L1920 183L1856 186.5C1792 190 1664 197 1536 195.2C1408 193.3 1280 182.7 1152 184.5C1024 186.3 896 200.7 768 207.8C640 215 512 215 384 213.2C256 211.3 128 207.7 64 205.8L0 204Z" fill="#2640a2"></path><path d="M0 519L64 526.3C128 533.7 256 548.3 384 553.8C512 559.3 640 555.7 768 539.3C896 523 1024 494 1152 490.3C1280 486.7 1408 508.3 1536 512C1664 515.7 1792 501.3 1856 494.2L1920 487L1920 258L1856 261.7C1792 265.3 1664 272.7 1536 270.8C1408 269 1280 258 1152 259.8C1024 261.7 896 276.3 768 285.3C640 294.3 512 297.7 384 295.8C256 294 128 287 64 283.5L0 280Z" fill="#2a44a7"></path><path d="M0 735L64 740.5C128 746 256 757 384 757C512 757 640 746 768 737C896 728 1024 721 1152 722.8C1280 724.7 1408 735.3 1536 746.2C1664 757 1792 768 1856 773.5L1920 779L1920 485L1856 492.2C1792 499.3 1664 513.7 1536 510C1408 506.3 1280 484.7 1152 488.3C1024 492 896 521 768 537.3C640 553.7 512 557.3 384 551.8C256 546.3 128 531.7 64 524.3L0 517Z" fill="#2640a2"></path><path d="M0 876L64 876C128 876 256 876 384 877.8C512 879.7 640 883.3 768 886.8C896 890.3 1024 893.7 1152 893.7C1280 893.7 1408 890.3 1536 892.2C1664 894 1792 901 1856 904.5L1920 908L1920 777L1856 771.5C1792 766 1664 755 1536 744.2C1408 733.3 1280 722.7 1152 720.8C1024 719 896 726 768 735C640 744 512 755 384 755C256 755 128 744 64 738.5L0 733Z" fill="#0e2a87"></path><path d="M0 962L64 960.2C128 958.3 256 954.7 384 952.8C512 951 640 951 768 956.5C896 962 1024 973 1152 974.8C1280 976.7 1408 969.3 1536 967.5C1664 965.7 1792 969.3 1856 971.2L1920 973L1920 906L1856 902.5C1792 899 1664 892 1536 890.2C1408 888.3 1280 891.7 1152 891.7C1024 891.7 896 888.3 768 884.8C640 881.3 512 877.7 384 875.8C256 874 128 874 64 874L0 874Z" fill="#002171"></path><path d="M0 1081L64 1081C128 1081 256 1081 384 1081C512 1081 640 1081 768 1081C896 1081 1024 1081 1152 1081C1280 1081 1408 1081 1536 1081C1664 1081 1792 1081 1856 1081L1920 1081L1920 971L1856 969.2C1792 967.3 1664 963.7 1536 965.5C1408 967.3 1280 974.7 1152 972.8C1024 971 896 960 768 954.5C640 949 512 949 384 950.8C256 952.7 128 956.3 64 958.2L0 960Z" fill="#001e5e"></path></svg>