<svg width="6000" height="1200" viewBox="0 0 1728 394" fill="none" xmlns="http://www.w3.org/2000/svg">
<path d="M-105 392.772C540.308 392.772 1185.62 392.772 1830.92 392.772" stroke="url(#paint0_linear_1_3434)" stroke-miterlimit="10"/>
<path d="M-105 381.784C221.768 381.865 548.374 379.9 875.061 377.678C1016.41 376.71 1158.73 377.028 1300.06 379.066C1476.99 381.614 1653.99 379.214 1830.87 381.784" stroke="url(#paint1_linear_1_3434)" stroke-miterlimit="10"/>
<path d="M-105 370.957C-12.4118 370.957 80.2033 371.349 172.778 371.157C255.512 370.987 338.058 367.302 420.764 366.667C574.832 365.485 728.872 366.859 882.926 365.463C1019.66 364.222 1157.81 360.936 1294.46 365.95C1374.1 368.904 1452.92 370.248 1532.63 371.467C1632.11 372.988 1731.48 368.86 1830.92 370.957" stroke="url(#paint2_linear_1_3434)" stroke-miterlimit="10"/>
<path d="M-105 360.279C-13.7427 360.279 77.7565 361.121 168.987 360.212C254.719 359.356 339.953 353.352 425.618 351.808C579.981 349.024 733.134 356.978 887.335 355.56C1023.02 354.334 1156.79 344.379 1292.63 353.285C1372.03 358.492 1448.97 362.568 1528.95 363.757C1629.78 365.234 1730.11 358.048 1830.92 360.279" stroke="url(#paint3_linear_1_3434)" stroke-miterlimit="10"/>
<path d="M-105 349.807C-15.3963 349.807 74.8661 351.151 164.403 349.297C253.939 347.443 342.198 338.914 431.466 336.159C512.613 333.656 592.618 334.328 673.335 339.778C745.677 344.667 815.948 348.197 888.881 347.665C952.807 347.192 1012.7 341.86 1075.83 336.89C1148.08 331.197 1222.47 333.855 1294.04 341.107C1372.82 349.098 1447.13 356.741 1527.57 357.613C1629.05 358.72 1729.38 347.894 1830.92 349.807" stroke="url(#paint4_linear_1_3434)" stroke-miterlimit="10"/>
<path d="M-105 339.483C-17.3323 339.483 71.6664 341.292 159.186 338.397C252.702 335.31 344.632 324.129 437.946 319.935C518.065 316.287 598.72 318.787 677.583 327.364C747.989 334.911 816.056 341.654 888.021 341.344C954.663 341.056 1014.96 331.787 1079.65 324.292C1153.08 315.784 1225.75 319.011 1298.06 329.328C1375.56 340.406 1447.11 352.34 1528.11 352.657C1629.76 353.064 1729.1 338.242 1830.92 339.49" stroke="url(#paint5_linear_1_3434)" stroke-miterlimit="10"/>
<path d="M-105 329.321C-19.4026 329.276 68.292 331.536 153.594 327.585C251.519 323.088 347.186 309.212 444.748 303.414C526.622 298.555 602.284 303.075 681.254 315.282C748.863 325.739 814.348 336.211 885.265 336.233C955.389 336.233 1017.77 322.312 1084.32 312.151C1160.13 300.578 1230.03 303.946 1304.11 317.926C1379.5 332.149 1448.73 348.943 1530.17 348.573C1631.67 348.071 1729.14 328.981 1830.92 329.321" stroke="url(#paint6_linear_1_3434)" stroke-miterlimit="10"/>
<path d="M-105 319.321C-21.5671 319.255 64.81 321.766 147.746 316.907C250.161 310.91 349.404 294.353 451.457 286.879C534.473 280.801 606.532 287.3 684.225 303.562C748.325 316.98 811.283 331.521 881.044 331.979C954.77 332.467 1021.24 313.347 1089.42 300.475C1168.17 285.609 1235.4 288.77 1311.49 306.885C1383.95 324.136 1451.52 346.284 1533.32 345.043C1634.45 343.507 1729.35 320.03 1830.9 319.321" stroke="url(#paint7_linear_1_3434)" stroke-miterlimit="10"/>
<path d="M-105 309.485C-23.7047 309.396 61.3281 312.07 142.018 306.405C248.817 298.91 351.649 279.753 457.95 270.61C542.647 263.321 610.619 271.666 686.672 292.211C746.82 308.458 807.237 327.223 876.029 328.213C953.358 329.313 1025.16 304.478 1094.92 289.213C1131.46 281.259 1169.98 273.808 1209.81 275.521C1248.8 277.205 1285.72 286.222 1319.81 296.199C1388.54 316.264 1455.49 343.884 1537.27 341.772C1637.96 339.165 1729.69 311.316 1830.94 309.507" stroke="url(#paint8_linear_1_3434)" stroke-miterlimit="10"/>
<path d="M-104.934 299.818C-25.6153 299.707 58.0328 302.447 136.518 296.125C247.39 287.219 353.436 265.588 463.676 254.865C550.308 246.432 614.355 256.468 688.351 281.244C744.452 300.032 802.341 322.992 870.516 324.55C951.179 326.389 1029.15 295.712 1100.25 278.35C1137.48 269.251 1178.56 259.658 1220.15 261.77C1259.14 263.749 1295.67 274.561 1328.27 285.771C1393.27 308.133 1459.53 341.329 1541.51 338.367C1641.78 334.734 1729.97 302.653 1830.95 299.818" stroke="url(#paint9_linear_1_3434)" stroke-miterlimit="10"/>
<path d="M-104.92 290.321C-27.4964 290.188 54.9147 292.928 131.397 286.141C245.885 275.972 354.781 252.059 468.436 239.904C511.712 235.281 552.729 232.607 595.118 240.716C629.655 247.326 660.039 258.927 689.346 270.655C741.778 291.621 797.126 318.509 865.139 320.614C948.76 323.206 1033 286.968 1105.25 267.834C1143.13 257.798 1186.73 246.174 1229.91 248.633C1269.07 250.848 1305.12 263.307 1336.32 275.61C1397.87 299.862 1463.34 338.249 1545.76 334.535C1645.67 330.023 1730.2 293.969 1831 290.284" stroke="url(#paint10_linear_1_3434)" stroke-miterlimit="10"/>
<path d="M-104.905 280.979C-29.1085 280.839 52.1868 283.564 126.908 276.467C244.3 265.315 355.266 239.35 471.785 226.049C515.209 221.094 556.105 218.022 598.278 227.224C632.493 234.734 661.653 247.621 689.536 260.5C738.888 283.268 791.925 313.532 860.273 316.08C903.953 317.712 947.874 305.194 985.598 294.597C1027.45 282.84 1067.69 269.444 1109.52 257.672C1147.97 246.86 1193.68 233.597 1238.32 236.366C1277.76 238.811 1313.24 252.539 1343.33 265.758C1402.05 291.606 1466.28 334.335 1549.5 330.008C1649.23 324.838 1730.23 285.196 1831.02 280.949" stroke="url(#paint11_linear_1_3434)" stroke-miterlimit="10"/>
<path d="M-104.892 271.807C-30.4532 271.666 49.9818 274.399 123.265 267.169C242.727 255.39 354.984 227.652 473.452 213.524C516.674 208.355 557.879 205.054 599.623 214.913C633.797 222.985 662.083 236.979 688.957 250.745C736.253 274.96 787.286 307.734 856.469 310.563C901.344 312.38 946.543 298.821 984.858 287.61C1028.11 274.945 1069.55 260.53 1112.8 247.85C1151.79 236.41 1198.84 222.106 1244.67 225.023C1284.54 227.563 1319.41 242.149 1348.68 256.128C1405.59 283.298 1467.86 329.092 1552.41 324.476C1652.13 319.033 1730.04 276.208 1831.03 271.836" stroke="url(#paint12_linear_1_3434)" stroke-miterlimit="10"/>
<path d="M-104.866 262.797C-31.4757 262.679 48.4618 265.463 120.669 258.292C241.14 246.329 353.706 217.136 473.088 202.624C515.718 197.455 557.69 194.087 598.842 204.013C633.299 212.321 661.195 227.069 687.572 241.418C734.115 266.778 783.642 300.867 854.276 303.614C900.147 305.401 945.466 291.702 984.319 279.982C1028.48 266.689 1070.7 251.535 1114.85 238.227C1154.33 226.323 1201.59 211.789 1248.36 214.684C1288.69 217.18 1322.97 232.031 1351.88 246.609C1408.34 275.078 1467.64 322.032 1554.17 317.461C1654.15 312.18 1729.7 266.718 1831.11 262.812" stroke="url(#paint13_linear_1_3434)" stroke-miterlimit="10"/>
<path d="M-104.853 253.935C-31.7314 253.684 47.9507 256.815 119.849 249.504C239.5 237.311 350.627 207.247 469.068 192.396C511.577 187.071 553.522 183.881 594.647 193.688C629.602 202.041 658.049 216.966 684.816 231.492C732.219 257.221 782.271 291.746 853.833 294.966C900.026 297.041 945.076 283.512 984.104 271.607C1028.33 258.107 1070.47 242.658 1114.68 229.151C1154.36 217.025 1201.37 202.691 1248.49 205.792C1289.09 208.466 1323.17 223.346 1352.13 238.087C1408.82 266.955 1467 313.288 1554.21 308.982C1654.47 304.049 1729.25 257.347 1831.07 253.935" stroke="url(#paint14_linear_1_3434)" stroke-miterlimit="10"/>
<path d="M-104.838 245.272C-31.4077 244.815 48.0323 248.766 120.186 240.945C237.712 228.206 346.339 197.647 462.616 182.271C505.636 176.577 546.479 173.616 588.195 183.49C623.781 191.901 653.237 206.671 680.985 221.072C729.961 246.52 782.124 281.392 853.686 285.786C899.597 288.607 944.808 275.041 983.5 263.144C1027.19 249.711 1068.69 234.247 1112.37 220.799C1151.97 208.606 1198.98 194.383 1246.03 198.068C1286.51 201.236 1321.09 216.331 1350.45 230.909C1407.44 259.193 1467.29 304.655 1553.45 300.475C1653.96 295.594 1728.98 248.625 1831.04 245.272" stroke="url(#paint15_linear_1_3434)" stroke-miterlimit="10"/>
<path d="M-104.812 236.758C-30.9646 236.211 48.2604 241.262 120.857 232.984C235.991 219.853 341.781 188.896 455.611 173.166C498.994 167.154 538.882 164.474 581.069 174.222C617.207 182.574 647.845 196.96 676.629 211.25C727.245 236.359 781.814 271.105 853.309 276.563C898.803 280.041 943.665 266.755 982.007 254.91C1024.96 241.617 1065.59 226.249 1108.51 212.963C1147.99 200.748 1194.56 186.931 1241.39 191.141C1281.91 194.789 1317.11 209.95 1347.13 224.373C1404.87 252.067 1466.69 296.391 1552.19 292.27C1653.14 287.411 1728.57 240.14 1831.08 236.802" stroke="url(#paint16_linear_1_3434)" stroke-miterlimit="10"/>
<path d="M-104.784 228.405C-30.4261 227.881 48.7585 234.269 121.866 225.569C234.365 212.195 337.077 180.92 448.231 164.917C491.789 158.647 530.924 156.291 573.461 165.759C610.243 173.941 642.025 187.913 671.924 201.945C724.651 226.603 781.129 260.847 852.826 267.309C897.782 271.356 941.851 258.647 979.817 246.882C1021.83 233.855 1061.42 218.62 1103.41 205.578C1142.73 193.356 1188.4 180.226 1234.96 184.9C1275.66 188.999 1311.59 204.101 1342.51 218.325C1401.4 245.405 1465.42 288.371 1550.47 284.273C1652.04 279.376 1728.05 231.788 1831.18 228.427" stroke="url(#paint17_linear_1_3434)" stroke-miterlimit="10"/>
<path d="M-104.771 220.215C-29.808 219.802 49.3498 227.726 123.116 218.65C232.792 205.157 332.237 173.601 440.527 157.51C484.059 151.026 522.656 149.01 565.408 158.064C602.849 165.995 635.746 179.48 666.869 193.083C721.989 217.18 780.188 250.605 852.153 257.997C939.001 266.925 1026.76 220.459 1097.14 198.555C1136.32 186.355 1180.75 174.133 1226.9 179.251C1267.93 183.807 1304.61 198.762 1336.59 212.771C1396.98 239.217 1463.39 280.647 1548.22 276.526C1650.55 271.563 1727.28 223.627 1831.15 220.215" stroke="url(#paint18_linear_1_3434)" stroke-miterlimit="10"/>
<path d="M-104.745 212.195C-29.1229 211.966 50.0483 221.589 124.581 212.195C231.313 198.696 327.329 166.992 432.608 150.848C475.992 144.202 514.213 142.548 557.085 151.077C595.212 158.676 629.252 171.563 661.598 184.738C719.111 208.148 779.044 240.457 851.373 248.766C936.903 258.573 1020.89 213.451 1089.96 191.901C1128.16 180.004 1172.68 168.011 1217.57 174.141C1259.25 179.827 1295.96 193.615 1329.76 207.646C1391.89 233.42 1460.85 273.173 1545.68 269.008C1648.88 263.949 1726.44 215.651 1831.18 212.144" stroke="url(#paint19_linear_1_3434)" stroke-miterlimit="10"/>
<path d="M-104.717 204.33C-28.3828 204.33 50.8691 215.799 126.236 206.058C229.929 192.655 322.423 160.818 424.596 144.763C602.056 116.855 694.631 219.883 850.513 239.601C934.537 250.243 1014.27 206.745 1082.1 185.632C1120.12 173.816 1162.92 163.056 1207.25 169.532C1249.45 175.699 1287.02 189.184 1322.18 202.949C1386.24 228.058 1457.88 266.002 1542.89 261.771C1647.04 256.601 1725.51 207.927 1831.22 204.33" stroke="url(#paint20_linear_1_3434)" stroke-miterlimit="10"/>
<path d="M-104.691 196.635C-27.617 196.946 51.7693 210.298 128.037 200.269C228.637 187.042 317.596 155.132 416.583 139.217C590.373 111.287 696.217 209.374 849.585 230.503C932.157 241.89 1007.11 200.32 1073.69 179.613C1111.55 167.841 1152.49 158.499 1196.18 165.271C1238.95 171.918 1277.48 185.063 1314.04 198.541C1380.16 222.911 1454.53 259.031 1539.9 254.703C1645.07 249.379 1724.53 200.35 1831.26 196.635" stroke="url(#paint21_linear_1_3434)" stroke-miterlimit="10"/>
<path d="M-104.663 189.103C-26.8231 189.73 52.7245 205.032 129.946 194.752C227.468 181.769 312.783 149.822 408.706 134.121C578.812 106.273 697.75 198.998 848.631 221.537C929.725 233.649 999.579 194.124 1065 173.823C1102.72 162.118 1141.63 154.275 1184.65 161.269C1228 168.351 1267.53 181.208 1305.55 194.353C1373.79 217.985 1450.9 252.222 1536.7 247.798C1642.91 242.311 1723.41 192.913 1831.21 189.073" stroke="url(#paint22_linear_1_3434)" stroke-miterlimit="10"/>
<path d="M-104.637 181.732C-26.0441 182.685 53.7321 199.943 131.976 189.449C226.486 176.762 308.279 144.8 401.109 129.365C567.599 101.679 699.255 188.836 847.662 212.727C927.29 225.547 991.902 188.127 1056.2 168.218C1093.77 156.586 1130.78 150.287 1173.09 157.532C1217.05 165.064 1257.61 177.596 1297.05 190.417C1367.43 213.31 1447.26 245.656 1533.6 241.122C1640.92 235.48 1722.42 185.735 1831.29 181.732" stroke="url(#paint23_linear_1_3434)" stroke-miterlimit="10"/>
<path d="M-104.611 174.532C-25.2918 175.802 54.7533 194.974 133.898 184.302C225.504 171.947 303.842 139.992 393.715 124.861C556.91 97.3886 700.774 178.874 846.774 204.101C924.951 217.616 984.306 182.301 1047.56 162.746C1084.96 151.188 1120.16 146.432 1161.66 153.884C1206.22 161.874 1247.81 174.118 1288.66 186.584C1361.11 208.695 1443.6 239.217 1530.53 234.586C1638.93 228.789 1721.44 178.638 1831.37 174.547" stroke="url(#paint24_linear_1_3434)" stroke-miterlimit="10"/>
<path d="M-104.583 167.487C-24.471 169.06 55.7623 190.07 135.875 179.251C224.725 167.25 299.756 135.318 386.832 120.511C546.895 93.29 702.267 169.119 845.821 195.683C922.693 209.906 976.737 176.548 1039.12 157.384C1076.4 145.937 1109.75 142.614 1150.55 150.28C1195.7 158.728 1238.29 170.729 1280.48 182.833C1354.91 204.183 1439.95 232.91 1527.48 228.162C1636.9 222.217 1720.37 171.704 1831.31 167.487" stroke="url(#paint25_linear_1_3434)" stroke-miterlimit="10"/>
<path d="M-104.556 160.611C-23.6905 162.443 56.7713 185.181 137.784 174.251C224.094 162.612 296.019 130.68 380.487 116.22C462.428 102.189 549.598 118.029 626.134 134.956C699.941 151.284 770.105 172.7 845.015 187.507C920.919 202.513 969.33 170.728 1031.24 152.059C1113.45 127.283 1197.65 158.706 1272.89 179.081C1349.13 199.7 1436.56 226.714 1524.67 221.862C1635.06 215.792 1719.45 164.924 1831.37 160.604" stroke="url(#paint26_linear_1_3434)" stroke-miterlimit="10"/>
<path d="M-104.529 153.891C-22.9113 155.937 57.5639 180.248 139.612 169.237C223.623 157.953 292.684 126.042 374.88 111.9C456.068 97.913 545.538 113.104 622.437 128.605C697.736 143.788 769.405 163.839 844.301 179.613C919.197 195.387 962.944 165.161 1024.06 146.757C1104.4 122.571 1192.11 156.358 1266.05 175.3C1343.89 195.239 1433.53 220.614 1522.13 215.696C1633.38 209.515 1718.6 158.307 1831.34 153.891" stroke="url(#paint27_linear_1_3434)" stroke-miterlimit="10"/>
<path d="M-104.503 147.341C-22.1186 149.556 58.2894 175.226 141.292 164.149C223.3 153.212 289.82 121.316 369.839 107.447C450.408 93.5263 541.921 108.097 619.169 122.313C695.8 136.426 768.908 155.272 843.683 172.014C878.959 179.908 904.812 180.233 938.919 170.049C966.641 161.771 990.087 149.748 1017.77 141.41C1054.7 130.274 1084.11 130.584 1122.79 138.863C1169.27 148.825 1214.55 160.279 1260.15 171.408C1339.29 190.668 1430.89 214.566 1519.88 209.603C1631.9 203.355 1717.83 151.808 1831.38 147.341" stroke="url(#paint28_linear_1_3434)" stroke-miterlimit="10"/>
<path d="M-104.475 140.945C-21.3248 143.16 58.8413 170.057 142.812 158.942C223.193 148.3 287.442 116.287 365.846 102.772C445.999 88.9548 539.192 102.92 616.75 116.065C694.308 129.21 768.774 147.082 843.307 164.806C877.75 172.996 902.931 174.155 936.742 164.023C963.549 155.988 985.92 144.128 1012.66 136.034C1049.39 124.912 1078.35 126.094 1116.35 134.646C1163.06 145.154 1209.03 156.586 1255.5 167.405C1335.64 186.06 1429.02 208.628 1518.15 203.651C1630.78 197.366 1717.3 145.509 1831.39 141.011" stroke="url(#paint29_linear_1_3434)" stroke-miterlimit="10"/>
<path d="M-104.449 134.727C-20.5189 136.883 59.1901 164.71 144.102 153.566C223.286 143.161 285.532 110.903 362.848 97.7873C442.893 84.1916 537.094 97.5215 615.136 109.729C693.81 122.025 768.921 139.151 843.145 157.849C876.889 166.342 901.787 168.129 935.343 157.997C961.424 150.132 982.894 138.346 1008.89 130.407C1045.45 119.248 1074.38 121.057 1111.81 129.934C1158.58 141.012 1205.1 152.473 1252.27 163.063C1332.93 181.178 1427.87 202.58 1516.94 197.639C1630.02 191.362 1716.95 139.21 1831.53 134.727" stroke="url(#paint30_linear_1_3434)" stroke-miterlimit="10"/>
<path d="M-104.422 128.664C-19.725 130.621 59.2983 159.12 145.151 147.946C223.516 137.747 284.417 105.35 360.805 92.389C440.595 78.8597 536.033 91.9016 614.276 103.348C693.757 114.98 769.204 131.64 843.078 151.351C876.271 160.212 901.304 162.354 934.685 152.155C960.229 144.35 981.026 132.556 1006.53 124.676C1042.95 113.421 1072.28 115.548 1109.27 124.831C1155.95 136.544 1202.81 148.086 1250.51 158.499C1331.41 176.157 1427.46 196.598 1516.16 191.732C1629.51 185.521 1716.65 133.088 1831.5 128.664" stroke="url(#paint31_linear_1_3434)" stroke-miterlimit="10"/>
<path d="M-104.382 122.756C-19.2552 124.514 59.2169 153.322 145.594 142.045C223.69 131.854 284.228 99.4859 360.374 86.5992C440.083 73.1142 535.951 86.4219 614.222 97.6249C693.985 109.042 769.19 125.577 843.158 145.376C876.23 154.238 901.612 156.084 934.765 145.952C960.134 138.198 980.797 126.508 1006.17 118.731C1042.46 107.609 1072.34 109.677 1108.97 119.226C1155.45 131.337 1202.37 142.969 1250.27 153.278C1330.78 170.611 1428.08 190.823 1516.09 185.772C1629.28 179.288 1716.99 127.741 1831.54 122.778" stroke="url(#paint32_linear_1_3434)" stroke-miterlimit="10"/>
<path d="M-104.354 116.944C-19.0394 118.613 59.2041 147.614 145.783 136.204C223.758 125.924 284.605 93.829 360.805 81.0234C440.514 67.6271 536.167 81.5182 614.317 92.7951C693.824 104.271 768.707 120.777 843.186 139.638C913.686 157.487 948.626 130.037 1006.69 112.919C1042.99 102.218 1073.05 104.168 1109.35 113.754C1155.62 125.976 1202.46 137.577 1250.35 147.769C1330.39 164.798 1428.95 185.107 1516.34 179.627C1629.04 172.553 1717.82 123.103 1831.61 117.055" stroke="url(#paint33_linear_1_3434)" stroke-miterlimit="10"/>
<path d="M-104.328 111.221C-18.7576 112.831 59.2977 142.045 146.145 130.54C224.12 120.201 285.209 88.4454 361.45 75.758C441.159 62.4651 536.53 76.8879 614.558 88.2017C693.756 99.6853 768.356 116.117 843.266 134.025C913.174 150.745 949.365 123.782 1007.47 107.44C1043.77 97.2039 1074.1 99.0945 1110.07 108.695C1156.13 120.984 1202.84 132.497 1250.71 142.511C1330.43 159.193 1429.97 179.288 1516.63 173.439C1628.77 165.877 1718.64 118.576 1831.6 111.568" stroke="url(#paint34_linear_1_3434)" stroke-miterlimit="10"/>
<path d="M-104.301 105.601C-18.4343 107.166 59.5001 136.617 146.67 125.06C224.551 114.736 286.003 83.3423 362.297 70.7878C442.006 57.7164 537.068 72.5011 614.949 83.8223C693.77 95.269 768.209 111.575 843.388 128.494C912.799 144.098 950.226 117.734 1008.48 102.152C1044.87 92.4258 1075.43 94.3163 1111.14 103.909C1156.94 116.22 1203.55 127.6 1251.34 137.378C1330.86 153.662 1431.01 173.262 1517.08 167.11C1628.66 159.142 1719.57 114.064 1831.66 106.191" stroke="url(#paint35_linear_1_3434)" stroke-miterlimit="10"/>
<path d="M-104.274 100.077C-18.0449 101.628 59.7416 131.308 147.356 119.743C225.169 109.478 286.997 78.4388 363.359 66.1355C443.041 53.293 537.619 68.4101 615.472 79.6943C693.864 91.0671 768.074 107.203 843.562 123.103C912.449 137.615 951.194 111.944 1009.72 97.204C1046.23 88.0024 1077.03 89.9594 1112.51 99.5229C1157.95 111.896 1204.59 122.906 1252.2 132.504C1331.66 148.338 1432.08 167.214 1517.65 160.781C1628.51 152.488 1720.54 109.685 1831.65 101.066" stroke="url(#paint36_linear_1_3434)" stroke-miterlimit="10"/>
<path d="M-104.233 94.6562C-17.6143 96.207 60.1453 126.146 148.189 114.596C225.936 104.412 288.181 73.7862 364.636 61.734C444.292 49.1795 538.466 64.5329 616.172 75.7654C694.147 87.0201 768.155 102.935 843.818 117.801C912.194 131.241 952.337 106.332 1011.21 92.485C1047.9 83.8519 1078.92 85.9197 1114.2 95.439C1159.37 107.73 1205.84 118.534 1253.35 127.792C1332.84 143.131 1433.25 160.981 1518.37 154.378C1628.51 145.834 1721.58 105.372 1831.73 96.0815" stroke="url(#paint37_linear_1_3434)" stroke-miterlimit="10"/>
<path d="M-104.207 89.3537C-17.1445 90.9119 60.6016 121.109 149.143 109.648C226.836 99.5892 289.525 69.4069 366.007 57.6426C445.622 45.3984 539.299 60.9363 616.937 72.0728C694.334 83.1503 768.316 98.8138 844.059 112.624C911.951 125.008 953.573 100.948 1012.85 88.0391C1049.74 80.0043 1081.01 82.2272 1116.14 91.7316C1161 103.905 1207.25 114.466 1254.61 123.347C1334.24 138.117 1434.34 154.777 1519.09 148.02C1628.47 139.306 1722.55 101.229 1831.7 91.3698" stroke="url(#paint38_linear_1_3434)" stroke-miterlimit="10"/>
<path d="M-104.18 84.1547C-16.6329 85.7498 61.1804 116.235 150.233 104.833C227.871 94.9515 291.018 65.2492 367.581 53.8025C447.142 41.9127 540.308 57.5614 617.772 68.5724C694.631 79.5021 768.532 94.8112 844.302 107.558C911.723 118.894 954.905 95.7417 1014.62 83.8223C1051.74 76.4374 1083.25 78.8301 1118.28 88.2533C1162.84 100.283 1208.9 110.561 1256.12 119.012C1336 133.213 1435.54 148.463 1519.98 141.588C1628.57 132.726 1723.61 97.1227 1831.74 86.7542" stroke="url(#paint39_linear_1_3434)" stroke-miterlimit="10"/>
<path d="M-104.153 79.0739C-16.0823 80.7134 61.7177 111.494 151.429 100.247C229.014 90.5133 292.657 61.3131 369.301 50.2209C448.795 38.7225 541.383 54.4229 618.739 65.2936C695.06 76.024 768.894 90.949 844.597 102.617C911.561 112.956 956.397 90.7496 1016.58 79.8568C1053.96 73.0995 1085.71 75.7507 1120.65 85.0262C1164.91 96.8733 1210.75 106.838 1257.78 114.832C1337.98 128.383 1436.71 142.06 1520.91 135.104C1628.69 126.242 1724.64 93.0832 1831.74 82.2864" stroke="url(#paint40_linear_1_3434)" stroke-miterlimit="10"/>
<path d="M-104.126 74.1184C-15.5035 75.8169 62.3771 106.893 152.653 95.8006C230.278 86.2962 294.419 57.5982 371.157 46.89C450.57 35.8126 542.513 51.5056 619.869 62.2138C695.626 72.7152 769.406 87.2119 845.028 97.7946C911.535 107.107 958.118 85.9343 1018.8 76.1197C1056.45 70.0345 1088.43 72.9442 1123.34 82.1754C1167.28 93.8145 1212.89 103.431 1259.72 110.925C1340.22 123.782 1437.96 135.775 1521.97 128.738C1628.9 119.824 1725.71 89.2502 1831.8 78.0841" stroke="url(#paint41_linear_1_3434)" stroke-miterlimit="10"/>
<path d="M-104.099 69.3111C-14.9259 71.0613 63.0488 102.433 154.118 91.525C231.622 82.2348 296.301 54.098 373.119 43.796C452.438 33.1543 543.749 48.8104 620.931 59.3044C696.136 69.5548 769.862 83.5714 845.323 93.0759C911.413 101.406 959.838 81.2599 1020.99 72.5752C1058.91 67.1768 1091.15 70.3597 1126.07 79.5245C1169.67 90.9308 1215.04 100.172 1261.64 107.137C1342.67 119.248 1439.19 129.366 1523.07 122.343C1629.17 113.481 1726.75 85.4768 1831.82 73.9931" stroke="url(#paint42_linear_1_3434)" stroke-miterlimit="10"/>
<path d="M-104.072 64.5845C-14.253 66.4381 63.8696 98.1122 155.584 87.4114C233.075 78.3796 298.318 50.8041 375.19 40.9304C454.442 30.7613 545.067 46.3288 622.141 56.6456C696.782 66.6375 770.455 80.1224 845.714 88.5487C911.414 95.9337 961.748 76.8731 1023.36 69.3478C1061.56 64.6583 1094.04 68.181 1129.02 77.2201C1172.29 88.3707 1217.4 97.2117 1263.75 103.621C1345.28 114.935 1440.46 123.11 1524.23 116.08C1629.49 107.255 1727.77 81.9244 1831.85 70.1749" stroke="url(#paint43_linear_1_3434)" stroke-miterlimit="10"/>
<path d="M-104.045 60.0132C-13.5813 61.9629 64.6757 93.9398 157.156 83.4753C234.58 74.7093 300.347 47.7173 377.354 38.2941C456.498 28.605 546.425 44.0617 623.378 54.1496C697.481 63.8608 771.059 76.7771 846.076 84.1251C911.44 90.5279 963.724 72.6194 1025.81 66.2166C1064.27 62.2509 1096.98 66.1206 1132.08 75.0786C1175.01 85.9518 1219.87 94.3659 1265.94 100.187C1347.95 110.645 1441.68 116.789 1525.41 109.788C1629.86 101.066 1728.75 78.4092 1831.88 66.4234" stroke="url(#paint44_linear_1_3434)" stroke-miterlimit="10"/>
<path d="M-104.019 55.5823C-12.9233 57.6353 65.5353 89.915 158.729 79.7016C236.165 71.2162 302.484 44.8224 379.585 35.8644C458.622 26.6849 547.836 41.9865 624.735 51.8381C698.313 61.2687 771.784 73.5646 846.559 79.8419C911.641 85.2994 965.914 68.5576 1028.44 63.3365C1067.19 60.0945 1100.12 64.3334 1135.36 73.1585C1177.96 83.7505 1222.55 91.7301 1268.34 96.9528C1350.89 106.502 1443.03 110.549 1526.73 103.599C1630.25 94.9884 1729.73 75.0638 1831.9 62.8786" stroke="url(#paint45_linear_1_3434)" stroke-miterlimit="10"/>
<path d="M-103.992 51.2915C-12.237 53.4553 66.4233 86.0009 160.383 76.0976C237.82 67.9077 304.69 42.112 381.885 33.6415C460.814 25.0011 549.302 40.1107 626.107 49.7112C699.188 58.8464 772.524 70.4851 846.977 75.6988C911.83 80.2406 968.079 64.6879 1031.01 60.6483C1070 58.1448 1103.19 62.7678 1138.56 71.482C1180.83 81.7727 1225.15 89.2955 1270.62 93.8954C1353.7 102.484 1444.21 104.397 1527.91 97.4993C1630.68 89.0361 1730.55 71.8661 1831.84 59.5036" stroke="url(#paint46_linear_1_3434)" stroke-miterlimit="10"/>
<path d="M-103.965 47.1561C-11.5384 49.4307 67.3504 82.3085 162.063 72.6638C239.486 64.7693 306.948 39.5939 384.237 31.6477C463.032 23.5242 550.78 38.464 627.572 47.7986C700.169 56.6606 773.344 67.5829 847.487 71.7407C912.22 75.3741 970.391 61.0325 1033.81 58.1819C1073.08 56.4169 1106.4 61.446 1142.11 70.0421C1184.05 80.0262 1228.11 87.0822 1273.24 91.045C1462.8 108.245 1648.56 79.229 1832.02 56.3356" stroke="url(#paint47_linear_1_3434)" stroke-miterlimit="10"/>
<path d="M-103.938 43.1534C-10.8252 45.5535 68.2922 78.7194 163.784 69.3774C241.208 61.8004 309.247 37.2528 386.631 29.7718C465.291 22.1653 552.3 36.9205 628.93 45.9818C701.111 54.541 774.071 64.7544 847.878 67.8339C912.597 70.559 972.597 57.495 1036.48 55.7964C1075.98 54.7625 1109.59 60.2274 1145.5 68.698C1186.96 78.5421 1230.99 84.8194 1275.69 88.2903C1460.42 102.639 1653.1 76.0017 1831.99 53.2634" stroke="url(#paint48_linear_1_3434)" stroke-miterlimit="10"/>
<path d="M-103.911 39.3133C-10.1132 41.839 69.2462 75.2928 165.518 66.261C242.955 58.9721 311.559 35.0817 389.037 28.1029C467.562 21.0355 553.819 35.5913 630.368 44.3498C702.159 52.5841 774.863 62.0738 848.334 64.1489C913.174 65.9804 974.868 54.1497 1039.24 53.6549C1078.96 53.3521 1112.79 59.2453 1148.98 67.6125C1190.17 77.1317 1233.91 82.8698 1278.23 85.7204C1362.67 91.1484 1448.3 86.5254 1532.04 79.8863C1632.52 71.9179 1733.15 63.1741 1832.01 50.3464" stroke="url(#paint49_linear_1_3434)" stroke-miterlimit="10"/>
<path d="M-103.884 35.6281C-10.2066 38.235 69.0452 71.7479 165.223 63.4915C242.351 56.8451 311.089 33.8852 387.962 26.9212C465.668 19.8833 550.189 33.8483 626.067 42.2819C699.417 50.4054 773.721 59.4815 848.805 60.6188C915.46 61.6305 980.408 50.4497 1046.91 51.7568C1087.06 52.547 1120.52 59.7547 1157.32 67.76C1195.54 76.0755 1235.9 80.8388 1276.71 83.0912C1363.59 87.8841 1449.75 80.8167 1535.59 74.148C1634.67 66.4529 1734.64 60.5302 1832.08 47.6656" stroke="url(#paint50_linear_1_3434)" stroke-miterlimit="10"/>
<path d="M-103.871 32.1054C-9.54812 34.8378 70.0264 68.6314 166.917 60.6926C244.058 54.371 313.348 32.0168 390.341 25.5623C467.886 19.0931 551.735 32.8586 627.505 41.019C700.505 48.8914 774.528 57.266 849.222 57.266C916.267 57.266 982.653 47.5695 1049.71 50.0435C1089.91 51.5204 1123.65 59.1417 1160.73 66.9772C1198.7 74.9972 1238.79 79.2584 1279.25 80.9421C1366.41 84.5682 1451.08 75.241 1536.91 68.757C1635.34 61.3203 1735.3 58.1521 1832.05 45.1251" stroke="url(#paint51_linear_1_3434)" stroke-miterlimit="10"/>
<path d="M-103.844 28.7528C-8.80924 31.6108 70.9266 65.6777 168.637 58.049C245.805 52.0229 315.633 30.2963 392.733 24.344C470.117 18.3548 553.308 32.0244 629.037 39.9189C701.634 47.5033 775.374 55.1245 849.679 54.0463C917.207 53.0641 984.897 44.8225 1052.52 48.4485C1092.77 50.6123 1126.78 58.6398 1164.1 66.3054C1201.75 74.0374 1241.65 77.7964 1281.74 78.9115C1369.12 81.3559 1452.4 69.8132 1538.19 63.5065C1636.01 56.3135 1735.82 55.9147 1832.01 42.7252" stroke="url(#paint52_linear_1_3434)" stroke-miterlimit="10"/>
<path d="M-103.817 25.5698C-8.12289 28.5238 71.949 62.8787 170.345 55.5676C247.527 49.8294 317.892 28.6937 395.114 23.2731C472.336 17.8525 554.854 31.3375 630.382 38.9588C702.805 46.2699 776.195 53.1748 850.096 51.011C918.216 49.0171 987.063 42.2525 1055.25 47.0158C1095.58 49.8294 1129.84 58.2926 1167.51 65.781C1205.18 73.2693 1244.57 76.4892 1284.28 77.0504C1371.67 78.2985 1453.84 64.592 1539.54 58.4625C1636.79 51.5058 1736.52 53.869 1832.07 40.4875" stroke="url(#paint53_linear_1_3434)" stroke-miterlimit="10"/>
<path d="M-103.803 22.5566C-7.45097 25.6583 72.9033 60.22 171.998 53.2486C249.22 47.7911 320.096 27.2978 397.426 22.3351C474.433 17.3946 556.44 30.7909 631.834 38.1537C704.041 45.1989 777.028 51.3802 850.566 48.1529C919.359 45.1325 989.227 39.8375 1058.02 45.7159C1098.23 49.1573 1132.89 58.0636 1170.83 65.3821C1208.07 72.5602 1247.46 75.3222 1286.74 75.3444C1374.13 75.4035 1455.25 59.5996 1540.83 53.6326C1637.63 46.8827 1737.11 52.0005 1832.07 38.4048" stroke="url(#paint54_linear_1_3434)" stroke-miterlimit="10"/>
<path d="M-103.791 19.7283C-6.79271 22.9333 73.8036 57.783 173.611 51.0774C250.873 45.908 322.26 25.9686 399.684 21.5376C476.61 17.1066 557.798 30.3995 633.205 37.5039C705.264 44.2685 777.888 49.7555 850.996 45.4796C920.528 41.4179 991.297 37.5925 1060.72 44.5639C1100.92 48.5887 1135.87 57.9455 1174.09 65.0941C1211.16 72.0212 1250.21 74.2884 1289.13 73.7862C1376.38 72.6711 1456.66 54.8438 1542.12 49.017C1638.37 42.4592 1737.6 50.3316 1832.11 36.4626" stroke="url(#paint55_linear_1_3434)" stroke-miterlimit="10"/>
<path d="M-103.763 17.0769C-6.16015 20.3928 74.7184 55.4787 175.185 49.0686C252.487 44.128 324.412 24.8311 401.876 20.8211C478.641 16.848 559.17 30.1188 634.536 36.9572C706.461 43.4634 778.722 48.2636 851.413 42.9612C921.725 37.836 993.368 35.4581 1063.28 43.5003C1103.43 48.1159 1138.68 57.9158 1177.24 64.9167C1214.08 71.5632 1252.93 73.3947 1291.51 72.3829C1378.54 70.1157 1458.12 50.3536 1543.44 44.6524C1639.23 38.2496 1738.16 48.8544 1832.21 34.7122" stroke="url(#paint56_linear_1_3434)" stroke-miterlimit="10"/>
<path d="M-103.75 14.6106C-5.60921 18.0298 75.5651 53.3669 176.677 47.2152C254.02 42.5036 326.348 23.7901 403.986 20.2232C480.617 16.7079 560.554 29.9566 635.8 36.5587C707.631 42.8729 779.529 46.9494 851.79 40.6426C922.921 34.4392 995.209 33.4792 1065.72 42.5627C1105.8 47.7322 1141.38 57.9751 1180.2 64.8136C1216.85 71.268 1255.48 72.6047 1293.66 71.113C1380.38 67.7233 1459.41 46.137 1544.57 40.5097C1640.02 34.2251 1738.55 47.5475 1832.19 33.0656" stroke="url(#paint57_linear_1_3434)" stroke-miterlimit="10"/>
<path d="M-103.737 12.3433C-4.9776 15.8437 76.4118 51.4171 178.088 45.5091C255.498 41.0191 328.27 22.8595 405.989 19.7282C482.499 16.6487 561.818 29.8973 636.996 36.2927C708.76 42.4001 780.308 45.7972 852.166 38.5082C924.023 31.2192 997.024 31.6476 1068.09 41.7354C1108.07 47.4145 1144.01 57.9823 1183.03 64.7913C1219.33 71.135 1258.02 71.9325 1295.73 69.9608C1382.1 65.5298 1460.69 42.2007 1545.67 36.6472C1640.71 30.4364 1738.95 46.4544 1832.19 31.5811" stroke="url(#paint58_linear_1_3434)" stroke-miterlimit="10"/>
<path d="M-103.655 10.2312C-4.3583 13.8055 77.2059 49.6152 179.487 43.9362C256.87 39.6603 330.072 22.0471 407.886 19.3221C484.22 16.6487 563.029 29.9417 638.126 36.1524C709.849 42.0604 781.062 44.815 852.503 36.566C925.288 28.1693 998.719 29.9195 1070.29 40.997C1110.2 47.156 1146.44 58.1227 1185.7 64.8356C1221.85 71.0169 1260.34 71.3713 1297.66 69.0008C1338.38 66.4086 1378.08 60.4711 1417.17 53.8837C1459.36 46.7868 1502.77 35.9604 1546.72 33.0951C1641.43 26.9138 1739.34 45.5904 1832.2 30.274" stroke="url(#paint59_linear_1_3434)" stroke-miterlimit="10"/>
<path d="M-103.655 8.38501C-3.87433 12.0184 77.8378 48.057 180.711 42.57C258.161 38.4344 331.753 21.3087 409.66 18.9898C485.874 16.6931 564.117 30.0673 639.148 36.1229C710.871 41.898 781.801 44.0027 852.825 34.8232C926.404 25.3113 1000.32 28.3318 1072.42 40.3693C1112.14 47.0158 1148.7 58.3148 1188.16 64.9317C1224.16 70.9652 1262.47 70.9209 1299.43 68.1441C1340.07 65.1015 1379.54 58.6471 1418.41 51.6388C1460.29 44.0913 1503.77 32.7037 1547.7 29.8162C1642.12 23.6202 1739.72 44.9184 1832.21 29.0777" stroke="url(#paint60_linear_1_3434)" stroke-miterlimit="10"/>
<path d="M-103.655 6.7085C-3.41724 10.401 78.51 46.6538 181.826 41.3292C259.331 37.3266 333.272 20.7178 411.247 18.7312C487.353 16.789 565.072 30.3182 640.049 36.2188C711.785 41.8535 782.46 43.3675 853.067 33.2648C927.493 22.6526 1001.74 26.8621 1074.35 39.8227C1113.93 46.8827 1150.76 58.5288 1190.42 65.0719C1226.27 70.9798 1264.36 70.5663 1301.05 67.4277C1341.59 63.9567 1380.86 57.0149 1419.53 49.6225C1461.12 41.6689 1504.65 29.7791 1548.59 26.8473C1642.7 20.5701 1740.07 44.4604 1832.25 28.051" stroke="url(#paint61_linear_1_3434)" stroke-miterlimit="10"/>
<path d="M-103.655 5.23901C-3.00047 8.9315 79.0611 45.4354 182.821 40.2364C260.419 36.3445 334.737 20.1936 412.793 18.5319C488.818 16.9073 566.053 30.6359 640.949 36.4183C712.713 41.9497 783.186 42.9023 853.363 31.9357C928.555 20.1862 1002.99 25.5034 1076.12 39.3206C1115.56 46.7868 1152.62 58.7357 1192.45 65.2197C1228.18 71.0317 1266.13 70.2932 1302.47 66.8222C1342.96 62.9525 1382.02 55.5675 1420.51 47.8207C1461.87 39.4831 1505.43 27.1871 1549.42 24.1888C1643.34 17.7787 1740.47 44.2021 1832.25 27.1428" stroke="url(#paint62_linear_1_3434)" stroke-miterlimit="10"/>
<path d="M-103.655 3.9834C-2.61059 7.67588 79.5317 44.4087 183.695 39.2909C261.307 35.4803 335.961 19.7577 414.083 18.3545C490.028 17.0179 566.752 30.9902 641.649 36.6914C713.452 42.1563 783.791 42.5994 853.565 30.7834C929.536 17.9114 1004.02 24.233 1077.67 38.9069C1116.94 46.735 1154.22 58.9571 1194.19 65.3968C1229.82 71.1423 1267.58 70.1231 1303.67 66.3568C1344.11 62.1252 1382.99 54.3415 1421.31 46.2697C1462.49 37.5924 1506.01 24.9789 1550.12 21.8993C1643.84 15.2898 1740.85 44.2019 1832.27 26.3894" stroke="url(#paint63_linear_1_3434)" stroke-miterlimit="10"/>
<path d="M-103.655 2.93481C-3.10803 6.6273 78.7654 43.3601 182.324 38.5968C264.157 34.8379 343.261 17.8598 425.833 18.2069C496.427 18.5023 567.263 31.2414 636.997 36.721C711.086 42.5404 782.003 42.3779 853.753 29.9195C933.314 16.1391 1007.86 23.3838 1084.54 39.771C1118.92 47.1117 1151.67 57.1257 1186.3 64.0011C1222.95 71.2753 1263.19 70.5663 1300.9 66.5268C1343.69 61.9481 1384.65 53.2338 1425.01 44.3719C1465.69 35.4065 1508.94 22.7856 1552.81 19.8316C1645.57 13.6209 1742.05 44.2832 1832.25 25.7913" stroke="url(#paint64_linear_1_3434)" stroke-miterlimit="10"/>
<path d="M-103.655 2.10767C-2.8257 5.74845 79.0477 42.725 182.888 37.9543C264.748 34.188 344.215 17.6087 426.761 18.1626C497.301 18.6426 567.774 31.7361 637.467 37.2232C711.611 43.0573 782.514 42.4813 853.914 29.2105C934.282 14.2633 1008.44 22.3572 1085.75 39.5494C1119.97 47.156 1152.81 57.2586 1187.54 64.1414C1224.11 71.423 1264.17 70.5663 1301.66 66.2978C1344.43 61.4311 1385.23 52.3402 1425.47 43.2419C1466.1 34.055 1509.33 21.2938 1553.31 18.1921C1645.9 11.7081 1742.48 44.6672 1832.27 25.2817" stroke="url(#paint65_linear_1_3434)" stroke-miterlimit="10"/>
<path d="M-103.655 1.51709C-2.62404 5.0988 79.1822 42.2969 183.319 37.4523C265.192 33.6417 344.834 17.4169 427.487 18.148C498 18.7684 568.137 32.2829 637.804 37.8142C711.987 43.7222 782.998 42.7843 853.941 28.7159C935.089 12.6315 1008.65 21.4048 1086.63 39.3207C1120.76 47.1562 1153.69 57.3622 1188.44 64.3262C1224.98 71.6447 1264.69 70.7216 1302.16 66.2537C1388.73 55.9147 1466.28 23.5464 1553.68 17.0181C1646.11 10.1132 1742.95 45.2952 1832.27 24.9348" stroke="url(#paint66_linear_1_3434)" stroke-miterlimit="10"/>
<path d="M-103.655 1.14136C-2.46272 4.64922 79.3166 42.0688 183.574 37.1061C265.461 33.1995 345.372 17.2923 427.984 18.1415C498.511 18.88 568.339 32.8672 637.978 38.4945C712.189 44.4911 783.441 43.28 853.982 28.451C935.842 11.2366 1008.59 20.5195 1087.3 39.1592C1121.15 47.1571 1154.16 57.7545 1188.99 64.4453C1225.99 71.5422 1264.5 70.9662 1302.38 66.2989C1389.09 55.6055 1466.22 23.2076 1553.93 16.2067C1646.23 8.82172 1743.48 46.1527 1832.21 24.7142" stroke="url(#paint67_linear_1_3434)" stroke-miterlimit="10"/>
<path d="M-103.655 1C-2.35517 4.40447 79.2763 42.0456 183.641 36.8983C265.528 32.8587 345.546 17.2174 428.321 18.1331C498.861 18.9159 568.419 33.4938 638.045 39.2541C712.256 45.391 783.885 43.9805 854.008 28.4056C936.5 10.0687 1008.22 19.684 1087.69 39.0326C1160.29 56.6974 1220.1 76.8067 1302.31 66.4529C1389.25 55.501 1466.02 23.3764 1554.03 15.8142C1646.23 7.89017 1744 47.2373 1832.32 24.6762" stroke="url(#paint68_linear_1_3434)" stroke-miterlimit="10"/>
<defs>
<linearGradient id="paint0_linear_1_3434" x1="1.39558e+06" y1="494.442" x2="1.39558e+06" y2="420.222" gradientUnits="userSpaceOnUse">
<stop stop-color="#275E59"/>
<stop offset="1" stop-color="#41DCA0"/>
</linearGradient>
<linearGradient id="paint1_linear_1_3434" x1="1.39554e+06" y1="848.238" x2="1.39554e+06" y2="504.341" gradientUnits="userSpaceOnUse">
<stop stop-color="#275E59"/>
<stop offset="1" stop-color="#41DCA0"/>
</linearGradient>
<linearGradient id="paint2_linear_1_3434" x1="1.39558e+06" y1="1233.23" x2="1.39558e+06" y2="598.141" gradientUnits="userSpaceOnUse">
<stop stop-color="#275E59"/>
<stop offset="1" stop-color="#41DCA0"/>
</linearGradient>
<linearGradient id="paint3_linear_1_3434" x1="1.39558e+06" y1="1807.79" x2="1.39558e+06" y2="743.31" gradientUnits="userSpaceOnUse">
<stop stop-color="#275E59"/>
<stop offset="1" stop-color="#41DCA0"/>
</linearGradient>
<linearGradient id="paint4_linear_1_3434" x1="1.39558e+06" y1="2761.92" x2="1.39558e+06" y2="989.379" gradientUnits="userSpaceOnUse">
<stop stop-color="#275E59"/>
<stop offset="1" stop-color="#41DCA0"/>
</linearGradient>
<linearGradient id="paint5_linear_1_3434" x1="1.39558e+06" y1="3811.31" x2="1.39558e+06" y2="1261.39" gradientUnits="userSpaceOnUse">
<stop stop-color="#275E59"/>
<stop offset="1" stop-color="#41DCA0"/>
</linearGradient>
<linearGradient id="paint6_linear_1_3434" x1="1.39558e+06" y1="5088.5" x2="1.39558e+06" y2="1593.94" gradientUnits="userSpaceOnUse">
<stop stop-color="#275E59"/>
<stop offset="1" stop-color="#41DCA0"/>
</linearGradient>
<linearGradient id="paint7_linear_1_3434" x1="1.39556e+06" y1="6431.42" x2="1.39556e+06" y2="1944.21" gradientUnits="userSpaceOnUse">
<stop stop-color="#275E59"/>
<stop offset="1" stop-color="#41DCA0"/>
</linearGradient>
<linearGradient id="paint8_linear_1_3434" x1="1.39559e+06" y1="7778.36" x2="1.39559e+06" y2="2295.74" gradientUnits="userSpaceOnUse">
<stop stop-color="#275E59"/>
<stop offset="1" stop-color="#41DCA0"/>
</linearGradient>
<linearGradient id="paint9_linear_1_3434" x1="1.39555e+06" y1="9058.71" x2="1.39555e+06" y2="2629.68" gradientUnits="userSpaceOnUse">
<stop stop-color="#275E59"/>
<stop offset="1" stop-color="#41DCA0"/>
</linearGradient>
<linearGradient id="paint10_linear_1_3434" x1="1.39558e+06" y1="10328.8" x2="1.39558e+06" y2="2960.61" gradientUnits="userSpaceOnUse">
<stop stop-color="#275E59"/>
<stop offset="1" stop-color="#41DCA0"/>
</linearGradient>
<linearGradient id="paint11_linear_1_3434" x1="1.39558e+06" y1="11304.2" x2="1.39558e+06" y2="3213.59" gradientUnits="userSpaceOnUse">
<stop stop-color="#275E59"/>
<stop offset="1" stop-color="#41DCA0"/>
</linearGradient>
<linearGradient id="paint12_linear_1_3434" x1="1.39558e+06" y1="12026.6" x2="1.39558e+06" y2="3399.34" gradientUnits="userSpaceOnUse">
<stop stop-color="#275E59"/>
<stop offset="1" stop-color="#41DCA0"/>
</linearGradient>
<linearGradient id="paint13_linear_1_3434" x1="1.39562e+06" y1="12412" x2="1.39562e+06" y2="3495.4" gradientUnits="userSpaceOnUse">
<stop stop-color="#275E59"/>
<stop offset="1" stop-color="#41DCA0"/>
</linearGradient>
<linearGradient id="paint14_linear_1_3434" x1="1.39558e+06" y1="12582.6" x2="1.39558e+06" y2="3533.96" gradientUnits="userSpaceOnUse">
<stop stop-color="#275E59"/>
<stop offset="1" stop-color="#41DCA0"/>
</linearGradient>
<linearGradient id="paint15_linear_1_3434" x1="1.39555e+06" y1="12755.6" x2="1.39555e+06" y2="3573.13" gradientUnits="userSpaceOnUse">
<stop stop-color="#275E59"/>
<stop offset="1" stop-color="#41DCA0"/>
</linearGradient>
<linearGradient id="paint16_linear_1_3434" x1="1.39556e+06" y1="12853.2" x2="1.39556e+06" y2="3592.71" gradientUnits="userSpaceOnUse">
<stop stop-color="#275E59"/>
<stop offset="1" stop-color="#41DCA0"/>
</linearGradient>
<linearGradient id="paint17_linear_1_3434" x1="1.39561e+06" y1="12880.7" x2="1.39561e+06" y2="3594.05" gradientUnits="userSpaceOnUse">
<stop stop-color="#275E59"/>
<stop offset="1" stop-color="#41DCA0"/>
</linearGradient>
<linearGradient id="paint18_linear_1_3434" x1="1.39558e+06" y1="12846.9" x2="1.39558e+06" y2="3579.47" gradientUnits="userSpaceOnUse">
<stop stop-color="#275E59"/>
<stop offset="1" stop-color="#41DCA0"/>
</linearGradient>
<linearGradient id="paint19_linear_1_3434" x1="1.39558e+06" y1="12757.5" x2="1.39558e+06" y2="3550.46" gradientUnits="userSpaceOnUse">
<stop stop-color="#275E59"/>
<stop offset="1" stop-color="#41DCA0"/>
</linearGradient>
<linearGradient id="paint20_linear_1_3434" x1="1.39559e+06" y1="12553.4" x2="1.39559e+06" y2="3491.51" gradientUnits="userSpaceOnUse">
<stop stop-color="#275E59"/>
<stop offset="1" stop-color="#41DCA0"/>
</linearGradient>
<linearGradient id="paint21_linear_1_3434" x1="1.3956e+06" y1="12416.6" x2="1.3956e+06" y2="3450.38" gradientUnits="userSpaceOnUse">
<stop stop-color="#275E59"/>
<stop offset="1" stop-color="#41DCA0"/>
</linearGradient>
<linearGradient id="paint22_linear_1_3434" x1="1.39554e+06" y1="12251.4" x2="1.39554e+06" y2="3401.92" gradientUnits="userSpaceOnUse">
<stop stop-color="#275E59"/>
<stop offset="1" stop-color="#41DCA0"/>
</linearGradient>
<linearGradient id="paint23_linear_1_3434" x1="1.39558e+06" y1="12076.1" x2="1.39558e+06" y2="3350.97" gradientUnits="userSpaceOnUse">
<stop stop-color="#275E59"/>
<stop offset="1" stop-color="#41DCA0"/>
</linearGradient>
<linearGradient id="paint24_linear_1_3434" x1="1.39562e+06" y1="11890.8" x2="1.39562e+06" y2="3297.48" gradientUnits="userSpaceOnUse">
<stop stop-color="#275E59"/>
<stop offset="1" stop-color="#41DCA0"/>
</linearGradient>
<linearGradient id="paint25_linear_1_3434" x1="1.39556e+06" y1="11703" x2="1.39556e+06" y2="3243.45" gradientUnits="userSpaceOnUse">
<stop stop-color="#275E59"/>
<stop offset="1" stop-color="#41DCA0"/>
</linearGradient>
<linearGradient id="paint26_linear_1_3434" x1="1.39558e+06" y1="11458.5" x2="1.39558e+06" y2="3174.6" gradientUnits="userSpaceOnUse">
<stop stop-color="#275E59"/>
<stop offset="1" stop-color="#41DCA0"/>
</linearGradient>
<linearGradient id="paint27_linear_1_3434" x1="1.39554e+06" y1="11283.5" x2="1.39554e+06" y2="3124.12" gradientUnits="userSpaceOnUse">
<stop stop-color="#275E59"/>
<stop offset="1" stop-color="#41DCA0"/>
</linearGradient>
<linearGradient id="paint28_linear_1_3434" x1="1.39555e+06" y1="11127.6" x2="1.39555e+06" y2="3078.68" gradientUnits="userSpaceOnUse">
<stop stop-color="#275E59"/>
<stop offset="1" stop-color="#41DCA0"/>
</linearGradient>
<linearGradient id="paint29_linear_1_3434" x1="1.39554e+06" y1="11005" x2="1.39554e+06" y2="3042.12" gradientUnits="userSpaceOnUse">
<stop stop-color="#275E59"/>
<stop offset="1" stop-color="#41DCA0"/>
</linearGradient>
<linearGradient id="paint30_linear_1_3434" x1="1.39562e+06" y1="10899.3" x2="1.39562e+06" y2="3009.92" gradientUnits="userSpaceOnUse">
<stop stop-color="#275E59"/>
<stop offset="1" stop-color="#41DCA0"/>
</linearGradient>
<linearGradient id="paint31_linear_1_3434" x1="1.39558e+06" y1="10846.9" x2="1.39558e+06" y2="2991.79" gradientUnits="userSpaceOnUse">
<stop stop-color="#275E59"/>
<stop offset="1" stop-color="#41DCA0"/>
</linearGradient>
<linearGradient id="paint32_linear_1_3434" x1="1.39558e+06" y1="10821.7" x2="1.39558e+06" y2="2980.83" gradientUnits="userSpaceOnUse">
<stop stop-color="#275E59"/>
<stop offset="1" stop-color="#41DCA0"/>
</linearGradient>
<linearGradient id="paint33_linear_1_3434" x1="1.39561e+06" y1="10752.4" x2="1.39561e+06" y2="2958.2" gradientUnits="userSpaceOnUse">
<stop stop-color="#275E59"/>
<stop offset="1" stop-color="#41DCA0"/>
</linearGradient>
<linearGradient id="paint34_linear_1_3434" x1="1.39558e+06" y1="10648.4" x2="1.39558e+06" y2="2926.38" gradientUnits="userSpaceOnUse">
<stop stop-color="#275E59"/>
<stop offset="1" stop-color="#41DCA0"/>
</linearGradient>
<linearGradient id="paint35_linear_1_3434" x1="1.39561e+06" y1="10496.6" x2="1.39561e+06" y2="2881.92" gradientUnits="userSpaceOnUse">
<stop stop-color="#275E59"/>
<stop offset="1" stop-color="#41DCA0"/>
</linearGradient>
<linearGradient id="paint36_linear_1_3434" x1="1.39558e+06" y1="10314.7" x2="1.39558e+06" y2="2829.58" gradientUnits="userSpaceOnUse">
<stop stop-color="#275E59"/>
<stop offset="1" stop-color="#41DCA0"/>
</linearGradient>
<linearGradient id="paint37_linear_1_3434" x1="1.39561e+06" y1="10097.3" x2="1.39561e+06" y2="2767.83" gradientUnits="userSpaceOnUse">
<stop stop-color="#275E59"/>
<stop offset="1" stop-color="#41DCA0"/>
</linearGradient>
<linearGradient id="paint38_linear_1_3434" x1="1.39557e+06" y1="9854.98" x2="1.39557e+06" y2="2699.56" gradientUnits="userSpaceOnUse">
<stop stop-color="#275E59"/>
<stop offset="1" stop-color="#41DCA0"/>
</linearGradient>
<linearGradient id="paint39_linear_1_3434" x1="1.39558e+06" y1="9580.54" x2="1.39558e+06" y2="2622.83" gradientUnits="userSpaceOnUse">
<stop stop-color="#275E59"/>
<stop offset="1" stop-color="#41DCA0"/>
</linearGradient>
<linearGradient id="paint40_linear_1_3434" x1="1.39556e+06" y1="9275.95" x2="1.39556e+06" y2="2538.15" gradientUnits="userSpaceOnUse">
<stop stop-color="#275E59"/>
<stop offset="1" stop-color="#41DCA0"/>
</linearGradient>
<linearGradient id="paint41_linear_1_3434" x1="1.39558e+06" y1="8961.79" x2="1.39558e+06" y2="2451.07" gradientUnits="userSpaceOnUse">
<stop stop-color="#275E59"/>
<stop offset="1" stop-color="#41DCA0"/>
</linearGradient>
<linearGradient id="paint42_linear_1_3434" x1="1.39558e+06" y1="8622.26" x2="1.39558e+06" y2="2357.31" gradientUnits="userSpaceOnUse">
<stop stop-color="#275E59"/>
<stop offset="1" stop-color="#41DCA0"/>
</linearGradient>
<linearGradient id="paint43_linear_1_3434" x1="1.39558e+06" y1="8280.12" x2="1.39558e+06" y2="2263.02" gradientUnits="userSpaceOnUse">
<stop stop-color="#275E59"/>
<stop offset="1" stop-color="#41DCA0"/>
</linearGradient>
<linearGradient id="paint44_linear_1_3434" x1="1.39558e+06" y1="7920.09" x2="1.39558e+06" y2="2164.07" gradientUnits="userSpaceOnUse">
<stop stop-color="#275E59"/>
<stop offset="1" stop-color="#41DCA0"/>
</linearGradient>
<linearGradient id="paint45_linear_1_3434" x1="1.39558e+06" y1="7561.7" x2="1.39558e+06" y2="2065.71" gradientUnits="userSpaceOnUse">
<stop stop-color="#275E59"/>
<stop offset="1" stop-color="#41DCA0"/>
</linearGradient>
<linearGradient id="paint46_linear_1_3434" x1="1.39551e+06" y1="7210.84" x2="1.39551e+06" y2="1969.54" gradientUnits="userSpaceOnUse">
<stop stop-color="#275E59"/>
<stop offset="1" stop-color="#41DCA0"/>
</linearGradient>
<linearGradient id="paint47_linear_1_3434" x1="1.39563e+06" y1="6835.06" x2="1.39563e+06" y2="1866.8" gradientUnits="userSpaceOnUse">
<stop stop-color="#275E59"/>
<stop offset="1" stop-color="#41DCA0"/>
</linearGradient>
<linearGradient id="paint48_linear_1_3434" x1="1.39558e+06" y1="6603.38" x2="1.39558e+06" y2="1803.05" gradientUnits="userSpaceOnUse">
<stop stop-color="#275E59"/>
<stop offset="1" stop-color="#41DCA0"/>
</linearGradient>
<linearGradient id="paint49_linear_1_3434" x1="1.39558e+06" y1="6317.89" x2="1.39558e+06" y2="1724.92" gradientUnits="userSpaceOnUse">
<stop stop-color="#275E59"/>
<stop offset="1" stop-color="#41DCA0"/>
</linearGradient>
<linearGradient id="paint50_linear_1_3434" x1="1.39561e+06" y1="6090.94" x2="1.39561e+06" y2="1662.75" gradientUnits="userSpaceOnUse">
<stop stop-color="#275E59"/>
<stop offset="1" stop-color="#41DCA0"/>
</linearGradient>
<linearGradient id="paint51_linear_1_3434" x1="1.39558e+06" y1="5907.37" x2="1.39558e+06" y2="1612.37" gradientUnits="userSpaceOnUse">
<stop stop-color="#275E59"/>
<stop offset="1" stop-color="#41DCA0"/>
</linearGradient>
<linearGradient id="paint52_linear_1_3434" x1="1.39553e+06" y1="5754.73" x2="1.39553e+06" y2="1570.42" gradientUnits="userSpaceOnUse">
<stop stop-color="#275E59"/>
<stop offset="1" stop-color="#41DCA0"/>
</linearGradient>
<linearGradient id="paint53_linear_1_3434" x1="1.39555e+06" y1="5624.91" x2="1.39555e+06" y2="1534.75" gradientUnits="userSpaceOnUse">
<stop stop-color="#275E59"/>
<stop offset="1" stop-color="#41DCA0"/>
</linearGradient>
<linearGradient id="paint54_linear_1_3434" x1="1.39554e+06" y1="5519.3" x2="1.39554e+06" y2="1505.69" gradientUnits="userSpaceOnUse">
<stop stop-color="#275E59"/>
<stop offset="1" stop-color="#41DCA0"/>
</linearGradient>
<linearGradient id="paint55_linear_1_3434" x1="1.39556e+06" y1="5522.61" x2="1.39556e+06" y2="1505.46" gradientUnits="userSpaceOnUse">
<stop stop-color="#275E59"/>
<stop offset="1" stop-color="#41DCA0"/>
</linearGradient>
<linearGradient id="paint56_linear_1_3434" x1="1.39562e+06" y1="5666.45" x2="1.39562e+06" y2="1542.36" gradientUnits="userSpaceOnUse">
<stop stop-color="#275E59"/>
<stop offset="1" stop-color="#41DCA0"/>
</linearGradient>
<linearGradient id="paint57_linear_1_3434" x1="1.39559e+06" y1="5815.5" x2="1.39559e+06" y2="1580.8" gradientUnits="userSpaceOnUse">
<stop stop-color="#275E59"/>
<stop offset="1" stop-color="#41DCA0"/>
</linearGradient>
<linearGradient id="paint58_linear_1_3434" x1="1.39558e+06" y1="5967.17" x2="1.39558e+06" y2="1620.09" gradientUnits="userSpaceOnUse">
<stop stop-color="#275E59"/>
<stop offset="1" stop-color="#41DCA0"/>
</linearGradient>
<linearGradient id="paint59_linear_1_3434" x1="1.39553e+06" y1="6123.2" x2="1.39553e+06" y2="1660.68" gradientUnits="userSpaceOnUse">
<stop stop-color="#275E59"/>
<stop offset="1" stop-color="#41DCA0"/>
</linearGradient>
<linearGradient id="paint60_linear_1_3434" x1="1.39554e+06" y1="6267.81" x2="1.39554e+06" y2="1698.37" gradientUnits="userSpaceOnUse">
<stop stop-color="#275E59"/>
<stop offset="1" stop-color="#41DCA0"/>
</linearGradient>
<linearGradient id="paint61_linear_1_3434" x1="1.39557e+06" y1="6409.22" x2="1.39557e+06" y2="1735.33" gradientUnits="userSpaceOnUse">
<stop stop-color="#275E59"/>
<stop offset="1" stop-color="#41DCA0"/>
</linearGradient>
<linearGradient id="paint62_linear_1_3434" x1="1.39557e+06" y1="6539.63" x2="1.39557e+06" y2="1769.47" gradientUnits="userSpaceOnUse">
<stop stop-color="#275E59"/>
<stop offset="1" stop-color="#41DCA0"/>
</linearGradient>
<linearGradient id="paint63_linear_1_3434" x1="1.39558e+06" y1="6659.34" x2="1.39558e+06" y2="1800.87" gradientUnits="userSpaceOnUse">
<stop stop-color="#275E59"/>
<stop offset="1" stop-color="#41DCA0"/>
</linearGradient>
<linearGradient id="paint64_linear_1_3434" x1="1.39557e+06" y1="6774.1" x2="1.39557e+06" y2="1831.09" gradientUnits="userSpaceOnUse">
<stop stop-color="#275E59"/>
<stop offset="1" stop-color="#41DCA0"/>
</linearGradient>
<linearGradient id="paint65_linear_1_3434" x1="1.39558e+06" y1="6860.46" x2="1.39558e+06" y2="1853.8" gradientUnits="userSpaceOnUse">
<stop stop-color="#275E59"/>
<stop offset="1" stop-color="#41DCA0"/>
</linearGradient>
<linearGradient id="paint66_linear_1_3434" x1="1.39558e+06" y1="6935.5" x2="1.39558e+06" y2="1873.63" gradientUnits="userSpaceOnUse">
<stop stop-color="#275E59"/>
<stop offset="1" stop-color="#41DCA0"/>
</linearGradient>
<linearGradient id="paint67_linear_1_3434" x1="1.39554e+06" y1="6981.34" x2="1.39554e+06" y2="1885.73" gradientUnits="userSpaceOnUse">
<stop stop-color="#275E59"/>
<stop offset="1" stop-color="#41DCA0"/>
</linearGradient>
<linearGradient id="paint68_linear_1_3434" x1="1.39562e+06" y1="6943.15" x2="1.39562e+06" y2="1875.32" gradientUnits="userSpaceOnUse">
<stop stop-color="#275E59"/>
<stop offset="1" stop-color="#41DCA0"/>
</linearGradient>
</defs>
</svg>
